<svg width="24" height="24" viewBox="0 0 24 24" fill="none" xmlns="http://www.w3.org/2000/svg">
<path d="M8.40028 1.39332C8.48739 1.39311 8.5745 1.39287 8.66161 1.39259C8.89581 1.39197 9.13001 1.39194 9.3642 1.39205C9.56091 1.39211 9.75762 1.39188 9.95434 1.39165C10.4191 1.39113 10.8839 1.39111 11.3487 1.39139C11.8254 1.39168 12.3021 1.3911 12.7788 1.3901C13.1905 1.38927 13.6023 1.389 14.0141 1.38915C14.2589 1.38923 14.5037 1.38912 14.7486 1.38846C17.2064 1.38242 17.2064 1.38242 18.2813 1.78119C18.3537 1.80793 18.3537 1.80793 18.4276 1.83521C19.7471 2.35566 20.9602 3.29564 21.6563 4.54682C21.6761 4.58149 21.6959 4.61615 21.7164 4.65187C21.99 5.13328 22.2099 5.60681 22.3594 6.14057C22.3732 6.18691 22.3869 6.23326 22.4011 6.28101C22.5929 6.97393 22.6078 7.68645 22.6066 8.40021C22.6068 8.48733 22.6071 8.57444 22.6074 8.66155C22.608 8.89575 22.608 9.12994 22.6079 9.36414C22.6078 9.56085 22.6081 9.75756 22.6083 9.95427C22.6088 10.4191 22.6088 10.8838 22.6085 11.3486C22.6083 11.8253 22.6088 12.302 22.6098 12.7787C22.6107 13.1905 22.6109 13.6023 22.6108 14.014C22.6107 14.2589 22.6108 14.5037 22.6115 14.7485C22.6175 17.2063 22.6175 17.2063 22.2188 18.2812C22.2009 18.3295 22.1831 18.3778 22.1647 18.4275C21.6443 19.747 20.7043 20.9601 19.4531 21.6562C19.4185 21.676 19.3838 21.6959 19.3481 21.7163C18.8667 21.9899 18.3931 22.2098 17.8594 22.3593C17.813 22.3731 17.7667 22.3869 17.7189 22.4011C17.026 22.5929 16.3135 22.6077 15.5997 22.6066C15.5126 22.6068 15.4255 22.607 15.3384 22.6073C15.1042 22.6079 14.87 22.6079 14.6358 22.6078C14.4391 22.6078 14.2424 22.608 14.0457 22.6082C13.5809 22.6087 13.1161 22.6088 12.6513 22.6085C12.1746 22.6082 11.6979 22.6088 11.2212 22.6098C10.8095 22.6106 10.3977 22.6109 9.98592 22.6107C9.74109 22.6107 9.49627 22.6108 9.25144 22.6114C6.79365 22.6175 6.79365 22.6175 5.71875 22.2187C5.67047 22.2009 5.62219 22.183 5.57245 22.1647C4.25293 21.6442 3.03982 20.7042 2.34375 19.4531C2.32392 19.4184 2.30408 19.3837 2.28365 19.348C2.01 18.8666 1.79015 18.3931 1.64063 17.8593C1.62685 17.813 1.61307 17.7666 1.59888 17.7189C1.40708 17.026 1.39225 16.3134 1.39338 15.5997C1.39317 15.5126 1.39293 15.4254 1.39265 15.3383C1.39203 15.1041 1.392 14.8699 1.39212 14.6357C1.39217 14.439 1.39194 14.2423 1.39171 14.0456C1.3912 13.5808 1.39117 13.116 1.39146 12.6513C1.39174 12.1746 1.39116 11.6979 1.39016 11.2212C1.38933 10.8094 1.38906 10.3976 1.38921 9.98586C1.38929 9.74103 1.38918 9.49621 1.38852 9.25138C1.38248 6.79359 1.38248 6.79359 1.78125 5.71869C1.79908 5.67041 1.8169 5.62213 1.83527 5.57239C2.35572 4.25287 3.2957 3.03976 4.54688 2.34369C4.58155 2.32386 4.61622 2.30402 4.65193 2.28359C5.13335 2.00994 5.60687 1.79009 6.14063 1.64057C6.18697 1.62679 6.23332 1.61301 6.28107 1.59882C6.97399 1.40702 7.68652 1.39219 8.40028 1.39332ZM6.33985 3.41303C6.28989 3.43121 6.28989 3.43121 6.23893 3.44976C5.06459 3.88971 4.08925 4.81784 3.5625 5.95307C3.4971 6.10964 3.43781 6.26785 3.38086 6.42768C3.36744 6.46511 3.35402 6.50254 3.34019 6.54111C3.13912 7.1355 3.1268 7.72046 3.12775 8.34054C3.12755 8.42908 3.12731 8.51761 3.12703 8.60615C3.1264 8.84518 3.12637 9.08421 3.12649 9.32324C3.12654 9.52346 3.12631 9.72369 3.12609 9.92391C3.12557 10.3967 3.12555 10.8694 3.12583 11.3421C3.12611 11.8283 3.12554 12.3144 3.12454 12.8006C3.12371 13.2194 3.12343 13.6382 3.12358 14.057C3.12367 14.3065 3.12355 14.556 3.12289 14.8055C3.1223 15.0404 3.1224 15.2752 3.12301 15.51C3.12312 15.5956 3.12299 15.6813 3.1226 15.7669C3.11982 16.4251 3.18223 17.0372 3.41309 17.6601C3.42521 17.6934 3.43733 17.7267 3.44982 17.761C3.88977 18.9354 4.8179 19.9107 5.95313 20.4374C6.1097 20.5028 6.26791 20.5621 6.42774 20.6191C6.46517 20.6325 6.5026 20.6459 6.54117 20.6598C7.13556 20.8608 7.72053 20.8731 8.34061 20.8722C8.42914 20.8724 8.51768 20.8726 8.60621 20.8729C8.84524 20.8735 9.08427 20.8736 9.3233 20.8735C9.52352 20.8734 9.72375 20.8736 9.92397 20.8739C10.3967 20.8744 10.8695 20.8744 11.3422 20.8741C11.8284 20.8738 12.3145 20.8744 12.8007 20.8754C13.2195 20.8762 13.6383 20.8765 14.0571 20.8764C14.3066 20.8763 14.5561 20.8764 14.8056 20.8771C15.0404 20.8776 15.2752 20.8775 15.5101 20.8769C15.5957 20.8768 15.6814 20.877 15.767 20.8773C16.4252 20.8801 17.0373 20.8177 17.6602 20.5869C17.6935 20.5747 17.7268 20.5626 17.7611 20.5501C18.9354 20.1102 19.9108 19.182 20.4375 18.0468C20.5029 17.8902 20.5622 17.732 20.6191 17.5722C20.6326 17.5348 20.646 17.4973 20.6598 17.4588C20.8609 16.8644 20.8732 16.2794 20.8723 15.6593C20.8725 15.5708 20.8727 15.4823 20.873 15.3937C20.8736 15.1547 20.8736 14.9157 20.8735 14.6766C20.8735 14.4764 20.8737 14.2762 20.8739 14.076C20.8744 13.6032 20.8745 13.1305 20.8742 12.6577C20.8739 12.1716 20.8745 11.6854 20.8755 11.1993C20.8763 10.7805 20.8766 10.3617 20.8764 9.94286C20.8763 9.69335 20.8765 9.44385 20.8771 9.19434C20.8777 8.95952 20.8776 8.72471 20.877 8.48989C20.8769 8.40424 20.877 8.31859 20.8774 8.23295C20.8802 7.57477 20.8178 6.96264 20.5869 6.33979C20.5748 6.30648 20.5627 6.27318 20.5502 6.23887C20.1102 5.06452 19.1821 4.08919 18.0469 3.56244C17.8903 3.49704 17.7321 3.43775 17.5723 3.3808C17.5161 3.36067 17.5161 3.36067 17.4588 3.34013C16.8644 3.13906 16.2795 3.12674 15.6594 3.12769C15.5709 3.12749 15.4823 3.12724 15.3938 3.12697C15.1548 3.12634 14.9157 3.12631 14.6767 3.12643C14.4765 3.12648 14.2763 3.12625 14.076 3.12603C13.6033 3.12551 13.1305 3.12549 12.6578 3.12577C12.1716 3.12605 11.6855 3.12548 11.1994 3.12448C10.7805 3.12365 10.3617 3.12337 9.94293 3.12352C9.69342 3.12361 9.44391 3.12349 9.1944 3.12283C8.95958 3.12224 8.72477 3.12234 8.48995 3.12295C8.40431 3.12306 8.31866 3.12293 8.23301 3.12254C7.57484 3.11976 6.9627 3.18217 6.33985 3.41303Z" fill="black"/>
<path d="M15.9521 7.52336C16.0258 7.59317 16.0991 7.66349 16.1719 7.73429C16.2102 7.76976 16.2486 7.80523 16.2881 7.84178C17.0563 8.57188 17.6072 9.56718 17.8594 10.5937C17.8816 10.6746 17.8816 10.6746 17.9042 10.7572C18.1264 11.7018 18.0712 12.7567 17.8125 13.6874C17.8044 13.7181 17.7964 13.7487 17.7881 13.7803C17.4159 15.1728 16.4061 16.4353 15.1728 17.1679C13.8009 17.9536 12.1653 18.259 10.6119 17.871C9.08817 17.4499 7.73907 16.5187 6.93748 15.1405C6.90987 15.0945 6.90987 15.0945 6.8817 15.0474C6.48985 14.3873 6.23531 13.6544 6.1406 12.8905C6.13546 12.8496 6.13033 12.8087 6.12504 12.7666C5.96559 11.2805 6.32532 9.66238 7.25791 8.46928C8.32664 7.18753 9.6826 6.34076 11.3505 6.12113C13.0268 5.9886 14.6717 6.39249 15.9521 7.52336ZM8.80076 9.36027C8.11661 10.2224 7.74413 11.2774 7.83688 12.3861C7.96866 13.527 8.43935 14.583 9.35606 15.3141C10.3556 16.0764 11.4726 16.3992 12.729 16.2515C13.6462 16.0993 14.435 15.6474 15.0937 14.9999C15.1259 14.9683 15.1581 14.9367 15.1913 14.9042C16.0108 14.0427 16.2992 12.9256 16.2804 11.7659C16.2441 10.7976 15.7942 9.96509 15.1875 9.23429C15.1585 9.19574 15.1295 9.15719 15.0996 9.11747C14.4085 8.30192 13.3141 7.91442 12.2812 7.82804C10.9363 7.72559 9.67224 8.3708 8.80076 9.36027Z" fill="black"/>
<path d="M18.7852 5.18252C19.0609 5.44475 19.185 5.74156 19.1982 6.12002C19.1793 6.52375 19.0742 6.77422 18.7793 7.05166C18.4913 7.30355 18.1996 7.33701 17.8277 7.3298C17.5002 7.29324 17.2502 7.15743 17.042 6.90225C16.8506 6.61438 16.7393 6.30028 16.7813 5.95303C16.8704 5.59533 17.0008 5.33459 17.2969 5.10928C17.768 4.82662 18.3455 4.84584 18.7852 5.18252Z" fill="black"/>
</svg>
