<svg width="262" height="321" viewBox="0 0 262 321" fill="none" xmlns="http://www.w3.org/2000/svg">
<path d="M157.574 229.833L161.506 320.295H121.933L118.287 296.327L111.741 320.295H70.8567L73.7567 226.127L157.574 229.833Z" fill="#1D1E1E"/>
<path d="M106.767 80.199H132.119V104.524H106.767V80.199Z" fill="#FDCBA3"/>
<path opacity="0.3" d="M132.119 80.2029V90.995C132.119 90.995 116.369 94.787 106.767 88.08V80.2029H132.119Z" fill="#FDCBA3"/>
<path d="M91.5206 54.68C91.5206 74.297 104.586 90.199 120.702 90.199C136.818 90.199 149.89 74.299 149.89 54.68C149.89 22.888 136.82 19.161 120.702 19.161C104.584 19.161 91.5206 21.414 91.5206 54.68Z" fill="#FDCBA3"/>
<path d="M85.7827 52.853C86.9657 57.813 90.0596 61.324 92.7006 60.692C95.3416 60.06 96.5196 55.53 95.3336 50.577C94.1476 45.624 91.0556 42.106 88.4166 42.737C85.7776 43.368 84.5967 47.895 85.7827 52.853Z" fill="#FDCBA3"/>
<path d="M86.8686 47.634C86.8686 47.634 86.6126 45.702 89.0586 46.605C91.5046 47.508 92.2776 53.682 91.5046 54.585C90.7316 55.488 89.9606 55.229 89.4446 53.295C88.9286 51.361 90.2196 50.853 90.2196 50.853C90.2196 50.853 90.3466 46.352 86.8686 47.634Z" fill="#FBB480"/>
<path d="M156.008 52.392C154.824 57.352 151.73 60.863 149.09 60.231C146.45 59.599 145.272 55.07 146.458 50.115C147.644 45.16 150.736 41.644 153.372 42.277C156.008 42.91 157.192 47.435 156.008 52.392Z" fill="#FDCBA3"/>
<path d="M154.921 47.174C154.921 47.174 155.18 45.244 152.734 46.146C150.288 47.048 149.514 53.223 150.287 54.125C151.06 55.027 151.831 54.769 152.347 52.836C152.863 50.903 151.573 50.393 151.573 50.393C151.573 50.393 151.444 45.887 154.921 47.174Z" fill="#FBB480"/>
<path d="M139.924 42.751C139.924 42.751 132.587 39.151 127.2 38.423C127.2 38.423 132.712 35.76 139.924 42.751Z" fill="#663700"/>
<path d="M114.195 38.819C114.195 38.819 106.189 40.458 101.488 43.175C101.488 43.175 104.215 37.699 114.195 38.819Z" fill="#663700"/>
<path d="M134.877 51.995C134.784 55.063 133.621 57.526 132.266 57.486C130.911 57.446 129.888 54.922 129.973 51.859C130.058 48.796 131.23 46.326 132.588 46.365C133.946 46.404 134.964 48.931 134.877 51.995Z" fill="#663700"/>
<path d="M111.468 52.1061C111.368 55.1771 110.208 57.6301 108.842 57.5931C107.494 57.5571 106.454 55.0331 106.549 51.9641C106.644 48.8951 107.811 46.4391 109.159 46.4771C110.507 46.5151 111.548 49.0361 111.468 52.1061Z" fill="#663700"/>
<path d="M149.195 44.322C149.195 44.322 145.638 40.922 145.069 37.257C144.5 33.592 139.74 31.93 132.569 30.825L134.958 32.849C134.958 32.849 116.399 33.033 111.989 30.644L112.356 32.665C112.356 32.665 106.211 33.101 101.88 33.216C97.5487 33.331 95.1497 36.465 94.9967 37.938C94.6577 41.198 92.3627 42.406 92.1577 44.304C91.6435 43.6194 90.9232 43.1178 90.1027 42.873C90.1027 42.873 88.6487 23.661 102.431 16.491C111.473 11.791 132.017 8.22299 143.046 17.781C154.173 27.42 151.832 42.021 151.738 42.42C150.812 42.9417 149.957 43.581 149.195 44.322Z" fill="#663700"/>
<path d="M119.333 1.37701C119.332 1.6496 119.413 1.91611 119.564 2.14285C119.716 2.3696 119.931 2.54637 120.183 2.65082C120.434 2.75527 120.712 2.7827 120.979 2.72964C121.246 2.67659 121.492 2.54543 121.685 2.35275C121.878 2.16008 122.009 1.91455 122.062 1.64722C122.115 1.37988 122.088 1.10275 121.984 0.850891C121.88 0.599036 121.703 0.383761 121.476 0.2323C121.25 0.080839 120.983 7.17751e-08 120.711 0C120.345 0.000264456 119.995 0.145413 119.737 0.403564C119.479 0.661716 119.333 1.0118 119.333 1.37701Z" fill="#BF311A"/>
<path d="M151.208 30.026C151.208 12.048 143.536 1.07599 120.941 1.07599C97.4406 1.07599 90.6816 12.085 90.6816 30.064C90.6826 30.064 125.858 23.282 151.208 30.026Z" fill="#5CC5C3"/>
<path d="M120.715 22.636C149.532 23.297 154.794 32.287 154.401 33.569C154.008 34.851 148.17 35.403 141.941 31.738C135.712 28.073 120.715 28.573 120.715 28.573C120.715 28.573 105.715 28.073 99.4836 31.738C93.2526 35.403 87.4126 34.851 87.0226 33.569C86.6326 32.287 92.2836 23.482 120.715 22.636Z" fill="#5CC5C3"/>
<path d="M104.421 61.417C104.421 61.417 111.911 61.391 114.053 60.342C115.955 59.0797 118.188 58.4064 120.471 58.4064C122.754 58.4064 124.986 59.0797 126.889 60.342C129.03 61.391 136.52 61.417 136.52 61.417C137.055 69.009 146.38 71.587 146.38 71.587C137.08 91.987 120.47 90.174 120.47 90.174C120.47 90.174 104.621 91.93 94.5627 71.587C94.5617 71.587 103.89 69.009 104.421 61.417Z" fill="white"/>
<path d="M104.507 61.417C104.507 61.417 97.9176 48.293 92.1606 44.304C92.1606 44.304 97.2027 46.876 105.517 61.404L104.507 61.417Z" fill="white"/>
<path d="M136.386 61.417C136.386 61.417 143.1 48.293 148.969 44.304C148.969 44.304 143.829 46.876 135.359 61.404L136.386 61.417Z" fill="white"/>
<path d="M237.058 153.394C237.058 153.394 221.307 149.381 225.409 134.319C225.409 134.319 231.127 124.429 231.624 121.087C232.121 117.745 229.951 111.939 232.766 106.651C235.581 101.363 236.075 89.118 235.332 85.238C234.589 81.358 241.332 82.808 242.964 89.849C242.964 89.849 245.374 97.493 245.371 101.007C245.368 104.521 250.333 103.162 251.46 102.782C252.587 102.402 257.384 101.529 259.279 105.262C261.174 108.995 260.688 121.238 261.606 124.627C262.524 128.016 261.453 132.376 256.645 136.755C251.837 141.134 236.62 151.813 237.058 153.394Z" fill="#FDCBA3"/>
<path d="M249.373 128.696C249.301 130.896 252.922 131.296 250.6 131.061C248.278 130.826 246.217 129.022 245.31 128.408C244.403 127.794 241.921 126.294 241.196 124.284C240.471 122.274 241.723 120.644 240.961 119.008C240.199 117.372 238.686 115.646 239.303 113.37C239.92 111.094 240.26 109.47 239.812 107.52C239.364 105.57 239.89 104.92 241.636 103.595C243.382 102.27 245.416 104.573 244.494 95.417C244.977 97.2456 245.27 99.1192 245.37 101.008C245.352 101.308 245.397 101.609 245.502 101.89C245.607 102.172 245.769 102.429 245.979 102.644C246.188 102.86 246.441 103.029 246.719 103.142C246.998 103.254 247.297 103.307 247.598 103.298C247.585 103.303 247.573 103.307 247.56 103.311C247.56 103.311 241.123 103.611 240.922 105.563C240.721 107.515 241.275 109.633 242.801 110.072C244.327 110.511 251.91 109.781 252.886 109.565C253.862 109.349 254.008 110.424 251.855 110.708C249.702 110.992 242.132 111.26 242.217 113.991C242.302 116.722 242.765 118.13 244.882 118.215C246.999 118.3 255.652 116.615 255.356 117.841C255.06 119.067 251.956 119.117 249.341 119.459C246.726 119.801 243.13 120.184 243.65 122.769C244.17 125.354 246.781 126.384 249.063 126.361C251.345 126.338 258.091 124.708 256.648 126.274C255.205 127.84 249.447 126.489 249.373 128.696Z" fill="#AA9092"/>
<path d="M233.182 124.606C231.841 126.891 226.882 144.36 228.527 148.406C225.664 145.461 223.598 140.968 225.408 134.314C225.408 134.314 231.126 124.424 231.623 121.082C232.12 117.74 229.95 111.934 232.765 106.646C233.194 105.802 233.546 104.922 233.819 104.015H233.827C233.827 104.015 232.062 109.836 232.56 112.244C233.058 114.652 234.531 122.323 233.182 124.606Z" fill="#F8E2D1"/>
<path d="M106.126 96.35C106.126 96.35 121.518 110.205 131.479 95.25C131.479 95.25 162.125 100.393 165.304 102.786C175.895 110.77 194.527 169.455 194.527 169.455L223.661 139.544C223.661 139.544 236.761 143.007 240.748 151.973L204.999 199.343C204.999 199.343 191.457 211.843 180.399 204.669C169.341 197.495 158.963 153.962 158.963 153.962L160.71 238.422C160.71 238.422 106.719 246.861 71.4046 235.652L72.9366 142.938L29.9137 172.944C29.9137 172.944 25.7636 176.013 26.2926 180.57C27.0086 186.715 41.7767 235.701 41.7767 235.701C41.7767 235.701 32.4957 244.236 23.0086 243.787C23.0086 243.787 -1.10734 185.052 0.0396552 172.048C1.18666 159.044 74.6587 102.271 74.6587 102.271C74.6587 102.271 81.7727 97.706 106.126 96.35Z" fill="#2E2C79"/>
<g opacity="0.3">
<path d="M174.459 116.827C174.726 117.378 174.994 117.945 175.259 118.513C174.95 117.972 174.682 117.408 174.459 116.827Z" fill="#2E2C79"/>
<path d="M194.527 169.455L203.715 160.015C203.694 160.055 196.521 170.401 193.643 174.615C191 178.488 183.432 138.395 177.002 122.306C185.868 142.196 194.527 169.455 194.527 169.455Z" fill="#2E2C79"/>
</g>
<path d="M156.413 127.664C156.413 127.664 160.694 142.221 162.396 152.082C164.096 161.92 169.337 186.842 169.356 186.946C163.304 172.146 158.964 153.96 158.964 153.96L160.255 216.26C158.588 193.727 155.155 161.397 155.013 154.903C154.8 145.04 156.413 127.664 156.413 127.664Z" fill="#2E2C79"/>
<path d="M160.707 238.298V238.423L160.639 238.431C160.659 238.395 160.689 238.342 160.707 238.298Z" fill="#E8505B"/>
<path d="M25.4257 197.622C21.1557 183.54 15.0257 175.56 23.3407 169.922C31.6557 164.284 72.9357 142.937 72.9357 142.937L29.9117 172.943C29.9117 172.943 25.7617 176.012 26.2907 180.569C27.0067 186.714 41.7747 235.7 41.7747 235.7C41.7747 235.7 29.6967 211.709 25.4257 197.622Z" fill="#2E2C79"/>
<path d="M66.4917 176.438C66.6729 176.425 66.8497 176.377 67.0121 176.295C67.1745 176.214 67.3192 176.101 67.438 175.964C67.5568 175.826 67.6473 175.667 67.7044 175.495C67.7615 175.322 67.784 175.14 67.7707 174.959L65.9877 150.248C65.3927 141.963 71.0487 134.778 78.5947 134.234C86.1407 133.69 92.7667 139.99 93.3627 148.274L95.1437 172.986C95.1702 173.352 95.3412 173.693 95.619 173.934C95.8969 174.174 96.2588 174.294 96.6252 174.268C96.9916 174.241 97.3324 174.07 97.5728 173.792C97.8131 173.514 97.9332 173.152 97.9067 172.786L96.1257 148.08C95.4187 138.272 87.4637 130.825 78.3947 131.48C69.3257 132.135 62.5237 140.646 63.2307 150.455L65.0107 175.167C65.0396 175.532 65.2115 175.87 65.489 176.108C65.7665 176.346 66.127 176.465 66.4917 176.438Z" fill="#C7A075"/>
<path d="M109.232 159.587L103.564 165.445L97.1097 160.459L91.4348 166.321L84.9807 161.334L79.3067 167.195L72.8477 162.209L67.1707 168.071L60.7147 163.085L55.0407 168.945L48.5778 163.959L42.8967 169.821L36.4277 164.835L42.1417 244.118L114.942 238.873L114.327 230.355L109.688 165.98L109.232 159.587Z" fill="#997255"/>
<path d="M114.949 238.87L127.237 251.415L121.021 165.161L119.294 167.001L117.3 161.358L114.2 164.413L109.235 159.587L114.949 238.87Z" fill="#C7A075"/>
<path d="M77.0457 152.199L76.5991 148.348L84.2796 147.457L84.7262 151.308L77.0457 152.199Z" fill="#BCBEC0"/>
<path d="M75.2117 211.046L68.4881 153.192L93.2792 150.311L100.003 208.165L75.2117 211.046Z" fill="#E6E7E8"/>
<path d="M75.0156 149.855L74.1172 142.098L85.2647 140.807L86.163 148.564L75.0156 149.855Z" fill="#42C4DD"/>
<path opacity="0.3" d="M75.0167 149.854L74.1185 142.098L77.8601 141.664L78.7583 149.421L75.0167 149.854Z" fill="#42C4DD"/>
<path d="M94.1367 157.677C94.1367 157.677 83.9846 170.419 69.3446 160.552L75.2076 211.052L99.9987 208.171L94.1367 157.677Z" fill="#42C4DD"/>
<path opacity="0.3" d="M90.5537 209.265C90.5537 209.265 80.0657 201.543 78.4657 185.879C76.8657 170.215 87.3587 151.004 87.3587 151.004L68.4927 153.191L75.2077 211.046L90.5537 209.265Z" fill="#A4D7F4"/>
<path d="M71.1697 180.164C71.1697 180.164 69.9627 184.442 63.9177 184.899C63.9177 184.899 59.0657 174.876 52.0707 174.973L51.6577 173.71C53.0453 173.379 54.4794 173.288 55.8977 173.441C54.7761 172.768 53.5924 172.205 52.3627 171.76L53.7937 169.106C53.7937 169.106 58.2167 172.175 59.4137 173.876C57.8764 171.911 56.2371 170.028 54.5027 168.235L56.5157 165.692C56.5157 165.692 61.0737 172.845 62.3157 174.424C62.3157 174.424 57.7897 166.472 57.6837 165.459L58.4447 165.097L60.2977 168.712C60.2977 168.712 58.9167 164.702 59.5147 163.902L60.4057 163.702C60.4057 163.702 61.2917 169.525 62.0757 169.902C62.8597 170.279 62.7857 168.519 62.7857 168.519L61.6427 164.652L62.4017 163.716L63.5267 165.255L64.5607 163.149L66.8687 165.133C66.8687 165.133 61.2377 170.97 71.1697 180.164Z" fill="#8DD450"/>
<path opacity="0.4" d="M52.0707 174.972L51.9437 174.586L54.4187 174.818C54.4187 174.818 59.7317 175.909 64.1407 182.643C64.1407 182.643 68.7137 183.548 71.1697 180.163C71.1697 180.163 69.9627 184.441 63.9177 184.898C63.9177 184.898 59.0657 174.875 52.0707 174.972Z" fill="#8DD450"/>
<path opacity="0.4" d="M68.1477 176.894C64.3477 172.617 63.6267 166.394 63.5277 165.239L64.5617 163.133L66.8697 165.117C66.8697 165.117 62.5497 169.6 68.1487 176.89L68.1477 176.894Z" fill="#8DD450"/>
<path opacity="0.4" d="M57.1577 168.335L64.5757 178.183L57.5967 166.901L57.1577 168.335Z" fill="#8DD450"/>
<path opacity="0.4" d="M55.7947 171.052C55.7947 171.052 60.8407 174.469 62.4947 176.933C62.4947 176.933 57.4027 171.844 55.1947 171.763L55.7947 171.052Z" fill="#8DD450"/>
<path d="M58.7377 166.544C58.7377 166.544 57.1617 172.293 54.2327 173.544C54.2327 173.544 55.4447 177.106 52.3647 178.974C49.3167 180.816 48.2317 178.683 48.2317 178.683C48.2317 178.683 43.8657 177.928 42.5087 175.992C40.3627 172.932 41.1517 170.704 41.1517 170.704C41.1517 170.704 38.9977 167.349 42.4997 163.365C42.4997 163.365 39.9527 158.089 46.8487 156.771C46.8487 156.771 48.5487 153.496 53.9167 153.855C53.9167 153.855 57.9067 148.431 62.0317 151.082C62.0317 151.082 68.0597 149.461 68.8317 157.164C69.881 157.605 70.7296 158.419 71.2133 159.45C71.697 160.48 71.7816 161.653 71.4507 162.742C70.5507 166.774 68.4787 165.521 66.7317 164.366C66.7317 164.366 66.1477 166.396 63.2657 165.366C62.7043 165.977 61.9785 166.413 61.1753 166.622C60.3722 166.831 59.5258 166.804 58.7377 166.544Z" fill="#008836"/>
<path opacity="0.5" d="M48.2317 178.684C48.2317 178.684 44.6137 178.054 42.9457 176.484C45.8657 178.641 48.2367 177.5 48.2367 177.5C48.4479 177.806 48.7203 178.065 49.0367 178.26C49.3531 178.456 49.7065 178.583 50.0748 178.635C50.443 178.687 50.818 178.662 51.176 178.561C51.534 178.461 51.8672 178.287 52.1547 178.051C54.6167 176.379 52.9147 173.64 52.9147 173.64C59.4997 170.429 57.5607 165.653 57.5607 165.653C62.1817 166.81 62.2227 164.195 62.2227 164.195C65.1227 165.317 66.1117 163.495 66.1117 163.495C69.7727 165.569 71.4547 162.746 71.4547 162.746C70.5547 166.778 68.4827 165.525 66.7357 164.37C66.7357 164.37 66.1517 166.4 63.2697 165.37C62.7082 165.982 61.9819 166.42 61.1779 166.629C60.3739 166.839 59.5266 166.812 58.7377 166.551C58.7377 166.551 57.1617 172.3 54.2327 173.551C54.2327 173.551 55.4447 177.113 52.3647 178.981C49.3177 180.817 48.2317 178.684 48.2317 178.684Z" fill="#008836"/>
<path d="M63.7796 153.459C63.7796 153.459 59.9236 148.91 54.5316 154.559C54.5316 154.559 50.8606 153.686 47.8586 157.538C46.875 157.177 45.7957 157.172 44.809 157.525C43.8222 157.877 42.9904 158.565 42.4586 159.468C42.4586 159.468 45.0907 156.944 48.0587 158.768C48.0587 158.768 50.7936 154.502 54.9756 155.843C55.3807 155.092 55.9345 154.431 56.6032 153.901C57.2719 153.371 58.0416 152.982 58.8654 152.759C59.6891 152.536 60.5496 152.483 61.3945 152.604C62.2393 152.724 63.0509 153.015 63.7796 153.459Z" fill="#00B541"/>
<path d="M52.1116 161.422C52.1116 161.422 46.3067 162.682 46.5477 170.631C46.5477 170.631 42.9116 163.333 52.1116 161.422Z" fill="#00B541"/>
<path d="M59.5546 162.57C57.9381 162.87 56.4153 163.548 55.1099 164.547C53.8046 165.547 52.7536 166.841 52.0426 168.323C52.0426 168.323 52.0176 163.317 59.5546 162.57Z" fill="#00B541"/>
<path opacity="0.5" d="M46.1907 174.647C47.7201 174.347 49.1606 173.7 50.4017 172.758C51.6427 171.815 52.6515 170.6 53.3506 169.207C53.3506 169.207 53.3337 173.826 46.1907 174.647Z" fill="#008836"/>
<path opacity="0.5" d="M70.2786 160.655C69.8911 159.494 69.1216 158.498 68.0955 157.83C67.0695 157.162 65.8475 156.861 64.6287 156.977C64.6287 156.977 68.5876 154.448 70.2786 160.655Z" fill="#008836"/>
<path opacity="0.5" d="M66.0367 160.016C66.0367 160.016 62.4647 155.361 55.9777 158.522C55.9807 158.523 60.3367 152.465 66.0367 160.016Z" fill="#008836"/>
<path opacity="0.5" d="M42.3126 171.647C42.0253 172.398 41.9141 173.205 41.9872 174.006C42.0604 174.807 42.316 175.581 42.7346 176.268C42.6537 176.181 42.5783 176.088 42.5086 175.992C40.3626 172.932 41.1516 170.704 41.1516 170.704C41.1516 170.704 38.9976 167.349 42.4996 163.365C42.4996 163.365 39.7596 168.334 42.3126 171.647Z" fill="#008836"/>
<path d="M69.2927 198.693L64.3047 166.162C64.2287 165.299 64.3643 164.431 64.6997 163.632C65.2627 162.196 66.9637 159.354 66.7097 157.708C66.4557 156.062 66.0877 153.646 66.0877 153.646L70.4747 152.971L74.8617 152.298C74.8617 152.298 75.2337 154.714 75.4837 156.361C75.7337 158.008 78.2087 160.211 79.1777 161.41C79.7355 162.072 80.1255 162.858 80.3147 163.703L85.3027 196.239C85.351 196.445 85.3549 196.659 85.3142 196.866C85.2736 197.074 85.1893 197.27 85.0669 197.442C84.9446 197.615 84.7869 197.759 84.6045 197.866C84.422 197.973 84.2189 198.04 84.0087 198.062L77.5437 199.062L71.0757 200.054C70.8677 200.095 70.6534 200.091 70.4471 200.042C70.2407 199.994 70.0469 199.903 69.8785 199.774C69.71 199.645 69.5707 199.483 69.4697 199.296C69.3687 199.11 69.3084 198.904 69.2927 198.693Z" fill="#FDBB30"/>
<path d="M71.5237 193.537L67.4555 167.028L77.5601 165.478L81.6284 191.986L71.5237 193.537Z" fill="white"/>
<path opacity="0.3" d="M71.0807 200.048C70.8729 200.089 70.6588 200.085 70.4526 200.037C70.2464 199.989 70.0526 199.898 69.8841 199.77C69.7156 199.642 69.5761 199.479 69.4749 199.293C69.3736 199.107 69.3129 198.902 69.2967 198.691L64.3086 166.16C64.2326 165.297 64.3682 164.429 64.7036 163.63C65.2666 162.194 66.9677 159.352 66.7137 157.706C66.4597 156.06 66.0916 153.644 66.0916 153.644L70.4787 152.969L74.8656 152.296C74.8656 152.296 75.0086 153.237 75.1806 154.343C68.5916 158.93 68.8807 163.685 71.2807 179.305C73.5877 194.36 83.1806 198.193 83.1806 198.193L77.5446 199.059L71.0807 200.048Z" fill="#FDBB30"/>
<path d="M75.8406 154.244L75.3257 150.875C75.2816 150.6 75.1309 150.353 74.9064 150.188C74.6818 150.024 74.4013 149.954 74.1257 149.994L66.1017 151.231C65.9656 151.252 65.8349 151.299 65.7171 151.37C65.5993 151.441 65.4967 151.534 65.4151 151.645C65.3335 151.756 65.2747 151.882 65.2418 152.016C65.209 152.149 65.2028 152.288 65.2236 152.424L65.7407 155.79L75.8406 154.244Z" fill="#00A94F"/>
<path opacity="0.5" d="M65.7377 155.79L65.5696 154.692L75.6729 153.145L75.841 154.243L65.7377 155.79Z" fill="#00853F"/>
<path d="M97.9297 195.166C97.9297 195.166 99.5497 203.002 104.558 206.708C109.566 210.414 114.484 206.714 115.078 195.222C115.672 183.73 117.039 171.022 117.258 162.161C117.477 153.3 117.218 135.223 110.83 135.382C104.442 135.541 99.2987 140.428 97.0137 155.804C94.7287 171.18 94.7487 180.934 97.9297 195.166Z" fill="#FDBB30"/>
<path d="M104.222 137.897C104.467 146.738 105.745 155.52 108.029 164.064C103.833 157.704 101.286 150.399 100.618 142.809C101.482 140.949 102.707 139.28 104.222 137.897Z" fill="#FFD478"/>
<path d="M95.5027 170.381C95.7558 165.498 96.2594 160.632 97.0117 155.801C97.0117 155.801 101.972 176.56 107.756 185.545C102.116 181.974 97.8099 176.645 95.5027 170.381Z" fill="#FFD478"/>
<path d="M95.9877 183.983C96.2167 184.553 99.9727 193.728 106.311 197.098C103.173 197.005 100.148 195.912 97.6757 193.978C96.9177 190.431 96.3587 187.152 95.9877 183.983Z" fill="#FFD478"/>
<path opacity="0.3" d="M104.557 206.709C101.757 204.637 100.019 201.272 99.0268 198.716C98.0348 196.16 104.241 204.257 107.238 201.586C110.235 198.915 112.131 183.702 113.043 175.186C113.955 166.67 115.71 139.16 111.462 135.433C117.233 136.46 117.462 153.601 117.253 162.16C117.035 171.023 115.67 183.732 115.073 195.221C114.476 206.71 109.56 210.412 104.557 206.709Z" fill="#BB8D0B"/>
<path opacity="0.5" d="M100.089 201.092C100.089 201.092 107.48 207.554 111.318 200.67C115.156 193.786 116.418 166.77 116.173 158.325C115.928 149.88 115.635 142.51 114.884 138.97V138.948C117.327 144.634 117.419 155.784 117.259 162.162C117.041 171.025 115.676 183.734 115.079 195.223C114.482 206.712 109.56 210.413 104.557 206.713C102.658 205.205 101.13 203.282 100.089 201.092Z" fill="#BB8D0B"/>
<path d="M104.222 137.897C104.467 146.738 105.745 155.52 108.029 164.064C103.447 151.259 103.029 142.088 103.029 139.096C103.397 138.668 103.796 138.268 104.222 137.897Z" fill="url(#paint0_linear_2031_14)"/>
<path d="M96.3057 161.052C96.5057 159.365 96.7417 157.63 97.0117 155.804C97.0117 155.804 101.972 176.563 107.756 185.548C100.914 177.039 96.3257 161.119 96.3057 161.052Z" fill="url(#paint1_linear_2031_14)"/>
<path d="M96.6517 188.569C96.3897 187.003 96.1647 185.48 95.9927 183.983C96.2217 184.553 99.9777 193.728 106.316 197.098C102.346 195.236 98.9928 192.276 96.6517 188.569Z" fill="url(#paint2_linear_2031_14)"/>
<path d="M94.8566 151.889C94.5696 152.042 93.3796 157.273 92.3286 158.425C92.3286 158.425 94.6736 159.211 95.6946 158.609C95.6946 158.609 95.7726 153.709 96.2786 152.354C96.2387 152.212 96.1642 152.081 96.0619 151.974C95.9595 151.868 95.8324 151.788 95.6918 151.742C95.5512 151.696 95.4015 151.685 95.2558 151.711C95.1101 151.737 94.973 151.798 94.8566 151.889Z" fill="#438E21"/>
<path opacity="0.4" d="M94.8568 151.889C94.7819 151.979 94.7281 152.084 94.6997 152.197C94.8839 152.211 95.0596 152.28 95.2039 152.396C95.3482 152.511 95.4544 152.667 95.5087 152.844C95.1237 154.814 94.9318 156.816 94.9357 158.823C95.2011 158.807 95.4599 158.735 95.6947 158.61C95.6947 158.61 95.7727 153.71 96.2787 152.355C96.2389 152.213 96.1645 152.082 96.0622 151.975C95.9599 151.868 95.8329 151.788 95.6923 151.742C95.5516 151.696 95.4018 151.685 95.2561 151.711C95.1104 151.737 94.9732 151.798 94.8568 151.889Z" fill="#438E21"/>
<path d="M93.2297 159.606C93.2297 159.606 88.5946 159.826 87.8846 162.978C87.1746 166.13 84.1557 176.748 77.7297 181.372C71.3037 185.996 65.7586 190.809 70.6576 197.526C75.5566 204.243 86.2317 199.501 90.5367 192.826C94.8417 186.151 98.3577 168.962 97.3917 163.961C96.4257 158.96 95.9887 158.971 93.2297 159.606Z" fill="#A15EC6"/>
<path opacity="0.4" d="M93.2297 159.605C93.2297 159.605 88.5947 159.825 87.8847 162.977C87.1747 166.129 84.1557 176.747 77.7297 181.371C71.4297 185.91 65.9837 190.622 70.3857 197.139C70.2687 196.779 68.3977 190.997 72.9247 187.239C77.5977 183.351 85.8247 177.185 86.4247 174.033C86.5935 172.87 87.1788 171.808 88.0717 171.044C88.9647 170.28 90.1046 169.866 91.2797 169.879C92.8487 170.014 95.9247 173.809 94.5487 178.871C93.3917 183.152 89.3657 193.813 82.5837 198.679C83.8077 198.202 85.1487 197.685 86.5017 197.166C88.0762 195.954 89.4393 194.491 90.5357 192.834C94.8357 186.159 98.3567 168.97 97.3907 163.969C96.4247 158.968 95.9887 158.97 93.2297 159.605Z" fill="#A15EC6"/>
<path d="M72.7707 196.938C72.7707 196.938 70.8507 194.338 72.5867 192.064C74.3227 189.79 75.4177 189.355 76.6547 187.678C77.8917 186.001 82.0777 181.227 81.8377 183.513C81.5977 185.799 78.7167 190.531 77.8737 192.321C77.0307 194.111 73.6797 199.636 72.7707 196.938Z" fill="#B67DDB"/>
<path opacity="0.4" d="M73.9327 200.154C73.9327 200.154 82.7447 197.277 89.1867 183.298C89.1867 183.298 82.1957 203.623 73.9327 200.154Z" fill="#A15EC6"/>
<path d="M94.2446 158.193C94.2446 158.193 90.5756 158.299 88.8136 159.924C87.0516 161.549 85.4356 165.264 83.2456 165.968C83.2456 165.968 87.1536 166.484 89.0686 163.273C89.0686 163.273 90.4477 166.083 90.0067 168.314C90.0067 168.314 94.1006 166.237 94.7396 164.228C95.3786 162.219 97.0896 163.198 97.4866 167.866C97.4866 167.866 99.7746 158.732 94.2446 158.193Z" fill="#56AF31"/>
<path opacity="0.4" d="M89.0696 163.274C89.0696 163.274 90.4486 166.084 90.0076 168.315C90.0076 168.315 94.1016 166.238 94.7396 164.229C95.3776 162.22 97.0906 163.199 97.4866 167.867C97.4866 167.867 98.7236 162.908 97.1686 160.082C97.3886 161.2 97.2936 162.494 96.6056 162.112C96.3633 161.973 96.0912 161.895 95.8123 161.884C95.5333 161.872 95.2557 161.928 95.0029 162.046C94.75 162.165 94.5293 162.342 94.3594 162.564C94.1895 162.785 94.0754 163.044 94.0266 163.319C93.8436 164.87 90.9126 166.819 90.9126 166.819C91.2316 165.64 89.3896 162.143 89.3896 162.143C88.0566 165.434 83.2456 165.968 83.2456 165.968C83.2456 165.968 87.1536 166.485 89.0696 163.274Z" fill="#56AF31"/>
<path d="M86.9307 163.697C86.9307 163.697 89.3417 159.41 92.6787 159.097C92.6787 159.099 89.5437 157.646 86.9307 163.697Z" fill="#7BBB58"/>
<path d="M58.0577 165.043C58.6588 165.021 59.2594 165.1 59.8346 165.276C61.8281 166.003 63.4843 167.438 64.4876 169.308C65.9296 172.159 66.5656 176.498 63.8676 179.794C61.1696 183.09 55.9146 184.134 51.7256 182.346C47.5366 180.558 43.4487 175.87 45.3257 171.067C47.2027 166.264 49.9047 162.164 58.0577 165.043Z" fill="#E4003C"/>
<path d="M56.6766 164.606L59.7676 168.357L61.5796 169.278C61.5796 169.278 59.9706 169.278 58.1046 169.359C56.7258 169.501 55.3805 169.872 54.1246 170.459L55.0786 167.981C54.5403 167.666 53.9163 167.529 53.2956 167.59C52.1516 167.652 50.4426 166.265 48.8386 167.83C47.3671 169.312 46.4268 171.239 46.1638 173.31C45.9008 175.382 46.33 177.483 47.3846 179.285C45.3186 177.051 44.1466 174.085 45.3236 171.071C47.0886 166.542 49.5906 162.652 56.6766 164.606Z" fill="#AA0A2F"/>
<path d="M63.3447 175.885C63.9101 174.465 64.1526 172.937 64.0547 171.411C63.9568 169.886 63.5209 168.401 62.7786 167.065C63.4816 167.701 64.0607 168.461 64.4866 169.308C65.9286 172.159 66.5646 176.498 63.8666 179.794C61.1686 183.09 55.9137 184.134 51.7247 182.346C51.0709 182.068 50.4425 181.733 49.8467 181.346C56.4927 183.053 61.4777 181.062 63.3447 175.885Z" fill="#AA0A2F"/>
<path d="M50.7736 167.01C49.76 167.437 48.8478 168.072 48.0967 168.875C47.3456 169.678 46.7724 170.631 46.4146 171.671C45.9523 172.687 45.841 173.828 46.098 174.914C46.3551 176 46.9661 176.97 47.8347 177.671C48.4127 178.151 44.2806 172.67 50.7736 167.01Z" fill="#F191A1"/>
<path d="M56.1346 172.053C56.1346 172.053 56.2236 170.258 57.7756 170.198C58.8417 170.187 59.9073 170.246 60.9656 170.375C61.8656 170.421 62.2306 171.175 61.9726 172.092C61.8099 172.748 61.4181 173.324 60.8679 173.716C60.3177 174.108 59.6455 174.29 58.9726 174.23C57.1516 174.076 56.2046 173.963 56.1346 172.053Z" fill="#EB5D73"/>
<path d="M58.2827 168.769C58.2827 168.769 64.3396 169.096 66.8626 171.969C66.0117 170.889 64.936 170.006 63.71 169.383C62.4839 168.76 61.137 168.411 59.7626 168.361C59.7626 168.361 62.7117 167.069 63.9547 167.146C62.3266 166.917 60.6686 167.032 59.0876 167.483C59.0876 167.483 62.0827 164.25 63.6287 164.394C63.2051 164.229 62.751 164.156 62.2969 164.181C61.8429 164.206 61.3995 164.328 60.9966 164.539C59.8306 165.279 57.6846 166.839 57.6586 166.904C57.338 166.904 57.0183 166.87 56.7047 166.804C56.7047 166.804 53.1506 161.245 50.0516 160.572C52.2635 162.052 53.983 164.159 54.9896 166.622C54.9896 166.622 49.7256 163.881 46.6826 164.832C46.6826 164.832 52.0607 165.532 55.6317 167.788C55.6317 167.788 53.8056 169.34 53.5986 170.917C54.6078 169.975 55.7041 169.13 56.8726 168.394C57.5326 168.216 57.5047 168.745 58.2827 168.769Z" fill="#74AF27"/>
<path d="M58.3707 164.501C58.1761 165.159 58.0492 165.835 57.9917 166.518C58.0077 167.019 57.989 167.52 57.9357 168.018C57.9357 168.018 57.2357 167.418 56.7897 167.447C56.5677 167.465 56.3473 167.397 56.1747 167.256C56.4786 166.341 56.6591 165.39 56.7117 164.427C57.2592 164.281 57.8384 164.307 58.3707 164.501Z" fill="#29A038"/>
<g opacity="0.5">
<path d="M66.8417 171.941L66.8617 171.965C66.8577 171.956 66.8437 171.947 66.8417 171.941Z" fill="#74AF27"/>
<path d="M58.1097 168.339C58.2757 168.657 58.7837 168.564 58.7837 168.564C61.3129 168.589 63.7644 169.441 65.7637 170.99C62.9157 169.014 58.2867 168.764 58.2867 168.764C57.5087 168.74 57.5367 168.212 56.8807 168.387C55.7122 169.123 54.6159 169.968 53.6067 170.91C54.3737 169.822 55.3527 168.899 56.4847 168.198C56.9987 167.952 57.9347 168.022 58.1097 168.339Z" fill="#74AF27"/>
</g>
<path opacity="0.4" d="M50.0557 160.571C55.4097 163.448 55.6387 167.722 55.6387 167.722C55.6387 167.722 55.5867 167.715 55.4947 167.7C52.7517 166.231 49.7699 165.259 46.6877 164.831C49.7297 163.881 54.9947 166.621 54.9947 166.621C53.9878 164.157 52.268 162.051 50.0557 160.571Z" fill="#74AF27"/>
<path d="M62.4587 164.439C60.9902 165.273 59.6992 166.387 58.6587 167.717C59.5143 166.223 60.8552 165.066 62.4587 164.439Z" fill="#C0D886"/>
<path opacity="0.4" d="M56.7886 167.451C56.5666 167.469 56.3462 167.401 56.1736 167.26C56.4769 166.345 56.6568 165.393 56.7086 164.43C57.0093 164.352 57.3203 164.32 57.6306 164.337C57.218 164.693 56.9592 165.195 56.9086 165.737C56.7086 166.801 56.4206 166.461 56.8746 166.829C57.2651 167.191 57.6197 167.59 57.9336 168.02C57.9336 168.02 57.2396 167.418 56.7886 167.451Z" fill="#74AF27"/>
<path d="M56.8157 164.194C57.0542 164.098 57.3076 164.043 57.5647 164.032C57.8647 164.048 58.3647 164.213 58.3757 164.498C58.3867 164.783 57.8187 165.074 57.5757 165.126C57.3327 165.178 56.3237 165.051 56.8157 164.194Z" fill="#009B3E"/>
<path opacity="0.4" d="M56.8107 164.197C56.8895 164.166 56.9699 164.139 57.0517 164.117C56.8607 164.757 57.6887 164.86 57.9117 164.817C58.0624 164.775 58.2064 164.713 58.3397 164.631C58.1474 164.882 57.8738 165.059 57.5657 165.131C57.3177 165.184 56.3237 165.05 56.8107 164.197Z" fill="#009B3E"/>
<path d="M69.0416 175.778C69.2229 175.765 69.3998 175.717 69.5624 175.636C69.7249 175.554 69.8698 175.442 69.9889 175.305C70.1079 175.167 70.1988 175.008 70.2562 174.836C70.3137 174.663 70.3365 174.481 70.3236 174.3L68.5436 149.587C67.9436 141.302 73.5986 134.118 81.1436 133.574C88.6886 133.03 95.3176 139.329 95.9136 147.613L97.6926 172.327C97.7058 172.508 97.7545 172.685 97.836 172.848C97.9175 173.01 98.0302 173.155 98.1677 173.274C98.3051 173.393 98.4647 173.483 98.6372 173.541C98.8097 173.598 98.9919 173.621 99.1732 173.608C99.3544 173.594 99.5313 173.546 99.6938 173.464C99.8563 173.383 100.001 173.27 100.12 173.132C100.239 172.995 100.33 172.835 100.387 172.663C100.444 172.49 100.467 172.308 100.454 172.127L98.6726 147.415C97.9666 137.608 90.0126 130.157 80.9426 130.815C71.8726 131.473 65.0717 139.983 65.7777 149.79L67.5587 174.502C67.5722 174.683 67.6213 174.86 67.7031 175.022C67.785 175.184 67.898 175.329 68.0358 175.447C68.1735 175.566 68.3332 175.656 68.5058 175.713C68.6784 175.769 68.8605 175.792 69.0416 175.778Z" fill="#ECCCA7"/>
<path d="M56.7147 256.499L50.4987 170.243L45.9477 173.062L43.4607 167.724L39.4737 170.64L36.4297 164.832L42.3887 247.512L56.7147 256.499Z" fill="#C7A075"/>
<path opacity="0.2" d="M42.3877 247.513L48.6117 239.188L56.7117 256.499L42.3877 247.513Z" fill="#C7A075"/>
<path opacity="0.4" d="M48.6117 239.188L43.4597 167.724L39.4727 170.64L36.4287 164.832L42.3877 247.512L48.6117 239.188Z" fill="#C7A075"/>
<path d="M121.019 165.162L115.54 171.013L109.273 166.013L103.796 171.861L97.5327 166.861L92.0447 172.711L85.7776 167.711L80.2927 173.56L74.0247 168.56L68.5406 174.411L62.2676 169.411L56.7737 175.263L50.4977 170.263L56.7137 256.519L127.235 251.435L121.019 165.162Z" fill="#ECCCA7"/>
<path opacity="0.3" d="M68.7856 253.091C72.1776 255.191 82.0276 252.123 85.2576 251.961C86.1825 251.905 87.1077 252.068 87.9573 252.438C88.8069 252.808 89.5568 253.374 90.1456 254.089L56.7146 256.5L42.3886 247.513L41.3126 232.575C43.0656 240.959 58.0956 237.346 59.5826 237.429C62.4896 237.59 67.6566 241.303 69.2716 242.435C70.8866 243.567 76.8616 245.335 76.2156 248.735C75.7926 250.941 65.3946 250.991 68.7856 253.091Z" fill="#ECCCA7"/>
<path d="M40.2136 237C40.2136 237 45.7376 238.391 48.6536 239.005C51.5696 239.619 61.9046 238.56 64.2216 240.532C66.5386 242.504 73.5216 245.884 74.8716 246.481C76.2216 247.078 76.3966 249.613 70.5516 249.749C64.7066 249.885 57.3077 250.001 58.2667 251.183C59.2257 252.365 61.5206 256.861 66.5886 256.332C71.6566 255.803 83.9577 253.391 85.8997 253.415C87.8417 253.439 88.2087 256.168 83.8997 258.265C79.5907 260.362 60.6256 267.765 56.7216 268.505C52.8176 269.245 45.6216 267.805 40.6146 262.492C35.6076 257.179 31.7826 249.936 30.4426 248.171C29.1026 246.406 26.9727 243.487 26.9727 243.487C31.8085 242.322 36.3289 240.107 40.2136 237Z" fill="#FDCBA3"/>
<path d="M27.3945 243.64C32.089 242.454 36.4789 240.284 40.2727 237.273L40.396 237.303C40.5528 237.343 40.7802 237.4 41.062 237.47C41.6258 237.61 42.4078 237.803 43.281 238.015C45.0266 238.44 47.1399 238.942 48.6021 239.25C49.3593 239.409 50.5773 239.457 51.9873 239.475C52.599 239.483 53.2458 239.485 53.9131 239.487C54.8033 239.49 55.7299 239.492 56.6577 239.509C58.2744 239.538 59.8623 239.61 61.187 239.795C61.8493 239.888 62.4397 240.008 62.9318 240.164C63.4267 240.32 63.806 240.507 64.0596 240.722C65.2423 241.729 67.5919 243.079 69.7923 244.243C72.0003 245.411 74.089 246.408 74.7705 246.71C75.0523 246.834 75.2631 247.056 75.3525 247.308C75.4393 247.552 75.4194 247.844 75.2063 248.143C74.9881 248.448 74.5571 248.772 73.802 249.028C73.0489 249.284 71.9908 249.465 70.5458 249.499C70.2983 249.505 70.0479 249.511 69.7953 249.516C67.0701 249.579 64.0978 249.647 61.838 249.825C60.6071 249.921 59.5685 250.052 58.8932 250.238C58.5651 250.329 58.2775 250.444 58.1067 250.607C58.0152 250.694 57.9393 250.813 57.9326 250.962C57.9261 251.11 57.989 251.238 58.0725 251.341C58.1917 251.487 58.3367 251.696 58.5107 251.946C59.6584 253.596 62.0654 257.055 66.6146 256.581C69.1079 256.32 73.3383 255.607 77.222 254.952L77.4579 254.913C79.4342 254.58 81.3103 254.264 82.8136 254.033C84.3276 253.801 85.4366 253.659 85.8966 253.665C86.3235 253.67 86.6348 253.823 86.8193 254.047C87.0029 254.27 87.0883 254.597 86.9994 255.01C86.8191 255.847 85.917 257.005 83.7903 258.04C81.6471 259.083 75.8385 261.455 70.0695 263.66C67.187 264.763 64.3183 265.822 61.9273 266.652C59.5294 267.484 57.6298 268.078 56.6751 268.259C52.8533 268.984 45.7439 267.57 40.7966 262.321C38.3083 259.68 36.1099 256.556 34.3632 253.865C33.5786 252.656 32.8865 251.537 32.3001 250.589C32.234 250.482 32.1692 250.377 32.1058 250.275C31.4834 249.269 30.9857 248.473 30.6417 248.02C29.9729 247.139 29.1063 245.969 28.4064 245.019C28.0566 244.544 27.7486 244.124 27.5281 243.823L27.3945 243.64Z" stroke="#ACACAC" stroke-opacity="0.5" stroke-width="0.5"/>
<path d="M26.9786 243.486C30.0202 242.763 32.9438 241.611 35.6617 240.066C34.2397 241.632 31.8307 244.698 32.2897 247.116C32.9377 250.509 40.6197 262.491 40.6197 262.491C35.6067 257.18 31.7877 249.935 30.4467 248.17C29.1057 246.405 26.9786 243.486 26.9786 243.486Z" fill="#E6E7E8"/>
<defs>
<linearGradient id="paint0_linear_2031_14" x1="-296.086" y1="-1045.64" x2="-322.351" y2="-1045.64" gradientUnits="userSpaceOnUse">
<stop stop-color="#FBD04E"/>
<stop offset="0.203" stop-color="#EFC148"/>
<stop offset="0.589" stop-color="#CF9C3B"/>
<stop offset="1" stop-color="#A96E2A"/>
</linearGradient>
<linearGradient id="paint1_linear_2031_14" x1="-313.74" y1="-1049.72" x2="-343.75" y2="-1049.72" gradientUnits="userSpaceOnUse">
<stop stop-color="#FBD04E"/>
<stop offset="0.203" stop-color="#EFC148"/>
<stop offset="0.589" stop-color="#CF9C3B"/>
<stop offset="1" stop-color="#A96E2A"/>
</linearGradient>
<linearGradient id="paint2_linear_2031_14" x1="-341.878" y1="-1051.06" x2="-355.246" y2="-1051.06" gradientUnits="userSpaceOnUse">
<stop stop-color="#FBD04E"/>
<stop offset="0.203" stop-color="#EFC148"/>
<stop offset="0.589" stop-color="#CF9C3B"/>
<stop offset="1" stop-color="#A96E2A"/>
</linearGradient>
</defs>
</svg>
