<?xml version="1.0" encoding="utf-8"?>
<!-- Generator: Adobe Illustrator 27.3.1, SVG Export Plug-In . SVG Version: 6.00 Build 0)  -->
<svg version="1.1" id="Layer_1" xmlns="http://www.w3.org/2000/svg" xmlns:xlink="http://www.w3.org/1999/xlink" x="0px" y="0px"
	 viewBox="0 0 848.3 733.5" style="enable-background:new 0 0 848.3 733.5;" xml:space="preserve">
<style type="text/css">
	.st0{fill:#F6F7FC;}
	.st1{fill:#424D53;}
	.st2{fill:#FAFAFA;}
	.st3{fill:#263238;}
	.st4{fill:#FFFFFF;}
	.st5{fill:#E8505B;}
	.st6{fill:#2F2C7D;}
	.st7{fill:#E0E0E0;}
	.st8{fill:#3EBBBD;}
	.st9{fill:#455A64;}
	.st10{fill:#FFBE9D;}
	.st11{opacity:0.6;fill:#FFFFFF;enable-background:new    ;}
	.st12{fill:#EB996E;}
	.st13{opacity:0.3;enable-background:new    ;}
	.st14{fill:#00A2BD;}
</style>
<path class="st0" d="M184.3,0h626c21,0,38,17,38,38v645c0,21-17,38-38,38h-626c-21,0-38-17-38-38V38C146.3,17,163.3,0,184.3,0z"/>
<path class="st1" d="M118.3,39.9L288,70.9c3.7,0.7,6.1,4.2,5.5,7.9l-29.3,160.3c-0.7,3.7-4.2,6.1-7.9,5.5L86.5,213.6
	c-3.7-0.7-6.1-4.2-5.5-7.9l29.3-160.3C111.1,41.7,114.6,39.2,118.3,39.9z"/>
<path class="st2" d="M208.9,172.9c-0.4,0-0.8-0.1-1.2-0.1l-3.6-0.6c-3.2-0.5-7.6-1.3-13.2-2.2l-44.1-7.8l-0.4-0.1l0-0.4
	c0.1-2.4,0.2-4.9,0.3-7.5c0.9-21.9,1.8-41.5,2.3-54.2l0.2,0.3L137.6,98l-3.1-0.6c-0.4-0.1-0.7-0.1-1.1-0.3c0.4,0,0.7,0,1.1,0.1
	l3.1,0.5c2.8,0.5,6.8,1.1,11.8,2l0.2,0l0,0.2c-0.5,12.8-1.2,32.3-2,54.2c-0.1,2.6-0.2,5.1-0.3,7.5l-0.3-0.4l44,8.1l13.1,2.5l3.5,0.7
	C208.1,172.7,208.5,172.7,208.9,172.9L208.9,172.9z"/>
<path class="st2" d="M147.5,148.6c0.1,0,0.2,0,0.3,0l0.9,0.1l3.6,0.6c3.2,0.5,7.7,1.3,13.3,2.3l45.8,8.1l-0.5,0.3
	c2.7-7.5,5.7-15.5,8.8-23.9c1.6-4.3,3.1-8.5,4.6-12.5l0.3,0.6l-53.9-9.9l-15.9-3l-4.3-0.8l-1.1-0.2c-0.1,0-0.3-0.1-0.4-0.1
	c0.1,0,0.3,0,0.4,0l1.1,0.2l4.3,0.7l16,2.8l53.9,9.6l0.5,0.1l-0.2,0.5c-1.5,4-3,8.2-4.6,12.5c-3.1,8.3-6.1,16.4-8.8,23.8l-0.1,0.3
	l-0.3-0.1l-45.7-8.4l-13.2-2.5c-1.5-0.3-2.7-0.5-3.5-0.7l-0.9-0.2C147.7,148.6,147.6,148.6,147.5,148.6z"/>
<path class="st2" d="M159.4,181.3c-0.1,0,0-0.6-0.1-1.5c-0.2-1.4-0.8-2.6-1.7-3.6c-2.2-2.4-6-2.5-8.4-0.3c-2.4,2.2-2.5,6-0.3,8.4
	c1.8,1.9,4.6,2.4,7,1.3c1.2-0.6,2.2-1.6,2.9-2.8C159.2,181.9,159.4,181.3,159.4,181.3c0,0.5-0.1,1.1-0.3,1.5
	c-0.6,1.4-1.6,2.5-2.9,3.2c-2,1.1-4.4,1-6.4-0.1c-3.2-1.8-4.3-5.9-2.5-9.1c1-1.8,2.7-3,4.7-3.3c2.2-0.4,4.5,0.4,6,2.1
	c1,1.1,1.5,2.5,1.6,4C159.7,180.3,159.6,180.8,159.4,181.3z"/>
<path class="st2" d="M199.3,188.5c-0.1,0,0-0.6-0.1-1.5c-0.2-1.4-0.8-2.6-1.7-3.6c-2.2-2.4-6-2.5-8.4-0.3c-2.4,2.2-2.5,6-0.3,8.4
	c1.8,1.9,4.6,2.4,7,1.3c1.2-0.6,2.2-1.6,2.9-2.8C199.1,189.1,199.2,188.5,199.3,188.5c0,0.5-0.1,1.1-0.3,1.5
	c-0.6,1.4-1.6,2.5-2.9,3.2c-2,1.1-4.4,1-6.4-0.1c-3.2-1.8-4.3-5.9-2.5-9.1c1-1.8,2.7-3,4.7-3.3c2.2-0.4,4.5,0.4,6,2.1
	c1,1.1,1.5,2.5,1.6,4C199.6,187.5,199.5,188,199.3,188.5z"/>
<path class="st2" d="M240.1,120c-1.8,9.8-11.1,16.3-20.9,14.5s-16.3-11.1-14.5-20.9c1.8-9.8,11.1-16.3,20.9-14.5c0,0,0,0,0,0
	C235.4,100.9,241.9,110.2,240.1,120z"/>
<path class="st3" d="M221.3,126.6c0,0,0.1,0.1,0.1,0.4L221,127c0.3-3,0.7-6,1.4-9c1-5.1,2.1-9.3,2.4-9.2c0.3,0.1-0.3,4.3-1.3,9.4
	c-0.5,3-1.2,5.9-2.1,8.8L221,127C221.1,126.7,221.2,126.6,221.3,126.6z"/>
<path class="st3" d="M232.3,119.8c-0.1,0.3-4.3-0.3-9.4-1.3s-9.2-2.1-9.2-2.3s4.2,0.3,9.4,1.3S232.3,119.5,232.3,119.8z"/>
<path class="st1" d="M615.5,202.5c0,0,0.4-0.1,1.3-0.1l3.7-0.3c0.8,0,1.7-0.2,2.8-0.1l3.3,0.1c1.2,0.1,2.5,0,3.9,0.2l4.4,0.6
	c17.7,2.8,33.7,12.2,44.7,26.3c0.9,1.1,1.7,2.2,2.6,3.4c0.8,1.2,1.5,2.4,2.3,3.7c1.6,2.6,3,5.2,4.2,7.9c2.6,5.8,4.4,12,5.4,18.3
	c0.5,3.3,0.8,6.7,0.9,10c0.1,1.7-0.1,3.4-0.2,5.2l-0.1,2.6c-0.1,0.9-0.2,1.7-0.4,2.6c-0.9,7.2-2.9,14.2-6,20.8
	c-6.6,14.2-17.6,26-31.4,33.4c-14.9,7.9-32.1,10.3-48.6,7c-1.1-0.2-2.2-0.5-3.2-0.7l0.5-0.1L572.3,364l-1.2,0.7l0.3-1.3
	c2.6-11.5,5.1-22.7,7.5-33.4l0.2,0.6c-14.1-10.8-23.7-26.6-26.8-44.1c-0.5-2.7-0.8-5.3-0.9-8c-0.1-1.3-0.1-2.6-0.2-4
	c-0.1-1.3,0.1-2.6,0.1-3.9c0.4-9.7,2.8-19.3,7-28c3.6-7.5,8.5-14.3,14.5-20.1c8.4-8.3,18.9-14.3,30.3-17.5l5.3-1.3l3.9-0.6l2.4-0.3
	C615.2,202.5,615.5,202.5,615.5,202.5c0,0-0.3,0.1-0.8,0.2l-2.4,0.4l-3.9,0.7l-5.2,1.4c-4.8,1.4-9.4,3.3-13.8,5.7
	c-13.2,7.2-23.8,18.4-30.3,32c-4.1,8.7-6.5,18.1-6.8,27.7c0,1.3-0.2,2.6-0.1,3.9c0.1,1.3,0.1,2.6,0.2,3.9c0.1,2.7,0.4,5.3,0.9,7.9
	c3.1,17.2,12.6,32.7,26.5,43.4l0.3,0.2l-0.1,0.3c-2.4,10.7-4.9,21.9-7.4,33.4l-0.9-0.6c10.8-6.7,21.9-13.7,33.3-20.8l0.2-0.1
	l0.2,0.1c1,0.3,2.1,0.5,3.2,0.7c16.2,3.3,33.1,0.8,47.8-6.9c13.6-7.3,24.5-18.8,30.9-32.8c3.1-6.5,5.1-13.4,5.9-20.4
	c0.1-0.9,0.3-1.7,0.4-2.6l0.1-2.6c0-1.7,0.2-3.4,0.2-5.1c-0.1-3.3-0.4-6.6-0.9-9.9c-0.9-6.2-2.7-12.3-5.2-18
	c-1.2-2.7-2.6-5.3-4.1-7.9c-0.8-1.2-1.5-2.5-2.3-3.7c-0.9-1.1-1.7-2.3-2.5-3.4c-6.1-7.9-13.9-14.4-22.7-19.1
	c-6.7-3.5-13.9-6-21.3-7.2l-4.3-0.7c-1.4-0.2-2.7-0.2-3.9-0.3l-3.3-0.2c-1,0-1.9,0.1-2.7,0.1l-3.7,0.1
	C615.9,202.5,615.5,202.5,615.5,202.5L615.5,202.5z"/>
<path class="st1" d="M601.9,241.6l-8.5,64.7h63.3l-9.2-64.7L601.9,241.6z"/>
<path class="st4" d="M642.3,251c0,0.6-0.1,1.3-0.3,1.9c-0.5,1.7-1.3,3.2-2.3,4.7c-1.5,2.2-3.4,4-5.7,5.3c-2.8,1.6-6,2.4-9.2,2.3
	c-3.2,0.1-6.4-0.6-9.3-2.1c-2.3-1.3-4.2-3.1-5.6-5.4c-0.9-1.5-1.6-3.1-2-4.8c-0.2-0.6-0.3-1.3-0.2-1.9c0.2-0.1,0.6,2.7,3,6.2
	c1.4,2,3.2,3.7,5.4,4.9c2.7,1.3,5.7,2,8.7,1.9c3,0,6-0.7,8.7-2.1c2.2-1.2,4-2.8,5.5-4.8C641.5,253.6,642.1,250.9,642.3,251
	L642.3,251z"/>
<path class="st5" d="M734.6,717.7c0,0.2-164.5,0.4-367.3,0.4C164.4,718.1,0,717.9,0,717.7s164.4-0.4,367.3-0.4
	C570.1,717.3,734.6,717.4,734.6,717.7z"/>
<path class="st3" d="M482.6,717.7H273.2c-25.2-0.1-45.9-21.6-45.8-46.8l2.2-525.8c0.1-25.2,20.6-45.6,45.9-45.5c0,0,0,0,0,0l209.7,1
	c25.2,0.1,45.6,20.7,45.5,45.9l-2.2,525.8C528.4,697.4,507.9,717.8,482.6,717.7C482.6,717.7,482.6,717.7,482.6,717.7L482.6,717.7z"
	/>
<path class="st2" d="M485,118.7l-40.7-0.2c-5.6,0.1-10,4.7-9.9,10.3l0,7.4c0.1,5.6-4.3,10.2-9.9,10.3l-79.3-0.4
	c-5.6-0.2-10-4.8-9.8-10.4l0-7.4c0.1-5.6-4.3-10.2-9.8-10.4l-14.3-0.1l-35.6-0.2c-17.7-0.1-32.1,14.2-32.1,31.8c0,0,0,0,0,0
	l-2.2,513.2c-0.1,17.7,14.2,32,31.8,32.1l209.3,1c17.7,0.1,32.1-14.2,32.1-31.9c0,0,0,0,0,0l2.2-513.2
	C516.9,133.1,502.6,118.8,485,118.7L485,118.7z"/>
<path class="st3" d="M303,171.1c0,0.2-7,0.4-15.6,0.4s-15.6-0.2-15.6-0.4s7-0.4,15.6-0.4S303,170.9,303,171.1z"/>
<path class="st3" d="M303,165.2c0,0.2-7,0.4-15.6,0.4s-15.6-0.2-15.6-0.4s7-0.4,15.6-0.4S303,165,303,165.2z"/>
<path class="st3" d="M303,159.3c0,0.2-7,0.4-15.6,0.4s-15.6-0.2-15.6-0.4s7-0.4,15.6-0.4S303,159.1,303,159.3z"/>
<path class="st6" d="M273.5,612.3h211.2c1.8,0,3.2,1.4,3.2,3.2v43.3c0,1.8-1.4,3.2-3.2,3.2H273.5c-1.8,0-3.2-1.4-3.2-3.2v-43.3
	C270.3,613.7,271.7,612.3,273.5,612.3z"/>
<path class="st3" d="M297,622.4h24.6c1.7,0,3.1,1.4,3.1,3.1v24.6c0,1.7-1.4,3.1-3.1,3.1H297c-1.7,0-3.1-1.4-3.1-3.1v-24.6
	C293.9,623.8,295.3,622.4,297,622.4z"/>
<path class="st4" d="M309.3,646.7c-0.4,0-0.8-0.4-0.8-0.8l0,0v-16.3c0-0.4,0.4-0.8,0.8-0.8s0.8,0.4,0.8,0.8v16.3
	C310.1,646.4,309.8,646.7,309.3,646.7L309.3,646.7z"/>
<path class="st4" d="M317.3,638.6h-16c-0.4,0-0.8-0.4-0.8-0.8c0-0.4,0.4-0.8,0.8-0.8h16c0.4,0,0.8,0.4,0.8,0.8
	C318.1,638.2,317.8,638.6,317.3,638.6z"/>
<path class="st4" d="M351.8,640.7h-5.4l-1.1,2.6h-1.5l4.6-10.2h1.4l4.6,10.2h-1.5L351.8,640.7z M351.3,639.5l-2.2-5l-2.2,5H351.3z"
	/>
<path class="st4" d="M356,633h4.3c3.3,0,5.5,2.1,5.5,5.1c0,3-2.2,5.1-5.5,5.1H356V633z M360.2,642c2.5,0,4.2-1.5,4.2-3.8
	s-1.6-3.8-4.2-3.8h-2.8v7.7H360.2z"/>
<path class="st4" d="M368,633h4.3c3.3,0,5.5,2.1,5.5,5.1c0,3-2.2,5.1-5.5,5.1H368V633z M372.3,642c2.5,0,4.2-1.5,4.2-3.8
	s-1.6-3.8-4.2-3.8h-2.8v7.7H372.3z"/>
<path class="st4" d="M386.1,634.3h-3.5V633h8.5v1.3h-3.5v9h-1.4L386.1,634.3z"/>
<path class="st4" d="M391.7,638.1c-0.1-3,2.2-5.5,5.2-5.6c3-0.1,5.5,2.2,5.6,5.2c0.1,3-2.2,5.5-5.2,5.6c-0.1,0-0.1,0-0.2,0
	c-2.9,0.1-5.3-2.1-5.4-4.9C391.7,638.3,391.7,638.2,391.7,638.1z M401.1,638.1c0-2.2-1.7-4-3.9-4c-2.2,0-4,1.7-4,3.9
	c0,2.2,1.7,4,3.9,4c0,0,0,0,0.1,0c2.1,0.1,3.9-1.6,4-3.7C401.1,638.3,401.1,638.2,401.1,638.1z"/>
<path class="st4" d="M407.9,638.1c0-2.9,2.3-5.2,5.1-5.2c0.1,0,0.2,0,0.3,0c1.5-0.1,2.9,0.5,3.9,1.6l-1,0.9
	c-0.7-0.8-1.8-1.2-2.9-1.2c-2.2,0-4,1.7-4,3.8c0,2.2,1.7,4,3.8,4c0.1,0,0.1,0,0.2,0c1.1,0,2.1-0.4,2.9-1.2l1,0.9
	c-1,1.1-2.4,1.7-3.9,1.6c-2.9,0.1-5.3-2.1-5.4-4.9C407.9,638.3,407.9,638.2,407.9,638.1L407.9,638.1z"/>
<path class="st4" d="M425.6,640.7h-5.4l-1.1,2.6h-1.5l4.6-10.2h1.4l4.6,10.2h-1.5L425.6,640.7z M425.1,639.5l-2.2-5l-2.2,5H425.1z"
	/>
<path class="st4" d="M436.6,643.3l-2.2-3.1c-0.2,0-0.4,0-0.6,0h-2.5v3.1h-1.5V633h4c2.7,0,4.3,1.3,4.3,3.6c0.1,1.5-0.9,2.8-2.3,3.2
	l2.4,3.4L436.6,643.3z M436.6,636.6c0-1.5-1-2.3-2.9-2.3h-2.5v4.6h2.5C435.6,638.9,436.6,638.1,436.6,636.6L436.6,636.6z"/>
<path class="st4" d="M442.3,634.3h-3.5V633h8.5v1.3h-3.5v9h-1.4L442.3,634.3z"/>
<path class="st6" d="M287.6,517.6l2.7,5.4l6,0.9l-4.3,4.2l1,6l-5.4-2.8l-5.4,2.8l1-6l-4.3-4.2l6-0.9L287.6,517.6z"/>
<path class="st6" d="M309.7,517.6l2.7,5.4l6,0.9l-4.3,4.2l1,6l-5.4-2.8l-5.4,2.8l1-6l-4.3-4.2l6-0.9L309.7,517.6z"/>
<path class="st6" d="M331.9,517.6l2.7,5.4l6,0.9l-4.3,4.2l1,6l-5.4-2.8l-5.4,2.8l1-6l-4.3-4.2l6-0.9L331.9,517.6z"/>
<path class="st6" d="M354,517.6l2.7,5.4l6,0.9l-4.3,4.2l1,6l-5.4-2.8l-5.4,2.8l1-6l-4.3-4.2l6-0.9L354,517.6z"/>
<path class="st7" d="M376.2,517.6l2.7,5.4l6,0.9l-4.3,4.2l1,6l-5.4-2.8l-5.4,2.8l1-6l-4.3-4.2l6-0.9L376.2,517.6z"/>
<path d="M408.6,530.2v1.2h-7.1v-1l4-3.9c1-1,1.2-1.6,1.2-2.2c0-1-0.7-1.6-2.1-1.6c-1-0.1-1.9,0.3-2.5,1.1l-1-0.8
	c0.9-1,2.2-1.6,3.6-1.5c2,0,3.4,1.1,3.4,2.7c0,1-0.3,1.8-1.6,3.1l-3,2.9L408.6,530.2z"/>
<path d="M416.5,528.5c0,1.7-1.2,3-3.7,3c-1.3,0-2.6-0.4-3.6-1.2l0.6-1.1c0.8,0.7,1.9,1.1,3,1.1c1.5,0,2.3-0.7,2.3-1.7
	c0-1-0.7-1.7-2.4-1.7h-0.8v-1l2.5-3h-4.7v-1.2h6.5v1l-2.6,3.2C415.5,525.9,416.5,527,416.5,528.5L416.5,528.5z"/>
<path d="M428.9,531.4l-2.1-3c-0.2,0-0.4,0-0.6,0h-2.4v3h-1.4v-9.8h3.8c2.6,0,4.1,1.3,4.1,3.4c0.1,1.4-0.8,2.7-2.2,3.1l2.3,3.3H428.9
	z M428.9,525c0-1.4-0.9-2.2-2.7-2.2h-2.4v4.4h2.4C427.9,527.2,428.9,526.4,428.9,525L428.9,525z"/>
<path d="M439,528.1h-6c0.2,1.3,1.4,2.3,2.7,2.2c0.8,0,1.6-0.3,2.1-0.9l0.7,0.9c-1.6,1.6-4.1,1.6-5.7,0c-0.7-0.7-1.1-1.6-1.2-2.6
	c-0.1-2,1.5-3.7,3.5-3.8c0.1,0,0.2,0,0.2,0c2-0.1,3.6,1.5,3.7,3.5c0,0.1,0,0.2,0,0.3C439.1,527.8,439,528,439,528.1z M433,527.1h4.8
	c-0.2-1.3-1.4-2.3-2.7-2.1C434,525.2,433.1,526,433,527.1z"/>
<path d="M447.4,523.9l-3.3,7.4h-1.4l-3.3-7.4h1.4l2.6,6l2.6-6H447.4z"/>
<path d="M448.4,521.6c0-0.5,0.4-0.9,0.9-0.9c0,0,0,0,0,0c0.5,0,0.9,0.3,0.9,0.8c0,0,0,0,0,0c0,0.5-0.4,0.9-0.9,0.9
	C448.8,522.6,448.4,522.2,448.4,521.6L448.4,521.6z M448.6,523.9h1.3v7.4h-1.3V523.9z"/>
<path d="M459.2,528.1h-6c0.2,1.3,1.4,2.3,2.7,2.2c0.8,0,1.6-0.3,2.1-0.9l0.7,0.9c-1.6,1.6-4.1,1.6-5.7,0c-0.7-0.7-1.1-1.6-1.2-2.6
	c-0.1-2,1.5-3.7,3.5-3.8c0.1,0,0.2,0,0.2,0c2-0.1,3.6,1.5,3.7,3.5c0,0.1,0,0.2,0,0.3C459.2,527.8,459.2,528,459.2,528.1L459.2,528.1
	z M453.2,527.1h4.8c-0.2-1.3-1.4-2.3-2.7-2.1C454.2,525.2,453.3,526,453.2,527.1L453.2,527.1z"/>
<path d="M472.2,523.9l-2.8,7.4h-1.3l-2.1-5.6l-2.2,5.6h-1.3l-2.8-7.4h1.3l2.2,5.9l2.2-5.9h1.1l2.2,5.9l2.2-5.9H472.2z"/>
<path d="M472.5,530.6l0.6-1.1c0.8,0.5,1.7,0.8,2.6,0.8c1.2,0,1.8-0.4,1.8-1c0-1.7-4.7-0.2-4.7-3.2c0-1.3,1.2-2.2,3.1-2.2
	c0.9,0,1.9,0.2,2.7,0.7l-0.6,1.1c-0.6-0.4-1.4-0.6-2.1-0.6c-1.2,0-1.8,0.4-1.8,1c0,1.8,4.7,0.3,4.7,3.2c0,1.3-1.2,2.2-3.2,2.2
	C474.5,531.5,473.4,531.2,472.5,530.6L472.5,530.6z"/>
<path d="M318.6,568.8h-3.4v4.4h-2.5v-4.4h-10.1V567l9.3-11.8h2.8l-8.9,11.4h7v-3.9h2.4v3.9h3.4L318.6,568.8z"/>
<path d="M320.2,564.2c0-5.9,3.2-9.3,7.4-9.3c4.2,0,7.4,3.4,7.4,9.3c0,5.9-3.2,9.3-7.4,9.3C323.3,573.5,320.2,570.1,320.2,564.2z
	 M332.4,564.2c0-4.6-2-7-4.8-7c-2.8,0-4.8,2.3-4.8,7c0,4.6,2,7,4.8,7C330.4,571.2,332.4,568.8,332.4,564.2z"/>
<path d="M338,564.8c0-5.9,3.2-9.3,7.4-9.3c4.2,0,7.4,3.4,7.4,9.3s-3.2,9.3-7.4,9.3C341.1,574.1,338,570.7,338,564.8z M350.1,564.8
	c0-4.6-2-7-4.8-7c-2.8,0-4.8,2.3-4.8,7s2,7,4.8,7C348.2,571.8,350.1,569.4,350.1,564.8z"/>
<path d="M357.1,571.6c0-1,0.7-1.7,1.7-1.8c0,0,0,0,0.1,0c0.9,0,1.7,0.8,1.7,1.7c0,0,0,0,0,0.1c0,1-0.7,1.7-1.7,1.8c0,0,0,0,0,0
	C357.8,573.4,357.1,572.6,357.1,571.6C357.1,571.6,357.1,571.6,357.1,571.6z"/>
<path d="M377.5,568.1c0,3.3-2.8,5.3-7.2,5.3c-4.4,0-7.2-2-7.2-5.3c0-2,1.3-3.8,3.2-4.4c-1.6-0.6-2.6-2.2-2.5-3.9
	c0-3,2.6-4.9,6.5-4.9c3.9,0,6.6,1.9,6.6,4.9c0,1.7-1,3.3-2.6,3.9C376.2,564.3,377.5,566.1,377.5,568.1L377.5,568.1z M374.9,568.1
	c0-2-1.8-3.2-4.6-3.2s-4.6,1.2-4.6,3.2c0,2,1.7,3.3,4.6,3.3S374.9,570.1,374.9,568.1z M366.3,560c0,1.8,1.5,2.9,4,2.9
	c2.5,0,4-1.1,4-2.9c0-1.8-1.6-2.9-4-2.9S366.3,558.2,366.3,560L366.3,560z"/>
<path d="M379.9,564.2c0-5.9,3.2-9.3,7.4-9.3c4.2,0,7.4,3.4,7.4,9.3c0,5.9-3.2,9.3-7.4,9.3C383,573.5,379.9,570.1,379.9,564.2
	L379.9,564.2z M392,564.2c0-4.6-2-7-4.8-7c-2.8,0-4.8,2.3-4.8,7c0,4.6,2,7,4.8,7C390.1,571.2,392,568.8,392,564.2L392,564.2z"/>
<path class="st8" d="M299.4,284.6l159-0.3c3.8,0,6.8,3,6.8,6.8l0.3,150.1c0,3.8-3,6.8-6.8,6.8l-159,0.3c-3.8,0-6.8-3-6.8-6.8
	l-0.3-150.1C292.6,287.7,295.7,284.6,299.4,284.6z"/>
<path class="st3" d="M346.6,387l3.5,0l0,31l-3.5,0L346.6,387z"/>
<path class="st3" d="M359,387l3.5,0l0,15.9l-3.5,0L359,387z"/>
<path class="st3" d="M394.6,386.9l3.5,0l0,15.9l-3.5,0L394.6,386.9z"/>
<path class="st3" d="M410.3,386.9l3.5,0l0,31l-3.5,0L410.3,386.9z"/>
<path class="st2" d="M336.7,354.5l10,34.1l67.1-0.1l10.5-32.7c0,0-7.1-2.2-11.6-1.3l-1.3-36.3c-0.1-2.8-2.4-4.9-5.2-4.8
	c-0.6,0-1.2,0.2-1.8,0.4l-6.5,2.9l-37.9,0.1l-4.4-2.2c-2.4-1.2-5.4-0.2-6.6,2.2c-0.3,0.7-0.5,1.5-0.5,2.2l0.3,35.9
	C344.9,353.9,340.7,353.7,336.7,354.5L336.7,354.5z"/>
<path class="st7" d="M359.9,372.2c3.8,4.1,8.7,6.8,14.2,7.9c5.4,1,11,0.9,16.4-0.3c2.9-0.6,6.1-1.7,7.6-4.3c1.6-2.7,0.9-6,0.2-9
	c-0.9-3.9-1.9-7.8-3.8-11.2c-2-3.4-5.1-6.4-9-7.2c-5.3-1.1-10.5,2-14.4,5.7c-5.1,4.9-8.9,11.1-10.9,17.9"/>
<path class="st3" d="M360.8,368.8c-0.3,0-0.5-11.6-0.5-26c0-14.3,0.2-26,0.4-26c0.3,0,0.5,11.6,0.5,26S361.1,368.8,360.8,368.8
	L360.8,368.8z"/>
<path class="st3" d="M398.7,368.7c-0.3,0-0.5-11.6-0.5-26s0.2-26,0.4-26c0.3,0,0.5,11.6,0.5,26C399.2,357.1,399,368.7,398.7,368.7z"
	/>
<path class="st3" d="M412.8,354.5c-0.6,0.2-1.1,0.4-1.7,0.5l-0.9,0.2l-1.1,0.4c-0.4,0.2-0.8,0.3-1.3,0.5l-1.3,0.7
	c-2.2,1.3-4.1,3.1-5.3,5.4c-1.5,2.9-2.1,6.2-1.8,9.5l0,0.5h-0.5l-18,0.1l-20.1,0h-0.4l0-0.4c-0.1-3-0.9-6-2.4-8.6
	c-1.1-2.1-2.6-3.9-4.4-5.4c-1.6-1.3-3.4-2.4-5.3-3.3c0.5,0.1,1.1,0.3,1.6,0.5c1.4,0.6,2.8,1.4,4,2.4c1.9,1.5,3.5,3.3,4.7,5.4
	c1.6,2.7,2.5,5.8,2.6,9l-0.4-0.4c5.9,0,12.8-0.1,20.1-0.1l18,0l-0.4,0.5c-0.3-3.5,0.4-6.9,2.1-10c1.3-2.3,3.3-4.2,5.7-5.5l1.4-0.7
	l1.3-0.4l1.1-0.4l1-0.2C411.6,354.6,412.2,354.5,412.8,354.5L412.8,354.5z"/>
<path class="st3" d="M360.1,372.1c0,0.2-1.2,0.4-3.1,1.3c-4.9,2.2-8.4,6.8-9.1,12.1c-0.3,2-0.2,3.3-0.3,3.3c-0.1,0-0.5-1.3-0.4-3.4
	c0.4-5.7,4.1-10.7,9.5-12.7C358.7,372,360.1,372,360.1,372.1L360.1,372.1z"/>
<path class="st3" d="M413.1,389.2c-0.2,0-0.2-1.4-0.8-3.6c-1.4-5.8-5.6-10.6-11.1-12.8c-2.1-0.9-3.5-1.1-3.5-1.3
	c0-0.1,1.5-0.1,3.7,0.6c6,2,10.4,7.1,11.5,13.3C413.5,387.7,413.2,389.2,413.1,389.2z"/>
<path class="st5" d="M466.4,571.5c-0.1,0-0.1,0-0.2,0c0,0-0.1,0-0.1,0c-0.1,0-0.2-0.1-0.3-0.2l-5.6-5.8c-1.8-1.8-2.5-4.4-1.8-6.9
	c0.8-2.4,3.4-3.7,5.8-3c0.6,0.2,1.2,0.5,1.7,1c0.2,0.2,0.3,0.4,0.5,0.6c0.2-0.2,0.3-0.4,0.5-0.6c0.9-0.8,2-1.2,3.2-1.2
	c2-0.1,3.8,1.3,4.2,3.2c0.7,2.4,0.1,5.1-1.8,6.9l-5.6,5.8C466.8,571.5,466.6,571.5,466.4,571.5L466.4,571.5z M462.8,557.1
	L462.8,557.1c-1.4-0.1-2.6,0.8-2.8,2.1c-0.6,1.9,0,3.9,1.4,5.3l5.1,5.2l5.1-5.2c1.4-1.4,1.9-3.4,1.4-5.3c-0.3-1.3-1.5-2.2-2.8-2.1
	c-0.8-0.1-1.5,0.2-2.1,0.7c-0.5,0.7-0.8,1.5-0.8,2.3c0,0.4-0.3,0.8-0.8,0.8c-0.4,0-0.8-0.3-0.8-0.8l0,0V560c0-0.8-0.3-1.6-0.8-2.3
	C464.2,557.3,463.5,557,462.8,557.1L462.8,557.1z"/>
<path class="st3" d="M438.6,240.1c0,0.2-26.7,0.4-59.6,0.4s-59.6-0.2-59.6-0.4s26.7-0.4,59.6-0.4S438.6,239.9,438.6,240.1z"/>
<path class="st6" d="M333.7,223.6h88.7v5.1h-88.7V223.6z"/>
<path class="st3" d="M298.5,492h161.1"/>
<path class="st3" d="M459.6,492c0,0.2-36.1,0.4-80.6,0.4s-80.6-0.2-80.6-0.4s36.1-0.4,80.6-0.4S459.6,491.7,459.6,492L459.6,492z"/>
<path class="st3" d="M321.2,478H437"/>
<path class="st3" d="M437,478c0,0.2-25.9,0.4-57.9,0.4s-57.9-0.2-57.9-0.4s25.9-0.4,57.9-0.4S437,477.8,437,478z"/>
<path class="st3" d="M488.5,171.7c-2,0.3-4,0.4-5.9,0.3c-3.7,0.1-8.8,0.1-14.6,0.2h-0.4l-0.1-0.4l-0.3-2.4c-1-7.1-1.8-13.5-2.3-17.6
	l0.3,0.3c-1.8,0-3.5-0.1-5.3-0.3c1.8-0.2,3.5-0.3,5.3-0.3l0.2,0l0,0.3c0.7,4.1,1.6,10.4,2.6,17.5c0.1,0.8,0.2,1.6,0.3,2.4l-0.5-0.4
	c5.8,0,10.9,0.1,14.6,0.1C484.6,171.3,486.6,171.4,488.5,171.7L488.5,171.7z"/>
<path class="st3" d="M467.4,167.4c0.5-0.1,1.1-0.2,1.6-0.2l4.4-0.1c3.8-0.1,9.1-0.1,15.2-0.2l-0.4,0.4c0.4-2.6,0.9-5.3,1.4-8.2
	c0.3-1.5,0.5-2.9,0.8-4.3l0.5,0.5c-7.1,0-13.4-0.1-17.9-0.2l-5.3-0.1c-0.6,0-1.3,0-1.9-0.2c0.6-0.1,1.3-0.2,1.9-0.2l5.3-0.1
	c4.5-0.1,10.8-0.1,17.9-0.2h0.5l-0.1,0.5c-0.2,1.4-0.5,2.8-0.8,4.3c-0.5,2.9-1,5.6-1.5,8.2l-0.1,0.4h-0.4c-6.1,0-11.4-0.1-15.2-0.2
	l-4.4-0.1C468.4,167.6,467.9,167.5,467.4,167.4z"/>
<path class="st3" d="M473.1,177.2c-0.1,0-0.2-0.8-1-1.4c-0.5-0.3-1.1-0.4-1.6-0.2c-0.8,0.3-1.3,1.3-0.9,2.1c0.2,0.4,0.5,0.8,0.9,0.9
	c0.5,0.2,1.1,0.2,1.6-0.2C472.9,178,472.9,177.2,473.1,177.2c0.1,0,0.1,0.2,0.1,0.5c-0.1,0.5-0.3,1-0.7,1.4
	c-0.6,0.5-1.5,0.7-2.3,0.4c-1.3-0.4-2-1.8-1.5-3.1c0.2-0.7,0.8-1.3,1.5-1.5c0.8-0.3,1.7-0.1,2.3,0.4c0.4,0.3,0.7,0.8,0.7,1.3
	C473.2,177,473.2,177.2,473.1,177.2z"/>
<path class="st3" d="M486.3,177.2c-0.1,0-0.2-0.8-1-1.4c-0.5-0.3-1.1-0.4-1.6-0.2c-0.8,0.3-1.3,1.3-0.9,2.1c0.2,0.4,0.5,0.8,0.9,0.9
	c0.5,0.2,1.1,0.2,1.6-0.2C486.2,178,486.2,177.2,486.3,177.2c0.1,0,0.1,0.2,0.1,0.5c-0.1,0.5-0.3,1-0.7,1.4
	c-0.6,0.5-1.5,0.7-2.3,0.4c-1.3-0.4-2-1.8-1.5-3.1c0.2-0.7,0.8-1.3,1.5-1.5c0.8-0.3,1.7-0.1,2.3,0.4c0.4,0.3,0.7,0.8,0.7,1.3
	C486.5,177,486.4,177.2,486.3,177.2z"/>
<path class="st6" d="M500,153.6c0,4.8-3.9,8.8-8.8,8.8c-4.8,0-8.8-3.9-8.8-8.8c0-4.8,3.9-8.8,8.8-8.8
	C496.1,144.9,500,148.8,500,153.6C500,153.6,500,153.6,500,153.6z"/>
<path class="st4" d="M492.1,150.1v7.1h-1V151h-1.6v-0.9L492.1,150.1z"/>
<path class="st9" d="M126.2,577.9h20.9v139.4h-20.9V577.9z"/>
<path class="st9" d="M111.4,561.2h158.4v19.3H111.4L111.4,561.2z"/>
<path class="st9" d="M137.9,637.4h108.9v19.3H137.9V637.4z"/>
<path class="st9" d="M236.4,577.9h20.9v139.4h-20.9L236.4,577.9z"/>
<path class="st3" d="M269.7,580.2c0,0.2-35.5,0.4-79.3,0.4s-79.3-0.2-79.3-0.4s35.5-0.4,79.3-0.4S269.7,579.9,269.7,580.2z"/>
<path class="st3" d="M147.2,672.9c-0.2,0-0.4-10.3-0.4-23.1c0-12.8,0.2-23.1,0.4-23.1s0.4,10.3,0.4,23.1
	C147.6,662.5,147.4,672.9,147.2,672.9z"/>
<path class="st3" d="M236.3,672c-0.2,0-0.4-9.6-0.4-21.5s0.2-21.5,0.4-21.5s0.4,9.6,0.4,21.5S236.6,672,236.3,672z"/>
<path class="st3" d="M270.6,566.4c0,0-0.6-0.1-1.6-0.4c-1.6-0.4-3.2-0.6-4.8-0.7c-4.2-0.3-10.4,0.6-17.4,3.3
	c-3.5,1.3-7.3,3-11.4,4.7c-4.3,1.9-8.9,3.4-13.5,4.4c-5.2,1-10.5,0.9-15.7-0.2c-5.5-1.2-10.9-2.9-16.1-5.1
	c-5.3-2.2-10.5-4.5-15.6-6.4c-4.9-1.9-10-3.2-15.1-3.9c-8.8-1.1-17.7-0.4-26.3,2c-5.7,1.6-11.2,4.1-16.3,7.2
	c-0.9,0.6-1.7,1.1-2.4,1.5l-1.7,1.2c-0.9,0.7-1.4,1-1.4,1s0.5-0.4,1.3-1l1.7-1.2c0.7-0.5,1.5-1,2.3-1.6c5.1-3.2,10.6-5.7,16.3-7.3
	c8.5-2.5,17.5-3.2,26.4-2.1c5.2,0.7,10.3,2,15.2,3.9c5.1,1.9,10.3,4.2,15.6,6.4c5.2,2.2,10.5,3.9,16,5.1c5.1,1.1,10.4,1.1,15.5,0.2
	c4.6-1,9.1-2.5,13.4-4.4c4.1-1.7,7.9-3.4,11.4-4.7c7.1-2.7,13.3-3.5,17.5-3.2c1.6,0.1,3.2,0.3,4.8,0.7
	C270.1,566.2,270.6,566.4,270.6,566.4L270.6,566.4z"/>
<path class="st3" d="M151.7,570.9c-1.4,0.8-2.9,1.5-4.4,1.9c-4.2,1.2-8.6,1.2-12.8-0.1l-0.2-0.1l0.2-0.2c2.8-2.7,6.2-4.8,9.8-6.1
	c4.3-1.5,8.8-2,13.3-1.5c1.5,0.2,2.9,0.5,4.3,0.9c1.4,0.3,2.7,0.9,3.9,1.7c1.2,0.8,1.9,2.2,1.7,3.7c-0.4,1.3-1.5,2.3-2.8,2.7
	c-4.3,1.5-8.8,2.5-13.3,3c-3,0.4-6.1,0.5-9.2,0.4c-2.2-0.1-3.4-0.2-3.4-0.2s0.3,0,0.9,0l2.5,0.1c3.1,0,6.1-0.1,9.1-0.5
	c4.5-0.5,8.9-1.6,13.2-3.1c1.2-0.3,2.2-1.3,2.6-2.5c0.2-1.3-0.5-2.6-1.6-3.4c-1.2-0.8-2.5-1.3-3.8-1.7c-1.4-0.4-2.8-0.7-4.3-0.9
	c-4.4-0.5-8.9,0-13.2,1.5c-3.6,1.3-7,3.4-9.8,6l-0.1-0.2c4.1,1.3,8.5,1.3,12.7,0.2c1.1-0.3,2.3-0.7,3.3-1.2
	C151.3,571.1,151.7,570.9,151.7,570.9z"/>
<path class="st3" d="M259.3,574.8c0.1,0.6,0.3,1.2,0.7,1.7c1.1,1.3,2.8,2,4.5,1.8c1.2-0.1,2.3-0.5,3.2-1.2c1-0.8,1.5-2.2,1.3-3.5
	c-0.4-1.4-1.6-2.5-3.1-2.7c-1.6-0.3-3.2-0.3-4.7-0.1c-3.1,0.1-6.1,0.6-9.1,1.4c-2.4,0.6-4.8,1.7-6.9,3c-1.4,0.9-2.7,2-3.9,3.3
	c-0.4,0.5-0.7,0.8-0.9,1.1c-0.1,0.1-0.2,0.3-0.3,0.4c0.3-0.5,0.7-1.1,1.1-1.5c1.1-1.3,2.4-2.5,3.8-3.4c2.1-1.4,4.5-2.5,6.9-3.1
	c3-0.8,6.1-1.3,9.2-1.4c1.6-0.2,3.2-0.1,4.8,0.1c1.6,0.3,2.8,1.4,3.3,2.9c0.2,1.4-0.3,2.9-1.4,3.7c-1,0.7-2.1,1.2-3.3,1.2
	c-1.8,0.1-3.5-0.6-4.6-2c-0.3-0.4-0.5-0.8-0.6-1.3C259.3,575.2,259.3,575,259.3,574.8L259.3,574.8z"/>
<path class="st3" d="M267.6,560.5c0,0-0.3,0-0.8,0l-2.4,0c-1,0.1-2.3,0.1-3.8,0.3c-1.5,0.2-3.1,0.4-5,0.8c-4.3,0.9-8.5,2.1-12.6,3.6
	c-4.7,1.5-9.8,3.4-15.3,4.8c-5.2,1.4-10.6,2-16,1.7c-4.4-0.4-8.7-1.4-12.7-3.2c-2.7-1.2-5.3-2.7-7.7-4.4c-0.9-0.6-1.7-1.3-2.5-2.1
	c0,0,0.2,0.2,0.7,0.5c0.4,0.3,1.1,0.8,1.9,1.5c6,4.3,13,6.9,20.3,7.4c5.3,0.3,10.7-0.3,15.8-1.7c5.5-1.4,10.6-3.3,15.3-4.8
	c4.1-1.4,8.4-2.6,12.6-3.5c1.8-0.4,3.5-0.6,5-0.8c1.5-0.1,2.8-0.2,3.8-0.2l2.4,0.1C267.3,560.5,267.6,560.5,267.6,560.5L267.6,560.5
	z"/>
<path class="st3" d="M238.5,717.7c0,0,0-0.5-0.1-1.4c0-1.3,0-2.7,0.2-4c0.6-4.9,1.9-9.7,3.8-14.3c2.2-5.8,5.6-12.5,7.8-20.5
	c2.3-8.7,2.7-17.7,1.1-26.6c-0.8-4.6-2.1-9-3.9-13.3c-1.7-4.1-3.6-8.1-4.9-12c-1.3-3.7-1.7-7.7-1.2-11.6c0.5-3.4,1.6-6.7,3.1-9.7
	c2.4-4.4,5.4-8.3,9-11.7c2.5-2.4,4-3.7,4-3.7s-0.3,0.3-1,1c-0.7,0.6-1.7,1.5-2.9,2.8c-3.5,3.4-6.5,7.4-8.9,11.7
	c-1.6,3-2.6,6.3-3.1,9.6c-0.5,3.9-0.1,7.8,1.2,11.5c1.2,3.9,3.1,7.8,4.9,12c1.8,4.3,3.1,8.8,3.9,13.4c0.8,4.6,1.1,9.2,0.9,13.9
	c-0.2,4.3-0.9,8.6-2,12.8c-2.2,8-5.6,14.7-7.8,20.5c-1.9,4.5-3.2,9.3-3.9,14.2c-0.2,1.3-0.2,2.7-0.2,4
	C238.5,717.2,238.5,717.7,238.5,717.7L238.5,717.7z"/>
<path class="st3" d="M235.9,630.6c0,0,0.1,0.2,0.4,0.7c0.3,0.5,0.6,1.2,1,1.9c0.9,1.7,2.1,4.1,3.5,7.2c1.7,3.6,3.1,7.3,4.3,11.1
	c1.5,4.7,2.2,9.5,2.1,14.4c-0.1,4.9-0.9,9.7-2.3,14.4c-1.1,3.8-2.5,7.6-4.1,11.2c-1.3,3.1-2.5,5.6-3.3,7.3l-0.9,2
	c-0.2,0.4-0.4,0.7-0.4,0.7s0.1-0.2,0.3-0.7l0.9-2c0.8-1.7,1.9-4.2,3.2-7.4c2.5-6.2,6.1-15.2,6.3-25.6c0.1-4.9-0.6-9.7-2.1-14.3
	c-1.2-3.8-2.6-7.5-4.2-11.1c-1.4-3.1-2.6-5.6-3.5-7.3c-0.4-0.8-0.7-1.4-1-2C236,630.8,235.9,630.6,235.9,630.6L235.9,630.6z"/>
<path class="st3" d="M251.5,622.6c-0.1-0.1-0.2-0.3-0.3-0.4c-0.1-0.5,0-1,0.3-1.4c0.5-0.6,1.4-0.8,2.2-0.5c1,0.4,1.7,1.3,2,2.3
	c0.4,1.2,0.6,2.4,0.6,3.7c0,1.4-0.4,2.9-1.1,4.1c-0.4,0.7-1.1,1.2-1.9,1.4c-0.9,0.1-1.7-0.3-2.1-1.1c-0.9-1.5-1.5-3-2-4.6
	c-0.9-3.1-1.1-6.4-0.6-9.6c0.7-4.4,2.7-8.5,5.8-11.7c0.4-0.5,0.9-0.9,1.4-1.3c-0.1,0.1-0.2,0.3-0.3,0.4c-0.2,0.2-0.6,0.6-1,1
	c-1.2,1.3-2.2,2.8-3.1,4.3c-2.9,5.1-3.6,11.2-1.9,16.9c0.4,1.6,1.1,3.1,1.9,4.5c0.3,0.7,1.1,1.1,1.8,1c0.7-0.2,1.3-0.7,1.7-1.3
	c0.7-1.2,1.1-2.6,1.1-3.9c0-1.2-0.1-2.4-0.5-3.6c-0.3-1-0.9-1.8-1.8-2.2c-0.7-0.3-1.5-0.2-2,0.4c-0.3,0.4-0.4,0.8-0.3,1.3
	C251.4,622.3,251.4,622.4,251.5,622.6L251.5,622.6z"/>
<path class="st3" d="M259.5,676.9c-0.1,0.1-0.1,0.3-0.2,0.4l-0.6,1c-0.6,0.9-1.3,2.2-2.2,3.9c-4.6,8.8-6.9,18.7-6.8,28.6
	c0,1.9,0.1,3.4,0.2,4.5c0,0.4,0.1,0.9,0.1,1.2c0,0.1,0,0.3,0,0.4c-0.3-2-0.5-4.1-0.6-6.1c-0.3-10,2.1-19.9,6.8-28.7
	C257.2,680.3,258.3,678.6,259.5,676.9L259.5,676.9z"/>
<path class="st3" d="M235.6,650.1c-4.1,1.5-8.3,2.7-12.5,3.6c-10.3,2.2-20.8,3.1-31.3,2.5c-5.8-0.3-11.5-1.1-17.2-2.3
	c-5.2-1.1-9.8-2.5-13.7-3.6c-3-0.9-6.2-1.5-9.3-1.7c-1.1-0.1-2,0-2.6,0c-0.6,0-0.9,0-0.9,0c1.2-0.2,2.3-0.2,3.5-0.2
	c3.2,0.2,6.3,0.7,9.4,1.6c3.9,1.1,8.5,2.5,13.7,3.5c5.7,1.2,11.4,1.9,17.1,2.2c10.5,0.6,21-0.2,31.3-2.4c3.9-0.9,7.1-1.7,9.2-2.4
	l2.5-0.8C235.3,650.2,235.6,650.1,235.6,650.1L235.6,650.1z"/>
<path class="st3" d="M209.8,643.9c-1.5,0.7-3,1.2-4.6,1.6c-4.3,1.1-8.8,1.2-13.1,0.3c-0.7-0.1-1.4-0.4-2-0.7
	c-0.7-0.3-1.3-0.9-1.6-1.6c-0.3-0.8-0.2-1.7,0.5-2.3c0.6-0.5,1.4-0.9,2.3-1c3.5-0.6,6.9-0.9,10.4-1c8-0.2,16,1,23.7,3.3
	c1.6,0.5,3.1,1,4.6,1.6l0.4,0.1l-0.4,0.2c-12.4,5.6-26,7.8-39.5,6.6c-4-0.4-8-1.1-11.9-2.1c-2.7-0.7-4.2-1.2-4.2-1.2
	s0.4,0.1,1.1,0.3c0.7,0.2,1.8,0.5,3.2,0.8c17.1,4.2,35.1,2.5,51.2-4.7l0,0.3c-1.4-0.5-3-1.1-4.5-1.6c-7.6-2.4-15.6-3.5-23.6-3.3
	c-3.5,0.1-7,0.4-10.4,0.9c-0.8,0.1-1.5,0.4-2.1,0.9c-0.6,0.5-0.7,1.3-0.4,2c0.8,1.2,2.1,2,3.5,2.2c4.3,0.9,8.8,0.8,13.1-0.2
	c1.2-0.3,2.3-0.6,3.4-1C209.4,644.1,209.8,643.9,209.8,643.9L209.8,643.9z"/>
<path class="st3" d="M148.7,645.3c0.3-0.2,0.6-0.4,0.8-0.5c0.8-0.4,1.6-0.8,2.4-1.1c5.6-2.2,11.8-2.5,17.5-0.8
	c0.9,0.2,1.7,0.6,2.5,0.9c0.3,0.1,0.6,0.3,0.9,0.4c-0.3-0.1-0.6-0.2-0.9-0.3c-0.6-0.2-1.5-0.5-2.6-0.8c-5.7-1.5-11.8-1.3-17.4,0.8
	c-1.1,0.4-1.9,0.8-2.5,1C149.4,645.1,149.1,645.2,148.7,645.3L148.7,645.3z"/>
<path class="st3" d="M136.8,678.1c0,0-0.4-0.4-1-1.2c-0.9-1.2-1.7-2.5-2.4-3.9c-0.4-1-0.7-2.1-0.7-3.2c0-1.3,0.5-2.6,1.3-3.7
	c0.9-1.3,2.4-2,3.9-1.9c0.8,0.1,1.6,0.5,2.2,1.1c0.6,0.6,1.1,1.4,1.4,2.2c0.6,1.8,0.9,3.6,1,5.4c0.1,2,0.1,4-0.1,6
	c-0.2,2.1-0.5,4.3-1,6.3c-0.3,1.1-0.6,2.1-0.9,3.2c-0.3,1.1-0.8,2.2-1.5,3.1c-0.6,1.1-1.8,1.7-3,1.8c-1.3-0.1-2.4-0.9-3-1.9
	c-0.7-1-1.2-2.2-1.6-3.4c-0.4-1.2-0.7-2.4-1-3.6c-1.1-5.1-1.4-10.4-0.7-15.6c0.8-5.2,2-10.3,3.7-15.2c1.5-4.8,3.1-9.4,4.2-13.9
	c1.9-8,2.4-16.3,1.2-24.4c-0.8-5.5-2.2-10.9-4.3-16c-0.8-1.8-1.4-3.2-1.9-4.1c-0.5-0.9-0.7-1.4-0.7-1.4s0.3,0.5,0.7,1.4
	c0.5,0.9,1.1,2.3,1.9,4.1c2.1,5.1,3.6,10.5,4.4,16c1.2,8.2,0.8,16.5-1.2,24.5c-1.1,4.5-2.7,9.2-4.2,14c-1.7,4.9-2.9,10-3.7,15.1
	c-0.7,5.2-0.5,10.4,0.7,15.5c0.3,1.2,0.6,2.4,1,3.6c0.3,1.2,0.8,2.3,1.5,3.3c0.6,1,1.6,1.7,2.8,1.8c1.1,0,2.2-0.6,2.8-1.6
	c0.6-0.9,1.1-2,1.4-3.1c0.4-1.1,0.7-2.1,0.9-3.2c0.5-2.1,0.9-4.2,1.1-6.3c0.2-2,0.2-4,0.1-5.9c0-1.8-0.4-3.6-0.9-5.4
	c-0.5-1.6-1.8-2.8-3.4-3.2c-1.5-0.1-2.9,0.6-3.8,1.8c-0.8,1-1.3,2.2-1.3,3.5c0,1.1,0.2,2.2,0.7,3.1c0.6,1.4,1.4,2.7,2.3,3.9
	L136.8,678.1z"/>
<path class="st3" d="M146.3,682.4c0.2,1.9,0.2,3.9-0.1,5.8c-0.5,4.7-1.9,9.2-4.2,13.4c-2.7,4.8-6,8.7-9.2,10.5
	c-1.2,0.7-2.7,1.1-4.1,1.2c-0.5,0-1,0-1.6-0.2c0,0,0.6,0.1,1.6,0c1.4-0.1,2.8-0.6,4-1.3c3.1-1.8,6.4-5.7,9.1-10.4
	c2.2-4.1,3.7-8.6,4.2-13.3c0.2-1.4,0.3-2.8,0.3-4.2v-1.2C146.3,682.7,146.3,682.6,146.3,682.4L146.3,682.4z"/>
<path class="st3" d="M128,580.3c0,0-0.1,0.2-0.3,0.7c-0.3,0.7-0.5,1.3-0.7,2c-0.7,2.6-0.8,5.2-0.5,7.8c0.5,3.9,1.6,7.7,3.2,11.2
	c1.7,4.1,4,8.4,5.6,13.2c1.6,4.6,2.1,9.5,1.4,14.3c-0.6,3.9-1.6,7.7-3.2,11.3c-1,2.4-2.2,4.8-3.4,7.2c-0.9,1.6-1.4,2.5-1.4,2.5
	s0.1-0.2,0.3-0.7c0.3-0.5,0.6-1.2,1-1.9c0.8-1.7,2.1-4.1,3.3-7.2c1.5-3.6,2.5-7.4,3.1-11.3c0.7-4.7,0.2-9.6-1.4-14.1
	c-1.6-4.8-3.9-9.1-5.6-13.2c-1.6-3.6-2.7-7.4-3.2-11.3c-0.3-2.6-0.1-5.3,0.6-7.9C127.1,582,127.5,581.1,128,580.3L128,580.3z"/>
<path class="st3" d="M145,624.6c0-0.2,0-0.3,0.1-0.5c0-0.3,0.2-0.8,0.3-1.4c0.3-1.7,0.4-3.5,0.3-5.2c0-4.4-1.3-10.4-3.7-16.8
	c-2.4-6.3-4.8-12-6-16.2c-0.7-2.3-1.2-4.6-1.5-7c0.1,0.2,0.1,0.3,0.1,0.5c0.1,0.3,0.1,0.8,0.3,1.4c0.3,1.2,0.7,2.9,1.4,5
	c1.3,4.2,3.7,9.8,6.1,16.2c2.4,6.3,3.6,12.4,3.6,16.9c0,1.8-0.1,3.5-0.5,5.2C145.3,623.3,145.2,623.9,145,624.6L145,624.6z"/>
<path class="st10" d="M108.5,627.6l-9.1,71.2l31.2,5l19.3-72.3L108.5,627.6z"/>
<path class="st5" d="M100.4,689.4l-0.4,2c0,0-37.8,7.8-39.4,14.3l69.7,11.6l3.4-23C122.3,697.3,111.4,696.1,100.4,689.4L100.4,689.4
	z"/>
<path class="st11" d="M125.2,700.5c1.3,0.6,1.9,2.2,1.4,3.5c-0.6,1.3-2.2,1.9-3.6,1.4c-1.4-0.7-2-2.3-1.4-3.7
	c0.7-1.2,2.8-1.9,3.9-1.1"/>
<path class="st11" d="M130.2,717.3l0.8-5.5l-67.1-9.1c0,0-3.4,0.8-3.4,3L130.2,717.3z"/>
<path class="st3" d="M99.7,691.5c-0.1,0.3,1.6,0.8,3.1,2.1c1.5,1.3,2.1,2.9,2.4,2.8c0.3,0,0.2-2.1-1.6-3.7
	C101.8,691.2,99.7,691.2,99.7,691.5L99.7,691.5z"/>
<path class="st3" d="M91.8,693.3c-0.1,0.3,1.2,1.1,2.1,2.7c0.9,1.6,0.9,3.2,1.3,3.2c0.3,0.1,0.9-1.8-0.2-3.8
	C93.8,693.5,91.9,693,91.8,693.3z"/>
<path class="st3" d="M86,701.2c0.3,0.1,1.1-1.5,0.6-3.4c-0.5-2-2-3-2.2-2.7c-0.2,0.2,0.6,1.4,1,3C85.8,699.7,85.7,701.1,86,701.2z"
	/>
<path class="st10" d="M151.9,628.4l5.1,62.2l28.5-4.1l1.9-61.1L151.9,628.4z"/>
<path class="st5" d="M185.6,674.1c0,0-19.2,15.5-29.8,4.1l-2.1,6l-8.4,42.6c-0.6,2.8,1,5.6,3.7,6.5c2.1,0.6,4.3,0,5.8-1.5
	c7.7-8.3,36-39,35.4-42.9l-0.9-10.2C189.2,676.5,187.7,674.7,185.6,674.1L185.6,674.1z"/>
<path class="st11" d="M150,733.5l40-48.2l0.2,2.2c0.4,2.4-0.6,3.4-1.7,5.1c-3.2,4.9-12.1,15.9-33.5,39.1
	C153.7,733.1,151.9,733.8,150,733.5L150,733.5z"/>
<path class="st11" d="M183.2,679.1c-1.3,1.1-1.6,3-0.6,4.3c1.1,1.3,3,1.6,4.4,0.6c1.3-1,1.8-3.4,0.6-4.6c-1.1-1.2-3.6-1.4-4.7-0.1"
	/>
<path class="st3" d="M160.8,709.5c-0.3,0.2-1.7-2.5-5-3.8c-3.3-1.4-6.2-0.4-6.3-0.7c-0.1-0.1,0.6-0.6,1.9-0.8
	c1.7-0.3,3.4-0.1,4.9,0.5c1.6,0.6,2.9,1.6,3.9,3C160.8,708.7,160.9,709.5,160.8,709.5L160.8,709.5z"/>
<path class="st3" d="M157.5,716.9c-0.2,0.2-2.1-1.3-5-1.9c-2.8-0.6-5.2,0-5.3-0.3c-0.2-0.3,2.4-1.6,5.6-0.8
	C156,714.5,157.7,716.7,157.5,716.9z"/>
<path class="st3" d="M167.4,700c-0.2,0.3-3.1-2.2-7.4-3.5c-4.3-1.4-8.1-0.9-8.2-1.3c-0.1-0.3,3.9-1.3,8.5,0.2
	C165,696.8,167.6,699.8,167.4,700z"/>
<path class="st3" d="M167.4,687.2c-0.1,0.3-3.2-0.7-7.1-0.5c-3.9,0.1-6.9,1.3-7.1,0.9c-0.2-0.2,2.8-2,7-2.1
	C164.4,685.4,167.5,687,167.4,687.2L167.4,687.2z"/>
<path class="st3" d="M158.1,686.7c-0.1-0.7,0-1.4,0.2-2c0.4-1.8,1.2-3.5,2.2-5c0.7-1.2,1.8-2.1,3-2.6c0.9-0.3,1.9,0,2.5,0.8
	c0.5,0.7,0.7,1.6,0.6,2.5c-0.4,3.3-3.8,6.3-7.7,6.3c-3.7,0-7-2.2-8.4-5.6c-0.3-0.8-0.3-1.8,0.1-2.6c0.5-0.8,1.5-1.1,2.4-0.9
	c1.3,0.4,2.4,1.2,3.3,2.2c1.3,1.3,2.4,2.8,3.2,4.5c0.3,0.6,0.6,1.2,0.6,1.9c-0.2,0.1-1.1-2.7-4.4-5.8c-0.8-0.8-1.8-1.5-3-1.8
	c-0.5-0.1-1,0-1.3,0.5c-0.2,0.5-0.2,1.2,0,1.7c1.3,2.9,4.2,4.7,7.3,4.8c3.3,0,6.2-2.6,6.6-5.3c0.1-0.6,0-1.2-0.3-1.7
	c-0.3-0.4-0.9-0.6-1.3-0.4c-1.1,0.4-2,1.2-2.6,2.2C158.4,683.8,158.3,686.8,158.1,686.7z"/>
<path class="st3" d="M273.6,497.4c0,0,15.4,54.7-26.5,64.1l-66.8,0.7L139.9,670l-40.2-2.8l14.7-121c1.7-15.2,12.9-27.5,27.8-30.8
	l86.6-18.9L273.6,497.4z"/>
<path class="st3" d="M148,256.7c-30.5-5.2-33.3,22.3-33.1,30.2c0.2,7.9,2.9,14.9,5.7,22.3s1,17.5-1.3,25.1
	c-2.7,8.8-11.5,17-8.4,25.7c2.4,6.8,11.5,10.2,12.6,17.4c0.9,5.7-3.7,10.6-5.4,16.1c-3.2,10.4,4.1,20.8,11,29.2
	c2.8,3.5,6.3,7.2,10.8,7.3c6.2,0.1,9.9-6.6,12.7-12.1c7.8-15.3,19.2-28.6,33.3-38.5"/>
<path class="st3" d="M79.6,425.2L61.6,407c-0.3-0.3-0.8-0.5-1.3-0.3L39.5,412c-0.7,0.2-1.1,0.9-0.9,1.6c0.1,0.2,0.2,0.4,0.3,0.6
	l34.4,35.9c0,0,25.8-7,25-7.4S79.6,425.2,79.6,425.2z"/>
<path class="st10" d="M55,434.8l0.4-1c0.4-1.1,1.5-1.8,2.7-1.7c4.2,0.2,13.7,0.8,13.7,1.1c0,0.4,0.9,2.9-2.1,3.6
	c-3,0.8-8.4,0.1-8.4,0.1l4.5,5.1l1.4-1.9c0.4-0.4,1.1-0.7,1.7-0.6l7.9,0.9c0,0,0.7,3.1-1.6,3.6c-1.7,0.3-3.5,0.4-5.3,0.2l-0.9,5.8
	l8.3,6.4l-3,4.7l-11-5.6l-1.8-5.6c-0.2-0.6-0.2-1.3,0.1-2l0.6-1.3l-2.1-1.5c-0.9-0.6-1.3-1.6-1.1-2.7l0.3-1.6l-3.5-3.2
	C54.8,437.1,54.5,435.9,55,434.8L55,434.8z"/>
<path class="st10" d="M91.4,451.2l-5.5-4.7l-16.1-2.3l-0.9,5.8l-5.7,5.5l21.8,11L91.4,451.2z"/>
<path class="st10" d="M83.5,426.4c1.2,0.1,2.3-0.3,3.2-1l0.9-0.7c1.4-1.9,3.8-2.8,6.1-2.2l12.4,4.8l13.4,10.8l-6.7,16.8l-23-6
	c-2.5-0.6-4.6-2.2-5.8-4.5l-2.2-3.9c0,0-7.8-3.1-7.2-7.4l-17.2-3.6c-0.6-1.3,0-2.8,1.2-3.3c0.1,0,0.2-0.1,0.3-0.1
	C61.2,425.1,77.9,426.1,83.5,426.4L83.5,426.4z"/>
<path class="st12" d="M87.2,435.6c0,0.2-6.7-1-14.9-2.7s-14.8-3.3-14.8-3.5s6.7,1,14.9,2.7S87.2,435.4,87.2,435.6z"/>
<path class="st12" d="M88,443.6c-0.1,0.2-1.5-0.6-3.2-1.4s-3.1-1.5-3-1.7s1.6,0.1,3.4,1S88.1,443.4,88,443.6z"/>
<path class="st12" d="M72.2,454.1c-0.1,0.1-1.7-1.5-4-3.9l-0.1-0.1l0-0.2c0.3-1.5,0.5-3.1,0.9-5c0.1-0.5,0.5-0.8,0.9-1
	c0.4-0.2,0.8-0.2,1.2-0.3l2-0.1c0.6-0.1,1.2-0.1,1.9,0c0.4,0.1,0.9,0,1.3-0.3c0.5-0.5,0.7-1.2,0.6-1.9c0-0.5-0.2-0.8-0.1-0.8
	c0,0,0.3,0.2,0.4,0.8c0.2,0.8,0,1.7-0.5,2.4c-0.5,0.4-1.1,0.6-1.7,0.5c-0.6,0-1.2,0-1.8,0.1l-2,0.2c-0.7,0.1-1.2,0.2-1.4,0.8
	c-0.4,1.7-0.7,3.4-1,4.9l-0.1-0.3C70.9,452.3,72.3,454,72.2,454.1L72.2,454.1z"/>
<path class="st10" d="M60,434.8c1.4,2.1,10.3,2.4,11.1,2.2c0.7-0.2,1.5,0,2.1,0.4c0.5,0.4,0.7,1.1,0.3,1.7c-0.1,0.2-0.3,0.3-0.5,0.4
	l-8.1,3.4L60,434.8z"/>
<path class="st12" d="M71.4,439.8c0,0.1-0.4,0.1-1.2,0.1c-0.4,0-0.8,0-1.3,0c-0.3,0-0.5,0.1-0.8,0.1c-0.1,0-0.2,0.1-0.3,0.1
	c0,0-0.1,0-0.1,0.1c0,0,0,0.1,0-0.1l-0.1,0.2c-0.5,0.8-1.1,1.7-1.7,2.6c-2.3,3.3-4.6,5.7-4.8,5.5s1.8-2.7,4.1-6l1.8-2.5l-0.1,0.2
	c0.1-0.4,0.2-0.4,0.3-0.5c0.1-0.1,0.2-0.1,0.3-0.1c0.2-0.1,0.3-0.1,0.5-0.1c0.3,0,0.6,0,0.8,0c0.4,0,0.9,0.1,1.3,0.1
	C71,439.6,71.4,439.8,71.4,439.8z"/>
<path class="st12" d="M72,437c0,0.2-3.2,0.4-7.1,0.3c-0.9-0.1-1.8,0-2.6,0.3c-0.6,0.3-1.2,0.7-1.6,1.3c-0.7,1-1,1.8-1.1,1.7
	c0-0.7,0.2-1.4,0.6-2c0.4-0.7,1-1.3,1.8-1.7c0.9-0.3,1.9-0.5,2.9-0.4C68.9,436.5,72.1,436.7,72,437z"/>
<path class="st13" d="M183.4,474.2c3.4,0.4,8.3-1,10.6-3.5c2.2-2.5,4.7-5.2,6.2-8.2c3.1-6.4,8.6-14.9,11.3-20.1
	c0.2,1.5-4.5,16.8-4.9,24.2c-0.2,4,0,8.4,2.5,11.6c1.7,2.2,4.3,3.6,6.2,5.6c3.7,4.2,4,10.3,0.9,14.9c-1.6,2.2-4.5,3.9-7.1,3
	c-1.4-0.6-2.5-1.7-3.1-3.1c-0.6-1.4-1.1-2.8-1.6-4.2c-2.1-6.1-6.3-11.3-11.7-14.8c-2.7-1.7-5.8-4.2-8.8-5.5"/>
<path class="st6" d="M83.8,469.4l34.3,11.5c12.2,4.2,25.7,1.2,35.1-7.7l12.1-11.5l-35.9-9.7l-19.2,2.2l-17.8-5.7L83.8,469.4z"/>
<path class="st2" d="M118.9,463.3c0,0,0.6,0.9,1.5,2.2c2.5,3.5,5.5,6.6,9.1,9c1.4,0.9,2.2,1.4,2.2,1.5c-0.2-0.1-0.4-0.2-0.7-0.3
	c-0.4-0.2-1-0.5-1.7-1c-3.6-2.3-6.8-5.4-9.1-9c-0.4-0.7-0.8-1.3-1-1.7C119.1,463.8,119,463.5,118.9,463.3L118.9,463.3z"/>
<path class="st2" d="M126.3,466.4c-0.3,2.7,0.4,5.4,2,7.5C126.3,472,125.5,469.1,126.3,466.4z"/>
<path class="st2" d="M122.8,463.8c0.1,0,0.1,1.6,0.6,3.4s1.2,3.3,1.1,3.3C123.2,468.6,122.6,466.2,122.8,463.8L122.8,463.8z"/>
<path class="st2" d="M121,470.8c2,0.1,3.9,0.6,5.5,1.7c0,0.1-1.2-0.4-2.8-0.9S121,470.9,121,470.8z"/>
<path class="st2" d="M117.8,466.8c2.4,0.5,4.6,1.8,6.3,3.6c-0.1,0.1-1.3-1-3.1-2C119.3,467.4,117.7,466.9,117.8,466.8z"/>
<path class="st2" d="M121.7,470.9c-0.4-0.4-0.9-0.7-1.5-0.8c-0.2,0-0.4,0-0.5,0.1c-0.1,0.2,0,0.3,0.1,0.4c0.1,0.1,0.3,0.1,0.5,0.1
	c-0.2,0.1-0.5,0.2-0.7,0.4c-0.1,0.1-0.2,0.2-0.1,0.3c0.1,0.1,0.2,0.1,0.3,0.1c0.3,0,0.5-0.1,0.8-0.2c-0.1,0.1-0.2,0.2-0.3,0.3
	s-0.2,0.3-0.1,0.4c0.1,0.1,0.2,0,0.3,0C120.9,471.7,121.3,471.3,121.7,470.9"/>
<path class="st2" d="M122.7,464.3c-0.1,0-0.1,0.1,0,0.2c0,0,0,0,0,0c0.1,0.1,0.2,0,0.3,0c0.1-0.1,0.1-0.1,0.2-0.2
	c0.3-0.5,0.5-1,0.5-1.6c0-0.1,0-0.3-0.1-0.3c-0.1-0.1-0.3,0-0.4,0.1c-0.4,0.3-0.6,0.7-0.6,1.1c0.1-0.4,0.1-0.7,0-1.1
	c0-0.1-0.1-0.3-0.3-0.3s-0.2,0.2-0.2,0.3c-0.1,0.4,0,0.7,0,1.1c-0.1-0.4-0.3-0.7-0.6-0.9c-0.1-0.1-0.2-0.1-0.3,0
	c-0.1,0.1-0.1,0.2-0.1,0.2c0,0.1,0.1,0.2,0.1,0.2c0.4,0.5,0.9,1,1.5,1.4"/>
<path class="st2" d="M118.9,463.3c-0.1,0.1,0,0.2,0.1,0.3c0.1,0,0.2,0,0.3-0.2c0.1-0.1,0.1-0.2,0.1-0.3c0.1-0.7,0-1.4-0.2-2
	c-0.1-0.1-0.1-0.3-0.3-0.3c-0.2,0-0.3,0.1-0.4,0.3c-0.3,0.5-0.3,1,0,1.5c-0.1-0.4-0.3-0.8-0.6-1.2c-0.1-0.1-0.3-0.2-0.4-0.1
	c-0.1,0.1-0.1,0.3-0.1,0.4c0.1,0.4,0.3,0.8,0.6,1.2c-0.3-0.4-0.7-0.6-1.2-0.6c-0.1,0-0.3,0-0.3,0.1c-0.1,0.1,0,0.2,0,0.3
	c0.1,0.1,0.2,0.2,0.3,0.2c0.8,0.4,1.6,0.6,2.4,0.8"/>
<path class="st2" d="M98.5,453.7c0.1,0-0.3,1-0.7,2.6c-1.1,4.2-1.3,8.5-0.9,12.7c0.2,1.6,0.4,2.6,0.3,2.6c-0.1-0.2-0.2-0.5-0.2-0.7
	c-0.1-0.4-0.2-1.1-0.4-1.9c-0.6-4.3-0.3-8.7,0.9-12.8c0.2-0.8,0.4-1.4,0.6-1.9C98.3,454.1,98.4,453.9,98.5,453.7z"/>
<path class="st2" d="M101,461.4c-2.2,1.5-3.8,3.8-4.4,6.4C96.8,465,98.5,462.5,101,461.4z"/>
<path class="st2" d="M100.7,457c0.1,0.1-1.1,1.1-2.2,2.7s-1.7,3-1.8,3C97.4,460.4,98.8,458.4,100.7,457z"/>
<path class="st2" d="M94.3,460.3c1.2,1.5,2,3.4,2.3,5.3c-0.1,0-0.5-1.2-1.1-2.7S94.2,460.3,94.3,460.3z"/>
<path class="st2" d="M95.2,455.2c1.2,2.2,1.7,4.7,1.4,7.2c-0.1,0-0.1-1.6-0.5-3.6S95.1,455.2,95.2,455.2z"/>
<path class="st2" d="M94.6,460.8c0.1-0.6,0-1.2-0.3-1.7c-0.1-0.2-0.3-0.4-0.5-0.3c-0.2,0.1-0.3,0.2-0.2,0.4c0,0.2,0.1,0.3,0.2,0.4
	c-0.2-0.1-0.5-0.2-0.7-0.3c-0.1,0-0.3,0-0.3,0.1c0,0.1,0.1,0.2,0.1,0.3c0.2,0.2,0.4,0.3,0.6,0.5c-0.1,0-0.3,0-0.4-0.1
	s-0.3,0-0.3,0.2c0,0.1,0.1,0.2,0.2,0.2C93.5,460.7,94,460.8,94.6,460.8"/>
<path class="st2" d="M100.3,457.2c-0.1,0-0.2,0.1-0.2,0.2c0,0.1,0.1,0.2,0.2,0.2c0.1,0,0.2,0,0.3,0c0.6-0.1,1.1-0.3,1.6-0.6
	c0.1-0.1,0.2-0.2,0.2-0.3c0-0.1-0.2-0.2-0.3-0.2c-0.4-0.1-0.9,0-1.2,0.3c0.3-0.2,0.6-0.4,0.8-0.7c0.1-0.1,0.1-0.3,0-0.4
	c-0.1-0.1-0.2,0-0.3,0c-0.3,0.2-0.6,0.4-0.8,0.8c0.2-0.3,0.3-0.7,0.2-1.1c0-0.1-0.1-0.2-0.2-0.2c-0.1,0-0.2,0-0.2,0.1
	c-0.1,0.1-0.1,0.2-0.1,0.3c-0.1,0.7-0.1,1.3-0.1,2"/>
<path class="st2" d="M98.6,453.7c-0.1,0-0.2,0.2-0.1,0.3c0.1,0.1,0.2,0.2,0.3,0.1c0.1,0,0.2-0.1,0.3-0.2c0.6-0.4,1-0.9,1.4-1.5
	c0.1-0.1,0.1-0.3,0.1-0.4c-0.1-0.1-0.3-0.2-0.4-0.1c-0.5,0.1-1,0.5-1.2,0.9c0.3-0.4,0.4-0.8,0.5-1.2c0-0.2,0-0.4-0.2-0.4
	c-0.1,0-0.3,0.1-0.4,0.2c-0.2,0.4-0.4,0.8-0.5,1.3c0.1-0.5,0-0.9-0.3-1.3c-0.1-0.1-0.2-0.2-0.3-0.2c-0.1,0-0.2,0.1-0.2,0.2
	c0,0.1,0,0.2,0,0.3c0.2,0.8,0.5,1.6,1,2.3"/>
<path class="st6" d="M249.1,449.2c-5.9-6.8-8.9-15.7-8.3-24.6c0-0.6,0.1-1.1,0.1-1.7c2.2-20.4,6.2-53.8-1.7-70.3
	c-5.2-10.9-37.3-16-37.3-16l-37.2,7.7l-17.1,15c-2.7,2.4-4.5,5.6-5.1,9.2l-15.6,97.4l31.6-2.3l2.4-28.3l3.5,37.3
	c0,0,30,23.4,39.8,27.7s26.8-7.7,39.9-2.4s30.2,0,30.2,0C275.1,482.3,258.3,460.2,249.1,449.2L249.1,449.2z"/>
<path class="st6" d="M220.3,347.9l-47.8,86.6l-51.6,0.9l-8.8,22l66.7,15.4c7.6,1.3,13.5,0.3,18.4-5.7l43.9-81.9
	C241.2,385.3,244.7,348.9,220.3,347.9L220.3,347.9z"/>
<path class="st13" d="M90.1,454.1c0,0,8.5,2.2,13.8,3.6c2.4,0.6,3.9,3,3.5,5.4c-0.5,2.6,1.2,5,3.8,5.5c0.1,0,0.1,0,0.2,0
	c11.7,1.6,40.6,5.5,41.2,5c0.7-0.6,5.6-5.7,5.6-5.7l-46.1-10.6l0.7-2.7l-20.8-5.4L90.1,454.1z"/>
<path class="st3" d="M162.5,434.7c-0.3-0.4-0.5-0.9-0.7-1.4c-0.4-1.1-0.9-2.4-1.6-3.9l0.1,0.1c-2.5-2-4.5-4.5-5.9-7.3
	c-1.8-3.8-2.7-7.9-2.5-12.1c0-3.8,0.4-7.4,0.5-10.7c0.2-2.9,0-5.8-0.5-8.6c-0.5-2.6-1.5-5.1-2.8-7.4c0,0,0.2,0.1,0.4,0.4
	c0.3,0.4,0.6,0.9,0.9,1.3c1,1.7,1.7,3.6,2.1,5.5c0.6,2.9,0.8,5.8,0.7,8.7c-0.1,3.3-0.4,6.9-0.4,10.7c-0.1,4.1,0.7,8.1,2.4,11.8
	c1.3,2.8,3.2,5.3,5.6,7.3l0.1,0l0,0.1c0.5,1.6,1,3,1.4,4C162.3,433.7,162.4,434.2,162.5,434.7L162.5,434.7z"/>
<path class="st3" d="M236.7,450.7c0.2,0.6,0.2,1.1,0.2,1.7c0.1,1.6,0.1,3.2-0.1,4.7c-1.1,10.6-7.3,20-16.6,25.2
	c-1.4,0.8-2.8,1.4-4.3,2c-0.5,0.2-1.1,0.4-1.7,0.5c-0.1-0.1,2.3-0.9,5.7-2.9c8.9-5.3,15-14.4,16.3-24.8
	C236.8,453.2,236.5,450.7,236.7,450.7L236.7,450.7z"/>
<g>
	<path class="st2" d="M217.1,377.7c-0.1,0.3-0.3,0.5-0.5,0.8c-0.3,0.5-0.8,1.2-1.3,2.2c-2.8,4.8-4.7,10.1-5.5,15.6
		c-0.2,1.1-0.3,1.9-0.3,2.5c0,0.3-0.1,0.6-0.1,0.9c0-0.3,0-0.6,0-0.9c0-0.6,0.1-1.5,0.2-2.5c0.8-5.6,2.7-10.9,5.6-15.7
		c0.6-0.9,1-1.6,1.4-2.1C216.7,378.2,216.9,378,217.1,377.7L217.1,377.7z"/>
	<path class="st2" d="M217.6,388.2c-3.3,1.1-6.1,3.4-7.7,6.5c0.1-0.5,0.3-1,0.6-1.4c1.3-2.2,3.2-3.9,5.6-4.8
		C216.5,388.3,217,388.2,217.6,388.2L217.6,388.2z"/>
	<path class="st2" d="M218.6,382.6c0,0.1-1.8,1-3.7,2.6c-1.9,1.6-3.2,3.2-3.3,3.1c0.2-0.4,0.5-0.8,0.8-1.1c1.4-1.7,3.1-3,5-4
		C217.8,382.9,218.2,382.7,218.6,382.6z"/>
	<path class="st2" d="M209.5,384.4c0.9,2.4,1.3,4.9,1.1,7.4c-0.1,0-0.1-1.7-0.4-3.7S209.4,384.5,209.5,384.4L209.5,384.4z"/>
	<path class="st2" d="M212.4,378.4c0.2,0.4,0.2,0.9,0.3,1.4c0.2,2.3,0.1,4.5-0.5,6.7c-0.1,0.5-0.2,0.9-0.5,1.3
		c-0.1,0,0.5-2.1,0.7-4.7C212.6,380.5,212.3,378.4,212.4,378.4z"/>
	<path class="st2" d="M209.8,385.2c0.3-0.7,0.4-1.5,0.2-2.2c-0.1-0.2-0.2-0.5-0.5-0.5c-0.2,0-0.4,0.2-0.4,0.4c0,0.2,0,0.4,0.1,0.6
		c-0.2-0.2-0.5-0.4-0.8-0.6c-0.1-0.1-0.3-0.1-0.4,0s0,0.3,0.1,0.4c0.2,0.3,0.4,0.6,0.6,0.8c-0.2,0-0.3-0.2-0.5-0.3s-0.4-0.1-0.5,0.1
		c0,0.1,0.1,0.3,0.2,0.4C208.4,384.7,209,385,209.8,385.2"/>
	<path class="st2" d="M218.1,382.7c-0.1-0.1-0.2,0-0.3,0c0,0,0,0,0,0.1c0,0.1,0.1,0.3,0.2,0.3c0.1,0.1,0.2,0.1,0.4,0.1
		c0.7,0.1,1.5,0,2.2-0.2c0.1-0.1,0.3-0.1,0.3-0.3s-0.1-0.3-0.3-0.4c-0.5-0.3-1.1-0.3-1.6,0c0.5-0.1,0.9-0.3,1.2-0.6
		c0.1-0.1,0.3-0.3,0.2-0.5s-0.3-0.1-0.4-0.1c-0.5,0.1-0.9,0.4-1.3,0.7c0.4-0.3,0.6-0.7,0.7-1.2c0-0.1,0-0.3-0.1-0.4
		c-0.1-0.1-0.2,0-0.3,0c-0.1,0.1-0.2,0.2-0.2,0.3c-0.4,0.8-0.7,1.6-0.8,2.5"/>
	<path class="st2" d="M217.2,377.8c-0.1,0-0.3,0.1-0.3,0.3c0,0.2,0.2,0.3,0.4,0.3c0.2,0,0.3,0,0.4-0.1c0.8-0.3,1.6-0.8,2.3-1.4
		c0.2-0.1,0.2-0.3,0.2-0.5c-0.1-0.2-0.3-0.3-0.5-0.3c-0.7,0-1.4,0.2-1.8,0.8c0.5-0.4,0.8-0.8,1-1.4c0.1-0.2,0.1-0.5-0.1-0.6
		c-0.2-0.1-0.4,0-0.5,0.1c-0.4,0.4-0.8,0.9-1.1,1.4c0.3-0.5,0.3-1.2,0.1-1.8c-0.1-0.2-0.2-0.3-0.3-0.3c-0.2,0-0.3,0.1-0.4,0.2
		c-0.1,0.1-0.1,0.3-0.1,0.4c0,1.1,0.1,2.2,0.4,3.2"/>
	<path class="st2" d="M173.2,404.7c-0.1,0.3-0.3,0.5-0.5,0.8c-0.3,0.5-0.8,1.2-1.3,2.2c-2.8,4.8-4.7,10.1-5.5,15.6
		c-0.2,1.1-0.3,1.9-0.3,2.5c0,0.3-0.1,0.6-0.1,0.9c0-0.3,0-0.6,0-0.9c0-0.6,0.1-1.5,0.2-2.5c0.8-5.6,2.7-10.9,5.6-15.7
		c0.6-0.9,1-1.6,1.4-2.1C172.8,405.2,173,404.9,173.2,404.7z"/>
	<path class="st2" d="M173.6,415.1c-3.3,1.1-6.1,3.4-7.7,6.5c0.1-0.5,0.3-1,0.6-1.4c1.3-2.2,3.2-3.9,5.6-4.8
		C172.6,415.3,173.1,415.1,173.6,415.1z"/>
	<path class="st2" d="M174.7,409.6c0,0.1-1.8,1-3.7,2.6s-3.2,3.2-3.3,3.1c0.2-0.4,0.5-0.8,0.8-1.1c1.4-1.7,3.1-3,5-4
		C173.8,409.8,174.3,409.7,174.7,409.6z"/>
	<path class="st2" d="M165.5,411.4c0.9,2.4,1.3,4.9,1.1,7.4c-0.1,0-0.1-1.7-0.4-3.7S165.4,411.4,165.5,411.4z"/>
	<path class="st2" d="M168.5,405.3c0.2,0.4,0.2,0.9,0.3,1.4c0.2,2.3,0.1,4.5-0.5,6.7c-0.1,0.5-0.2,0.9-0.5,1.3
		c-0.1,0,0.5-2.1,0.7-4.7C168.6,407.5,168.4,405.3,168.5,405.3L168.5,405.3z"/>
	<path class="st2" d="M165.8,412.1c0.3-0.7,0.4-1.5,0.2-2.2c-0.1-0.2-0.2-0.5-0.5-0.5c-0.2,0-0.4,0.2-0.4,0.4c0,0.2,0,0.4,0.1,0.6
		c-0.2-0.2-0.5-0.4-0.8-0.6c-0.1-0.1-0.3-0.1-0.4,0c-0.1,0.1,0,0.3,0.1,0.4c0.2,0.3,0.4,0.6,0.6,0.8c-0.2,0-0.3-0.2-0.5-0.3
		c-0.2-0.1-0.4-0.1-0.5,0.1c0,0.1,0.1,0.3,0.2,0.4C164.4,411.6,165.1,411.9,165.8,412.1"/>
	<path class="st2" d="M174.2,409.7c-0.1-0.1-0.2,0-0.3,0.1c0,0,0,0,0,0.1c0,0.1,0.1,0.3,0.2,0.3c0.1,0.1,0.2,0.1,0.4,0.1
		c0.7,0.1,1.5,0,2.2-0.2c0.1-0.1,0.3-0.1,0.3-0.3s-0.1-0.3-0.3-0.4c-0.5-0.3-1.1-0.3-1.6,0c0.5-0.1,0.9-0.3,1.2-0.6
		c0.1-0.1,0.3-0.3,0.2-0.5s-0.3-0.1-0.4-0.1c-0.5,0.1-0.9,0.4-1.3,0.7c0.4-0.3,0.6-0.7,0.7-1.2c0-0.1,0-0.3-0.1-0.4
		c-0.1-0.1-0.2,0-0.3,0c-0.1,0.1-0.2,0.2-0.2,0.3c-0.4,0.8-0.7,1.6-0.8,2.5"/>
	<path class="st2" d="M173.2,404.7c-0.1,0-0.3,0.1-0.3,0.3c0,0.2,0.2,0.3,0.4,0.3c0.2,0,0.3,0,0.5-0.1c0.8-0.3,1.6-0.8,2.3-1.4
		c0.2-0.1,0.2-0.3,0.2-0.5c-0.1-0.2-0.3-0.3-0.5-0.3c-0.7,0-1.4,0.2-1.8,0.8c0.5-0.4,0.8-0.8,1-1.4c0.1-0.2,0.1-0.5-0.1-0.6
		c-0.2-0.1-0.4,0-0.5,0.1c-0.4,0.4-0.8,0.9-1.1,1.4c0.3-0.5,0.3-1.2,0.1-1.8c-0.1-0.2-0.2-0.3-0.3-0.3c-0.2,0-0.3,0.1-0.4,0.2
		c-0.1,0.1-0.1,0.3-0.1,0.4c0,1.1,0.1,2.2,0.4,3.2"/>
	<path class="st2" d="M175.3,452c0.3-0.1,0.6-0.1,0.9-0.1c0.6,0,1.5-0.1,2.5-0.2c5.5-0.6,10.9-2.3,15.8-4.9c0.9-0.5,1.7-0.9,2.2-1.2
		c0.3-0.2,0.5-0.3,0.8-0.4c-0.2,0.2-0.5,0.4-0.8,0.5c-0.5,0.3-1.2,0.8-2.2,1.3c-4.9,2.7-10.3,4.4-15.9,4.9c-1.1,0.1-1.9,0.1-2.5,0.1
		C175.9,452,175.6,452,175.3,452L175.3,452z"/>
	<path class="st2" d="M183.4,445.4c2.8,2,6.4,2.9,9.8,2.3c-0.5,0.2-1,0.3-1.5,0.4c-2.5,0.3-5-0.3-7.2-1.7
		C184.1,446.1,183.7,445.8,183.4,445.4L183.4,445.4z"/>
	<path class="st2" d="M178.3,447.8c0-0.1,1.9,0.8,4.3,1.4c2.4,0.6,4.4,0.7,4.4,0.8c-0.4,0.1-0.9,0.1-1.3,0c-2.2-0.1-4.3-0.7-6.2-1.6
		C179,448.3,178.6,448.1,178.3,447.8z"/>
	<path class="st2" d="M185.2,454.1c1.3-2.2,3.2-4,5.3-5.3c0.1,0.1-1.3,1.1-2.7,2.6C186.3,452.8,185.3,454.1,185.2,454.1L185.2,454.1
		z"/>
	<path class="st2" d="M178.6,455.4c0.3-0.4,0.6-0.7,1-1c1.7-1.5,3.6-2.8,5.7-3.6c0.4-0.2,0.9-0.3,1.3-0.4c0,0.1-2,0.8-4.2,2.2
		C180.2,453.9,178.7,455.4,178.6,455.4L178.6,455.4z"/>
	<path class="st2" d="M185.7,453.4c-0.7,0.2-1.4,0.6-1.9,1.2c-0.2,0.2-0.3,0.5-0.2,0.7c0.1,0.2,0.4,0.2,0.6,0.1
		c0.2-0.1,0.3-0.3,0.4-0.4c0,0.3,0,0.7,0,1c0,0.2,0.1,0.3,0.3,0.3s0.2-0.2,0.3-0.3c0.1-0.3,0.2-0.7,0.3-1c0.1,0.2,0.1,0.4,0.1,0.5
		s0.2,0.4,0.3,0.3c0.1-0.1,0.2-0.2,0.2-0.4c0-0.7-0.2-1.3-0.4-2"/>
	<path class="st2" d="M178.7,448.2c0,0.1,0.2,0.2,0.3,0.2c0.1-0.1,0.2-0.2,0.1-0.3c0-0.1-0.1-0.2-0.2-0.3c-0.4-0.6-0.9-1.2-1.5-1.6
		c-0.1-0.1-0.3-0.1-0.4-0.1c-0.2,0.1-0.2,0.3-0.1,0.5c0.1,0.6,0.4,1.1,0.9,1.3c-0.4-0.3-0.8-0.5-1.2-0.6c-0.2,0-0.4,0-0.5,0.1
		c-0.1,0.2,0.1,0.3,0.2,0.4c0.4,0.3,0.8,0.5,1.3,0.6c-0.5-0.2-1-0.1-1.4,0.2c-0.1,0.1-0.2,0.2-0.2,0.3c0,0.1,0.1,0.2,0.2,0.2
		c0.1,0,0.2,0,0.4,0c0.9-0.1,1.7-0.4,2.5-0.9"/>
	<path class="st2" d="M175.3,451.9c0,0.1,0.3,0.2,0.4,0c0.1-0.1,0.1-0.3,0-0.4c-0.1-0.1-0.2-0.2-0.4-0.3c-0.7-0.5-1.6-0.8-2.5-1
		c-0.2-0.1-0.4,0-0.5,0.1c-0.1,0.2-0.1,0.4,0.1,0.6c0.4,0.6,1,0.9,1.7,1c-0.6-0.2-1.1-0.2-1.7,0c-0.2,0.1-0.5,0.2-0.4,0.4
		c0,0.2,0.2,0.3,0.4,0.3c0.6,0.1,1.2,0.1,1.8,0c-0.6,0.1-1.1,0.4-1.5,1c-0.1,0.1-0.1,0.3-0.1,0.5c0.1,0.1,0.2,0.2,0.4,0.1
		c0.1,0,0.3-0.1,0.4-0.2c0.9-0.6,1.7-1.4,2.3-2.3"/>
	<path class="st2" d="M223.9,486.4c0.3,0.1,0.6,0.1,0.9,0.3c0.6,0.2,1.4,0.4,2.4,0.7c5.4,1.5,11,2,16.5,1.5c1.1-0.1,1.9-0.2,2.5-0.3
		c0.3-0.1,0.6-0.1,0.9-0.1c-0.3,0.1-0.6,0.2-0.9,0.2c-0.6,0.1-1.4,0.3-2.5,0.4c-5.6,0.6-11.2,0.1-16.6-1.5c-1-0.3-1.8-0.6-2.4-0.8
		C224.5,486.7,224.2,486.6,223.9,486.4L223.9,486.4z"/>
	<path class="st2" d="M233.9,483.4c1.9,3,4.8,5.1,8.2,5.8c-0.5,0-1-0.1-1.5-0.2c-2.4-0.7-4.6-2.2-6-4.2
		C234.3,484.3,234.1,483.9,233.9,483.4L233.9,483.4z"/>
	<path class="st2" d="M228.3,483.7c0.1-0.1,1.4,1.5,3.4,3s3.9,2.3,3.8,2.4c-0.4-0.1-0.9-0.2-1.2-0.5c-1.9-0.9-3.7-2.2-5.2-3.8
		C228.8,484.5,228.5,484.1,228.3,483.7L228.3,483.7z"/>
	<path class="st2" d="M232.3,492.1c2.1-1.5,4.4-2.5,6.9-2.9c0,0.1-1.6,0.5-3.5,1.3C233.9,491.4,232.4,492.2,232.3,492.1L232.3,492.1
		z"/>
	<path class="st2" d="M225.7,490.8c0.4-0.3,0.8-0.5,1.3-0.6c2.1-0.8,4.4-1.2,6.7-1.2c0.5,0,0.9,0,1.4,0.1c0,0.1-2.1,0-4.7,0.5
		C227.8,490.1,225.8,490.9,225.7,490.8L225.7,490.8z"/>
	<path class="st2" d="M233,491.7c-0.7-0.1-1.5,0-2.2,0.4c-0.2,0.1-0.5,0.3-0.4,0.6c0.1,0.2,0.3,0.3,0.5,0.3c0.2,0,0.4-0.1,0.6-0.2
		c-0.2,0.3-0.3,0.6-0.4,0.9c0,0.1,0,0.3,0.1,0.4c0.1,0.1,0.3-0.1,0.4-0.2c0.2-0.3,0.4-0.5,0.6-0.8c0,0.2-0.1,0.4-0.1,0.5
		s0,0.4,0.2,0.4c0.1,0,0.2-0.2,0.3-0.3c0.2-0.6,0.4-1.3,0.3-2"/>
	<path class="st2" d="M228.6,484.2c-0.1,0.1,0.1,0.3,0.2,0.3c0.1,0,0.2-0.1,0.3-0.2c0-0.1,0-0.3,0-0.4c-0.1-0.7-0.4-1.4-0.8-2
		c-0.1-0.1-0.2-0.3-0.4-0.3c-0.2,0-0.3,0.2-0.3,0.4c-0.1,0.6,0,1.1,0.4,1.6c-0.2-0.4-0.5-0.8-0.9-1c-0.1-0.1-0.4-0.2-0.5,0
		s0,0.3,0,0.4c0.2,0.4,0.6,0.8,0.9,1.1c-0.4-0.3-0.9-0.4-1.4-0.3c-0.1,0-0.3,0.1-0.3,0.2c0,0.1,0,0.2,0.1,0.3
		c0.1,0.1,0.2,0.1,0.3,0.1c0.9,0.2,1.7,0.2,2.6,0.1"/>
	<path class="st2" d="M224,486.4c0,0.2,0.2,0.3,0.3,0.2c0.1-0.1,0.2-0.2,0.2-0.4c0-0.2-0.1-0.3-0.2-0.4c-0.5-0.7-1.2-1.4-1.9-1.8
		c-0.2-0.1-0.4-0.2-0.6-0.1c-0.2,0.1-0.2,0.4-0.2,0.6c0.1,0.7,0.6,1.3,1.2,1.5c-0.5-0.4-1-0.6-1.6-0.6c-0.2,0-0.5,0-0.6,0.2
		c-0.1,0.2,0.1,0.4,0.3,0.5c0.5,0.3,1,0.6,1.6,0.7c-0.6-0.2-1.2,0-1.7,0.4c-0.1,0.1-0.2,0.2-0.2,0.4c0,0.1,0.1,0.3,0.3,0.3
		c0.2,0,0.3,0,0.4,0c1.1-0.2,2.1-0.7,3-1.2"/>
	<path class="st2" d="M202.8,414.1c0.1,0,0.1,1,0.2,2.7c0.4,4.3,1.6,8.4,3.4,12.3c0.7,1.5,1.2,2.4,1.2,2.4c-0.2-0.2-0.3-0.4-0.4-0.6
		c-0.3-0.4-0.6-1-1-1.7c-2-3.8-3.2-8.1-3.5-12.4c0-0.8-0.1-1.5,0-2C202.7,414.6,202.7,414.4,202.8,414.1L202.8,414.1z"/>
	<path class="st2" d="M207.7,420.5c-1.6,2.2-2.3,4.9-2,7.5C205,425.4,205.7,422.5,207.7,420.5z"/>
	<path class="st2" d="M205.9,416.5c0.1,0-0.6,1.4-1.2,3.3s-0.6,3.4-0.7,3.4C203.9,420.8,204.6,418.5,205.9,416.5L205.9,416.5z"/>
	<path class="st2" d="M201,421.8c1.7,1,3,2.5,4,4.2c-0.1,0.1-0.9-1-1.9-2.1S200.9,421.8,201,421.8L201,421.8z"/>
	<path class="st2" d="M200.1,416.6c1.8,1.7,3.2,3.9,3.7,6.3c-0.1,0-0.6-1.5-1.7-3.3S200,416.7,200.1,416.6L200.1,416.6z"/>
	<path class="st2" d="M201.5,422.1c-0.1-0.6-0.4-1.1-0.9-1.5c-0.1-0.1-0.4-0.2-0.5-0.1c-0.1,0.1-0.2,0.3-0.1,0.4
		c0.1,0.1,0.2,0.3,0.3,0.4c-0.3,0-0.5,0-0.8,0c-0.1,0-0.3,0.1-0.3,0.2c0,0.1,0.1,0.2,0.2,0.2c0.2,0.1,0.5,0.2,0.8,0.2
		c-0.1,0.1-0.3,0-0.4,0.1c-0.1,0-0.3,0.1-0.3,0.3c0,0.1,0.2,0.1,0.3,0.1C200.4,422.4,200.9,422.3,201.5,422.1"/>
	<path class="st2" d="M205.6,416.9c-0.1,0-0.2,0.1-0.1,0.2c0,0.1,0.1,0.1,0.2,0.1c0.1,0,0.2-0.1,0.3-0.1c0.5-0.3,0.9-0.7,1.3-1.1
		c0.1-0.1,0.1-0.2,0.1-0.3c-0.1-0.1-0.2-0.1-0.4-0.1c-0.4,0.1-0.8,0.3-1,0.7c0.2-0.3,0.4-0.6,0.5-0.9c0-0.1,0-0.3-0.1-0.4
		s-0.2,0.1-0.3,0.1c-0.2,0.3-0.4,0.6-0.5,1c0.1-0.4,0.1-0.8-0.1-1.1c0-0.1-0.1-0.2-0.2-0.2c-0.1,0-0.2,0.1-0.2,0.2
		c0,0.1,0,0.2,0,0.3c0.1,0.7,0.3,1.3,0.6,1.9"/>
	<path class="st2" d="M202.8,414.1c-0.1,0-0.1,0.2,0,0.3c0.1,0.1,0.2,0.1,0.3,0c0.1-0.1,0.2-0.2,0.2-0.3c0.4-0.6,0.7-1.2,0.8-1.9
		c0-0.1,0-0.3-0.1-0.4c-0.1-0.1-0.3-0.1-0.5,0c-0.5,0.3-0.7,0.8-0.8,1.3c0.1-0.4,0.1-0.9,0-1.3c0-0.2-0.1-0.4-0.3-0.3
		c-0.2,0-0.2,0.2-0.3,0.3c-0.1,0.4-0.1,0.9,0,1.4c-0.1-0.5-0.3-0.9-0.7-1.1c-0.1-0.1-0.2-0.1-0.4-0.1c-0.1,0.1-0.1,0.2-0.1,0.3
		c0,0.1,0.1,0.2,0.1,0.3c0.5,0.7,1,1.3,1.7,1.8"/>
	<path class="st2" d="M186.1,415.9c0,0-0.7,0.8-1.7,2.1c-2.7,3.4-4.7,7.2-6,11.2c-0.5,1.6-0.7,2.6-0.8,2.5c0-0.2,0-0.5,0.1-0.7
		c0.1-0.5,0.2-1.1,0.5-1.9c1.2-4.2,3.3-8,6.1-11.3c0.5-0.6,1-1.1,1.3-1.4C185.8,416.2,185.9,416,186.1,415.9L186.1,415.9z"/>
	<path class="st2" d="M185.3,423.9c-2.6,0.5-5,1.9-6.6,4.1C179.9,425.5,182.5,423.9,185.3,423.9z"/>
	<path class="st2" d="M186.7,419.8c0,0.1-1.5,0.6-3.1,1.5c-1.6,1-2.8,2-2.9,2C182.3,421.5,184.4,420.2,186.7,419.8L186.7,419.8z"/>
	<path class="st2" d="M179.6,420.1c0.5,1.9,0.5,3.9-0.1,5.8c-0.1,0,0.1-1.3,0.1-2.9S179.5,420.1,179.6,420.1z"/>
	<path class="st2" d="M182.5,415.8c0.2,2.5-0.4,5-1.7,7.1c-0.1,0,0.6-1.5,1-3.5S182.4,415.8,182.5,415.8L182.5,415.8z"/>
	<path class="st2" d="M186.3,419.8c-0.1-0.1-0.2-0.1-0.2,0c0,0,0,0,0,0c0,0.1,0,0.2,0.1,0.3c0.1,0.1,0.2,0.1,0.3,0.1
		c0.6,0.1,1.1,0.2,1.7,0.1c0.1,0,0.3-0.1,0.3-0.2s-0.1-0.3-0.2-0.3c-0.4-0.3-0.8-0.3-1.2-0.2c0.4,0,0.7-0.1,1-0.3
		c0.1-0.1,0.2-0.2,0.2-0.3s-0.2-0.1-0.3-0.1c-0.4,0-0.7,0.2-1.1,0.3c0.3-0.2,0.6-0.5,0.6-0.9c0-0.1,0-0.2-0.1-0.3
		c-0.1-0.1-0.2-0.1-0.3,0c-0.1,0.1-0.1,0.1-0.2,0.2c-0.4,0.5-0.7,1.2-0.9,1.8"/>
	<path class="st2" d="M186.2,415.9c-0.1-0.1-0.2,0.1-0.2,0.2c0,0.1,0.1,0.2,0.2,0.2c0.1,0,0.2,0,0.4,0c0.7-0.1,1.3-0.4,1.9-0.8
		c0.1-0.1,0.2-0.2,0.2-0.4c0-0.2-0.2-0.3-0.4-0.3c-0.5-0.1-1.1,0-1.5,0.4c0.4-0.2,0.7-0.5,0.9-0.9c0.1-0.1,0.1-0.4,0-0.5
		s-0.3,0-0.4,0c-0.4,0.2-0.7,0.6-1,0.9c0.3-0.4,0.4-0.9,0.3-1.3c0-0.1-0.1-0.2-0.2-0.3c-0.1,0-0.2,0-0.3,0.1
		c-0.1,0.1-0.1,0.2-0.1,0.3c-0.2,0.8-0.2,1.7,0,2.5"/>
	<path class="st2" d="M206,345.6c0,0-0.7,0.8-1.7,2.1c-2.7,3.4-4.7,7.2-6,11.2c-0.5,1.6-0.7,2.6-0.8,2.5c0-0.2,0-0.5,0.1-0.7
		c0.1-0.5,0.2-1.1,0.5-1.9c1.2-4.2,3.3-8,6.1-11.3c0.5-0.6,1-1.1,1.3-1.4C205.7,345.9,205.8,345.7,206,345.6L206,345.6z"/>
	<path class="st2" d="M205.2,353.6c-2.6,0.5-5,1.9-6.6,4.1C199.8,355.2,202.4,353.6,205.2,353.6z"/>
	<path class="st2" d="M206.6,349.5c0,0.1-1.5,0.6-3.1,1.5s-2.8,2-2.9,2C202.2,351.2,204.3,350,206.6,349.5L206.6,349.5z"/>
	<path class="st2" d="M199.4,349.8c0.5,1.9,0.5,3.9-0.1,5.8c-0.1,0,0.1-1.3,0.1-2.9S199.3,349.8,199.4,349.8z"/>
	<path class="st2" d="M202.4,345.5c0.2,2.5-0.4,5-1.7,7.1c-0.1,0,0.6-1.5,1-3.5C202.2,347.2,202.3,345.5,202.4,345.5L202.4,345.5z"
		/>
	<path class="st2" d="M206.2,349.5c-0.1-0.1-0.2-0.1-0.2,0c0,0,0,0,0,0c0,0.1,0,0.2,0.1,0.3c0.1,0.1,0.2,0.1,0.3,0.1
		c0.6,0.1,1.1,0.2,1.7,0.1c0.1,0,0.3-0.1,0.3-0.2s-0.1-0.3-0.2-0.3c-0.4-0.3-0.8-0.3-1.2-0.2c0.4,0,0.7-0.1,1-0.3
		c0.1-0.1,0.2-0.2,0.2-0.3c-0.1-0.1-0.2-0.1-0.3-0.1c-0.4,0-0.7,0.2-1,0.3c0.3-0.2,0.6-0.5,0.6-0.9c0-0.1,0-0.2-0.1-0.3
		c-0.1-0.1-0.2-0.1-0.3,0c-0.1,0.1-0.1,0.1-0.2,0.2c-0.4,0.5-0.7,1.2-0.9,1.8"/>
	<path class="st2" d="M206.1,345.6c-0.1-0.1-0.2,0.1-0.2,0.2c0,0.1,0.1,0.2,0.2,0.2c0.1,0,0.2,0,0.4,0c0.7-0.1,1.3-0.4,1.9-0.8
		c0.1-0.1,0.2-0.2,0.2-0.4c0-0.2-0.2-0.3-0.4-0.3c-0.5-0.1-1.1,0-1.5,0.4c0.4-0.2,0.7-0.5,0.9-0.9c0.1-0.1,0.1-0.4,0-0.5
		c-0.1-0.1-0.3,0-0.4,0c-0.4,0.2-0.7,0.6-1,0.9c0.3-0.4,0.4-0.9,0.3-1.3c0-0.1-0.1-0.2-0.2-0.3c-0.1,0-0.2,0-0.3,0.1
		c-0.1,0.1-0.1,0.2-0.1,0.3c-0.2,0.8-0.2,1.7,0,2.5"/>
	<path class="st2" d="M144.7,443c0.1,0,0.1,1,0.2,2.7c0.4,4.3,1.6,8.4,3.4,12.3c0.7,1.5,1.2,2.4,1.2,2.4c-0.2-0.2-0.3-0.4-0.4-0.6
		c-0.3-0.4-0.6-1-1-1.7c-2-3.8-3.2-8.1-3.5-12.4c0-0.8-0.1-1.5,0-2C144.6,443.4,144.6,443.2,144.7,443z"/>
	<path class="st2" d="M149.6,449.3c-1.6,2.2-2.3,4.9-2,7.5C146.9,454.2,147.6,451.3,149.6,449.3z"/>
	<path class="st2" d="M147.8,445.4c0.1,0-0.7,1.4-1.2,3.3c-0.5,1.8-0.6,3.4-0.7,3.4C145.8,449.7,146.5,447.3,147.8,445.4
		L147.8,445.4z"/>
	<path class="st2" d="M142.9,450.6c1.7,1,3,2.5,4,4.2c-0.1,0.1-0.9-1-1.9-2.1C143.8,451.5,142.8,450.7,142.9,450.6z"/>
	<path class="st2" d="M142,445.5c1.9,1.7,3.2,3.9,3.7,6.3c-0.1,0-0.6-1.5-1.7-3.3C143,446.8,141.9,445.5,142,445.5L142,445.5z"/>
	<path class="st2" d="M143.4,450.9c-0.1-0.6-0.4-1.1-0.9-1.5c-0.1-0.1-0.4-0.2-0.5-0.1c-0.1,0.1-0.2,0.3-0.1,0.4
		c0.1,0.1,0.2,0.3,0.3,0.4c-0.3,0-0.5,0-0.8,0c-0.1,0-0.3,0.1-0.3,0.2c0,0.1,0.1,0.2,0.2,0.2c0.2,0.1,0.5,0.2,0.8,0.2
		c-0.1,0.1-0.3,0-0.4,0.1c-0.1,0-0.3,0.1-0.3,0.3c0,0.1,0.2,0.1,0.3,0.1C142.3,451.2,142.8,451.1,143.4,450.9"/>
	<path class="st2" d="M147.5,445.7c-0.1,0-0.1,0.1-0.1,0.2c0,0,0,0,0,0.1c0,0.1,0.1,0.1,0.2,0.1c0.1,0,0.2-0.1,0.3-0.1
		c0.5-0.3,0.9-0.7,1.3-1.1c0.1-0.1,0.1-0.2,0.1-0.3c-0.1-0.1-0.2-0.1-0.4-0.1c-0.4,0.1-0.8,0.3-1,0.7c0.2-0.3,0.4-0.6,0.5-0.9
		c0-0.1,0-0.3-0.1-0.4c-0.1,0-0.2,0.1-0.3,0.1c-0.2,0.3-0.4,0.6-0.5,1c0.1-0.4,0.1-0.8-0.1-1.1c0-0.1-0.1-0.2-0.2-0.2
		c-0.1,0-0.2,0.1-0.2,0.2c0,0.1,0,0.2,0,0.3c0.1,0.7,0.3,1.3,0.6,1.9"/>
	<path class="st2" d="M144.7,443c-0.1,0-0.1,0.2,0,0.3c0.1,0.1,0.2,0.1,0.3,0c0.1-0.1,0.2-0.2,0.2-0.3c0.4-0.6,0.7-1.2,0.8-1.9
		c0-0.1,0-0.3-0.1-0.4c-0.1-0.1-0.3-0.1-0.5,0c-0.5,0.3-0.7,0.8-0.8,1.3c0.1-0.4,0.1-0.9,0-1.3c0-0.2-0.1-0.4-0.3-0.3
		c-0.1,0-0.2,0.2-0.3,0.3c-0.1,0.4-0.1,0.9,0,1.4c-0.1-0.5-0.3-0.9-0.7-1.1c-0.1-0.1-0.2-0.1-0.4-0.1c-0.1,0.1-0.1,0.2-0.1,0.3
		c0,0.1,0.1,0.2,0.1,0.3c0.5,0.7,1,1.3,1.7,1.8"/>
	<path class="st2" d="M221.3,451c0.1,0,0.1,1,0.2,2.7c0.4,4.3,1.6,8.4,3.4,12.3c0.7,1.5,1.2,2.4,1.2,2.4c-0.2-0.2-0.3-0.4-0.4-0.6
		c-0.3-0.4-0.6-1-1-1.7c-2-3.8-3.2-8.1-3.5-12.4c0-0.8-0.1-1.5,0-2C221.2,451.5,221.2,451.3,221.3,451L221.3,451z"/>
	<path class="st2" d="M226.2,457.4c-1.6,2.2-2.3,4.9-2,7.5C223.4,462.3,224.2,459.4,226.2,457.4z"/>
	<path class="st2" d="M224.4,453.5c0.1,0-0.7,1.4-1.2,3.3s-0.6,3.4-0.7,3.4C222.4,457.7,223.1,455.4,224.4,453.5L224.4,453.5z"/>
	<path class="st2" d="M219.4,458.7c1.7,1,3,2.5,4,4.2c-0.1,0.1-0.9-1-1.9-2.1S219.4,458.7,219.4,458.7z"/>
	<path class="st2" d="M218.6,453.5c1.9,1.7,3.2,3.9,3.7,6.3c-0.1,0-0.6-1.5-1.7-3.3S218.5,453.6,218.6,453.5L218.6,453.5z"/>
	<path class="st2" d="M219.9,459c-0.1-0.6-0.4-1.1-0.9-1.5c-0.1-0.1-0.4-0.2-0.5-0.1c-0.1,0.1-0.2,0.3-0.1,0.4
		c0.1,0.1,0.2,0.3,0.3,0.4c-0.3,0-0.5,0-0.8,0c-0.1,0-0.3,0.1-0.3,0.2s0.1,0.2,0.2,0.2c0.2,0.1,0.5,0.2,0.8,0.2
		c-0.1,0.1-0.3,0-0.4,0.1s-0.3,0.1-0.3,0.3c0,0.1,0.2,0.1,0.3,0.1C218.8,459.3,219.4,459.2,219.9,459"/>
	<path class="st2" d="M224.1,453.8c-0.1,0-0.2,0.1-0.1,0.2c0,0.1,0.1,0.1,0.2,0.1c0.1,0,0.2-0.1,0.3-0.1c0.5-0.3,0.9-0.7,1.3-1.1
		c0.1-0.1,0.1-0.2,0.1-0.3c-0.1-0.1-0.2-0.1-0.4-0.1c-0.4,0.1-0.8,0.3-1,0.7c0.2-0.3,0.4-0.6,0.5-0.9c0-0.1,0-0.3-0.1-0.4
		s-0.2,0.1-0.3,0.1c-0.2,0.3-0.4,0.6-0.5,1c0.1-0.4,0.1-0.8-0.1-1.1c0-0.1-0.1-0.2-0.2-0.2c-0.1,0-0.2,0.1-0.2,0.2
		c0,0.1,0,0.2,0,0.3c0.1,0.7,0.3,1.3,0.6,1.9"/>
	<path class="st2" d="M221.3,451.1c-0.1,0-0.1,0.2,0,0.3c0.1,0.1,0.2,0.1,0.3,0c0.1-0.1,0.2-0.2,0.2-0.3c0.4-0.6,0.7-1.2,0.8-1.9
		c0-0.1,0-0.3-0.1-0.4c-0.1-0.1-0.3-0.1-0.5,0c-0.5,0.3-0.7,0.8-0.8,1.3c0.1-0.4,0.1-0.9,0-1.3c0-0.2-0.1-0.4-0.3-0.3
		c-0.1,0-0.2,0.2-0.3,0.3c-0.1,0.4-0.1,0.9,0,1.4c-0.1-0.5-0.3-0.9-0.7-1.1c-0.1-0.1-0.2-0.1-0.4-0.1c-0.1,0.1-0.1,0.2-0.1,0.3
		c0,0.1,0.1,0.2,0.1,0.3c0.5,0.7,1,1.3,1.7,1.8"/>
	<path class="st2" d="M241.3,387.9c0,0.1-0.9,0.4-2.4,1.1c-3.9,1.8-7.4,4.2-10.5,7.3c-1.2,1.2-1.8,1.9-1.9,1.9
		c0.1-0.2,0.3-0.4,0.4-0.6c0.3-0.4,0.7-0.9,1.3-1.5c3-3.2,6.6-5.7,10.5-7.3c0.8-0.3,1.4-0.5,1.8-0.7
		C240.8,388,241,387.9,241.3,387.9L241.3,387.9z"/>
	<path class="st2" d="M236.9,394.6c-2.6-0.8-5.3-0.5-7.8,0.6C231.4,393.6,234.4,393.4,236.9,394.6z"/>
	<path class="st2" d="M240,391.6c0,0.1-1.6-0.1-3.5,0c-1.9,0.1-3.4,0.5-3.4,0.4C235.3,391.2,237.8,391,240,391.6L240,391.6z"/>
	<path class="st2" d="M233.5,388.7c-0.4,1.9-1.3,3.7-2.7,5.1c-0.1-0.1,0.6-1.1,1.4-2.5S233.4,388.6,233.5,388.7L233.5,388.7z"/>
	<path class="st2" d="M238,386.2c-1,2.3-2.6,4.2-4.7,5.6c-0.1-0.1,1.2-1.1,2.5-2.7S237.9,386.1,238,386.2L238,386.2z"/>
	<path class="st2" d="M233.3,389.3c0.5-0.3,0.9-0.8,1.1-1.3c0.1-0.2,0.1-0.4,0-0.5c-0.1-0.1-0.3-0.1-0.4,0.1
		c-0.1,0.1-0.2,0.3-0.2,0.4c-0.1-0.3-0.1-0.5-0.3-0.7c-0.1-0.1-0.1-0.2-0.3-0.2c-0.1,0-0.1,0.2-0.1,0.3c0,0.3,0,0.5,0,0.8
		c-0.1-0.1-0.1-0.2-0.2-0.4c-0.1-0.1-0.2-0.3-0.3-0.2c-0.1,0.1-0.1,0.2,0,0.3C232.7,388.3,233,388.8,233.3,389.3"/>
	<path class="st2" d="M239.6,391.5c0-0.1-0.1-0.1-0.2-0.1c0,0,0,0,0,0c-0.1,0.1-0.1,0.2,0,0.3c0.1,0.1,0.1,0.2,0.2,0.2
		c0.4,0.4,0.9,0.7,1.5,0.8c0.1,0.1,0.2,0,0.3,0c0.1-0.1,0.1-0.3,0-0.4c-0.2-0.4-0.6-0.7-1-0.8c0.3,0.1,0.7,0.2,1.1,0.2
		c0.1,0,0.3-0.1,0.3-0.2c0-0.1-0.1-0.2-0.2-0.2c-0.4-0.1-0.7-0.2-1.1-0.2c0.4,0,0.7-0.2,1-0.5c0.1-0.1,0.1-0.2,0.1-0.3
		c0-0.1-0.1-0.1-0.2-0.1c-0.1,0-0.2,0-0.3,0.1c-0.6,0.3-1.1,0.7-1.6,1.2"/>
	<path class="st2" d="M241.3,387.9c-0.1-0.1-0.2,0-0.3,0.1c0,0.1,0,0.3,0.1,0.3c0.1,0.1,0.2,0.1,0.3,0.1c0.7,0.2,1.4,0.2,2,0.1
		c0.2,0,0.3-0.1,0.4-0.2c0-0.2,0-0.3-0.2-0.4c-0.4-0.3-1-0.5-1.5-0.3c0.4,0,0.9-0.2,1.2-0.4c0.1-0.1,0.3-0.3,0.2-0.4
		c-0.1-0.1-0.2-0.2-0.4-0.1c-0.5,0-0.9,0.2-1.3,0.4c0.4-0.2,0.7-0.6,0.8-1.1c0-0.1,0-0.3-0.1-0.4c-0.1-0.1-0.2-0.1-0.3,0
		c-0.1,0.1-0.2,0.1-0.2,0.2c-0.5,0.7-0.9,1.4-1.2,2.2"/>
	<path class="st2" d="M142.7,413.6c0.1,0-0.2,1-0.4,2.6c-0.5,4.3-0.3,8.6,0.7,12.7c0.4,1.6,0.7,2.6,0.6,2.6
		c-0.1-0.2-0.2-0.4-0.3-0.7c-0.2-0.4-0.4-1.1-0.6-1.9c-1.1-4.2-1.4-8.5-0.7-12.8c0.1-0.8,0.3-1.5,0.4-1.9
		C142.5,414.1,142.6,413.8,142.7,413.6L142.7,413.6z"/>
	<path class="st2" d="M146.1,420.9c-2,1.8-3.3,4.3-3.5,6.9C142.4,425,143.8,422.4,146.1,420.9z"/>
	<path class="st2" d="M145.2,416.6c0.1,0.1-0.9,1.3-1.8,2.9c-0.9,1.7-1.3,3.2-1.4,3.2C142.4,420.4,143.5,418.3,145.2,416.6z"/>
	<path class="st2" d="M139.3,420.7c1.4,1.4,2.4,3.1,3,5c-0.1,0-0.6-1.1-1.4-2.5S139.2,420.7,139.3,420.7z"/>
	<path class="st2" d="M139.5,415.5c1.4,2,2.3,4.4,2.3,6.9c-0.1,0-0.3-1.6-0.9-3.5C140.3,417,139.5,415.5,139.5,415.5z"/>
	<path class="st2" d="M139.7,421.1c0-0.6-0.2-1.1-0.5-1.6c-0.1-0.2-0.3-0.3-0.5-0.3c-0.1,0.1-0.2,0.2-0.2,0.4c0,0.2,0.1,0.3,0.2,0.4
		c-0.2-0.1-0.5-0.1-0.8-0.2c-0.1,0-0.3,0-0.3,0.1c0,0.1,0.1,0.2,0.2,0.3c0.2,0.1,0.5,0.3,0.7,0.4c-0.1,0-0.3,0-0.4,0
		c-0.1,0-0.3,0-0.3,0.2c0,0.1,0.1,0.2,0.3,0.2C138.6,421.2,139.1,421.2,139.7,421.1"/>
	<path class="st2" d="M144.9,416.9c-0.1,0-0.2,0.1-0.2,0.2c0,0.1,0.1,0.2,0.2,0.2c0.1,0,0.2,0,0.3-0.1c0.5-0.2,1-0.4,1.5-0.8
		c0.1-0.1,0.2-0.2,0.2-0.3c0-0.1-0.2-0.2-0.3-0.2c-0.4,0-0.9,0.1-1.2,0.4c0.3-0.2,0.5-0.5,0.7-0.8c0.1-0.1,0.1-0.3,0-0.4
		c-0.1-0.1-0.2,0-0.3,0.1c-0.3,0.2-0.5,0.5-0.7,0.8c0.2-0.3,0.2-0.7,0.1-1.1c0-0.1-0.1-0.2-0.2-0.2c-0.1,0-0.2,0-0.2,0.1
		c0,0.1-0.1,0.2-0.1,0.3c-0.1,0.7,0,1.3,0.2,2"/>
	<path class="st2" d="M142.7,413.6c-0.1,0-0.2,0.2-0.1,0.3c0.1,0.1,0.2,0.1,0.3,0.1c0.1,0,0.2-0.1,0.3-0.2c0.5-0.5,0.9-1,1.2-1.7
		c0.1-0.1,0.1-0.3,0-0.4c-0.1-0.1-0.3-0.1-0.5-0.1c-0.5,0.2-0.9,0.6-1,1.1c0.2-0.4,0.3-0.8,0.3-1.3c0-0.2-0.1-0.4-0.2-0.4
		c-0.2,0-0.3,0.1-0.3,0.3c-0.2,0.4-0.3,0.9-0.3,1.3c0-0.5-0.1-0.9-0.5-1.3c-0.1-0.1-0.2-0.2-0.3-0.1c-0.1,0-0.2,0.1-0.2,0.3
		c0,0.1,0,0.2,0.1,0.3c0.3,0.8,0.7,1.5,1.3,2.2"/>
	<path class="st2" d="M248.6,461.4c0.1,0,0.2,1,0.6,2.6c1,4.2,2.7,8.1,5.1,11.7c0.9,1.4,1.6,2.2,1.5,2.2c-0.2-0.2-0.4-0.3-0.5-0.5
		c-0.3-0.3-0.7-0.9-1.2-1.5c-2.5-3.5-4.3-7.5-5.2-11.8c-0.2-0.8-0.3-1.5-0.3-1.9C248.6,461.9,248.6,461.7,248.6,461.4L248.6,461.4z"
		/>
	<path class="st2" d="M254.4,467c-1.3,2.4-1.6,5.1-0.9,7.7C252.4,472.2,252.7,469.2,254.4,467z"/>
	<path class="st2" d="M252.1,463.3c0.1,0-0.4,1.5-0.7,3.4s-0.1,3.4-0.2,3.5C250.7,467.9,251,465.5,252.1,463.3L252.1,463.3z"/>
	<path class="st2" d="M247.9,469.2c1.8,0.8,3.4,2,4.5,3.6c-0.1,0.1-1-0.9-2.2-1.8S247.9,469.3,247.9,469.2z"/>
	<path class="st2" d="M246.3,464.3c2.1,1.4,3.7,3.4,4.6,5.7c-0.1,0-0.8-1.4-2.1-3S246.3,464.3,246.3,464.3L246.3,464.3z"/>
	<path class="st2" d="M248.4,469.5c-0.2-0.5-0.6-1-1.1-1.3c-0.2-0.1-0.4-0.2-0.5-0.1c-0.1,0.1-0.1,0.3,0,0.4
		c0.1,0.1,0.2,0.2,0.4,0.3c-0.3,0-0.5,0-0.8,0.1c-0.1,0-0.2,0.1-0.2,0.2s0.1,0.2,0.3,0.2c0.3,0.1,0.5,0.1,0.8,0.1
		c-0.1,0.1-0.3,0.1-0.4,0.1c-0.1,0-0.3,0.2-0.2,0.3c0.1,0.1,0.2,0.1,0.3,0.1C247.4,469.9,247.9,469.7,248.4,469.5"/>
	<path class="st2" d="M251.8,463.7c-0.1,0-0.2,0.1-0.1,0.2c0.1,0.1,0.2,0.1,0.3,0.1c0.1,0,0.2-0.1,0.3-0.2c0.4-0.4,0.8-0.8,1.1-1.3
		c0.1-0.1,0.1-0.2,0-0.3c-0.1-0.1-0.2-0.1-0.4-0.1c-0.4,0.1-0.8,0.4-0.9,0.8c0.2-0.3,0.3-0.6,0.4-1c0-0.1,0-0.3-0.2-0.3
		s-0.2,0.1-0.3,0.2c-0.2,0.3-0.3,0.7-0.4,1c0.1-0.4,0-0.8-0.3-1c-0.1-0.1-0.2-0.1-0.3-0.1c-0.1,0-0.2,0.1-0.2,0.2c0,0.1,0,0.2,0,0.3
		c0.2,0.6,0.5,1.3,0.9,1.8"/>
	<path class="st2" d="M248.7,461.4c-0.1,0-0.1,0.2,0,0.3c0.1,0.1,0.2,0,0.3,0c0.1-0.1,0.2-0.2,0.2-0.3c0.3-0.6,0.5-1.3,0.5-2
		c0-0.2,0-0.3-0.2-0.4c-0.2-0.1-0.3,0-0.5,0.1c-0.4,0.3-0.6,0.9-0.6,1.4c0.1-0.4,0-0.9-0.2-1.3c-0.1-0.2-0.2-0.3-0.4-0.3
		c-0.1,0-0.2,0.2-0.2,0.4c0,0.5,0,0.9,0.2,1.3c-0.1-0.5-0.4-0.8-0.9-1c-0.1-0.1-0.3-0.1-0.4,0c-0.1,0.1-0.1,0.2-0.1,0.3
		c0,0.1,0.1,0.2,0.2,0.3c0.6,0.6,1.2,1.2,2,1.6"/>
	<path class="st2" d="M232.5,433.4c-0.1,0,0.3-1,0.6-2.6c0.9-4.2,1.1-8.5,0.6-12.7c-0.2-1.6-0.4-2.6-0.4-2.6
		c0.1,0.2,0.2,0.5,0.2,0.7c0.1,0.4,0.3,1.1,0.4,1.9c0.7,4.3,0.5,8.6-0.6,12.8c-0.2,0.8-0.4,1.4-0.6,1.9
		C232.7,433,232.6,433.2,232.5,433.4L232.5,433.4z"/>
	<path class="st2" d="M229.8,425.8c2.2-1.6,3.7-3.9,4.2-6.5C233.9,422.1,232.3,424.6,229.8,425.8z"/>
	<path class="st2" d="M230.2,430.2c-0.1-0.1,1.1-1.2,2.1-2.7s1.6-3,1.7-3C233.5,426.7,232.1,428.7,230.2,430.2L230.2,430.2z"/>
	<path class="st2" d="M236.6,426.7c-1.3-1.5-2.1-3.3-2.5-5.2c0.1,0,0.5,1.2,1.2,2.6S236.7,426.7,236.6,426.7L236.6,426.7z"/>
	<path class="st2" d="M235.8,431.9c-1.2-2.2-1.8-4.6-1.6-7.1c0.1,0,0.1,1.6,0.6,3.6S235.9,431.8,235.8,431.9L235.8,431.9z"/>
	<path class="st2" d="M236.2,426.3c-0.1,0.6,0.1,1.2,0.4,1.7c0.1,0.2,0.3,0.3,0.5,0.3c0.2-0.1,0.3-0.2,0.2-0.4
		c0-0.2-0.1-0.3-0.2-0.4c0.2,0.1,0.5,0.2,0.7,0.2c0.1,0,0.3,0,0.3-0.1c0-0.1-0.1-0.2-0.1-0.3c-0.2-0.2-0.4-0.3-0.6-0.5
		c0.1,0,0.3,0,0.4,0.1c0.1,0,0.3,0,0.3-0.2c0-0.1-0.1-0.2-0.2-0.2C237.3,426.3,236.8,426.3,236.2,426.3"/>
	<path class="st2" d="M230.6,429.9c0.1,0,0.2-0.1,0.2-0.2c0-0.1-0.1-0.2-0.2-0.2c-0.1,0-0.2,0-0.3,0c-0.6,0.1-1.1,0.3-1.5,0.7
		c-0.1,0.1-0.2,0.2-0.2,0.3c0,0.1,0.2,0.2,0.3,0.2c0.4,0.1,0.9,0,1.2-0.3c-0.3,0.2-0.6,0.4-0.8,0.7c-0.1,0.1-0.1,0.3,0,0.4
		c0.1,0.1,0.2,0,0.3,0c0.3-0.2,0.6-0.5,0.8-0.8c-0.2,0.3-0.3,0.7-0.2,1.1c0,0.1,0.1,0.2,0.2,0.2c0.1,0,0.2,0,0.2-0.1
		c0-0.1,0.1-0.2,0.1-0.3c0.1-0.7,0.1-1.3,0-2"/>
	<path class="st2" d="M232.4,433.4c0.1,0,0.2-0.2,0.1-0.3c-0.1-0.1-0.2-0.2-0.3-0.1c-0.1,0-0.2,0.1-0.3,0.2c-0.5,0.4-1,0.9-1.3,1.5
		c-0.1,0.1-0.1,0.3,0,0.4c0.1,0.1,0.3,0.2,0.4,0.1c0.5-0.1,0.9-0.5,1.1-1c-0.3,0.4-0.4,0.8-0.4,1.2c0,0.2,0,0.4,0.2,0.4
		c0.1,0,0.3-0.1,0.3-0.2c0.2-0.4,0.4-0.8,0.5-1.3c-0.1,0.5,0,0.9,0.3,1.3c0.1,0.1,0.2,0.2,0.3,0.2c0.1,0,0.2-0.1,0.2-0.2
		c0-0.1,0-0.2,0-0.3c-0.2-0.8-0.6-1.6-1.1-2.3"/>
	<path class="st2" d="M186,373.7c0,0.1-0.9,0.4-2.4,1.1c-3.9,1.8-7.4,4.2-10.5,7.3c-1.2,1.2-1.8,1.9-1.9,1.9
		c0.1-0.2,0.3-0.4,0.4-0.6c0.3-0.4,0.7-0.9,1.3-1.5c3-3.2,6.6-5.7,10.5-7.3c0.8-0.3,1.4-0.5,1.8-0.7
		C185.5,373.8,185.8,373.8,186,373.7L186,373.7z"/>
	<path class="st2" d="M181.6,380.5c-2.6-0.8-5.3-0.5-7.8,0.6C176.1,379.5,179.1,379.2,181.6,380.5z"/>
	<path class="st2" d="M184.8,377.5c0,0.1-1.6-0.1-3.5,0c-1.9,0.1-3.4,0.5-3.4,0.4C180.1,377,182.5,376.9,184.8,377.5L184.8,377.5z"
		/>
	<path class="st2" d="M178.2,374.5c-0.4,1.9-1.3,3.7-2.7,5.1c-0.1-0.1,0.6-1.1,1.4-2.5C177.7,375.7,178.1,374.5,178.2,374.5z"/>
	<path class="st2" d="M182.8,372c-1,2.3-2.6,4.2-4.7,5.6c-0.1-0.1,1.2-1.1,2.5-2.7S182.7,372,182.8,372L182.8,372z"/>
	<path class="st2" d="M178.1,375.1c0.5-0.3,0.9-0.8,1.1-1.3c0.1-0.2,0.1-0.4,0-0.5c-0.1-0.1-0.3-0.1-0.4,0.1
		c-0.1,0.1-0.2,0.3-0.2,0.4c-0.1-0.3-0.1-0.5-0.3-0.7c-0.1-0.1-0.1-0.2-0.3-0.2s-0.1,0.2-0.1,0.3c0,0.3,0,0.5,0,0.8
		c-0.1-0.1-0.1-0.2-0.2-0.4s-0.2-0.3-0.3-0.2c-0.1,0.1-0.1,0.2,0,0.3C177.4,374.2,177.7,374.6,178.1,375.1"/>
	<path class="st2" d="M184.4,377.3c0-0.1-0.1-0.1-0.2-0.1c0,0,0,0,0,0c-0.1,0.1-0.1,0.2,0,0.3c0,0.1,0.1,0.2,0.2,0.2
		c0.4,0.4,0.9,0.7,1.5,0.8c0.1,0.1,0.2,0,0.3,0c0.1-0.1,0.1-0.3,0-0.4c-0.2-0.4-0.6-0.7-1-0.8c0.3,0.1,0.7,0.2,1.1,0.2
		c0.1,0,0.3-0.1,0.3-0.2s-0.1-0.2-0.2-0.2c-0.3-0.1-0.7-0.2-1.1-0.2c0.4,0,0.7-0.2,1-0.5c0.1-0.1,0.1-0.2,0.1-0.3
		c0-0.1-0.1-0.1-0.2-0.1c-0.1,0-0.2,0-0.3,0.1c-0.6,0.3-1.1,0.7-1.6,1.2"/>
	<path class="st2" d="M186,373.8c-0.1-0.1-0.2-0.1-0.3,0.1c0,0.1,0,0.3,0.1,0.3c0.1,0.1,0.2,0.1,0.3,0.1c0.7,0.2,1.4,0.2,2,0.1
		c0.1,0,0.3-0.1,0.4-0.2c0-0.2,0-0.3-0.2-0.4c-0.4-0.3-1-0.5-1.5-0.3c0.4,0,0.9-0.2,1.2-0.4c0.1-0.1,0.3-0.3,0.2-0.4
		s-0.2-0.2-0.4-0.1c-0.5,0-0.9,0.2-1.3,0.4c0.4-0.2,0.7-0.6,0.8-1.1c0-0.1,0-0.3-0.1-0.4c-0.1-0.1-0.2-0.1-0.3,0
		c-0.1,0.1-0.2,0.1-0.2,0.2c-0.5,0.7-0.9,1.4-1.2,2.2"/>
	<path class="st2" d="M225.2,352.6c0,0,0.5,0.9,1.3,2.3c2.2,3.7,5.1,6.9,8.4,9.6c1.3,1,2.1,1.6,2.1,1.6c-0.2-0.1-0.4-0.2-0.6-0.3
		c-0.4-0.2-0.9-0.6-1.6-1.1c-3.5-2.6-6.4-5.9-8.5-9.7c-0.4-0.7-0.7-1.3-0.9-1.7C225.3,353.1,225.2,352.8,225.2,352.6L225.2,352.6z"
		/>
	<path class="st2" d="M232.4,356.2c-0.5,2.6,0,5.4,1.5,7.6C232,361.8,231.4,358.9,232.4,356.2z"/>
	<path class="st2" d="M229,353.4c0.1,0,0,1.6,0.4,3.4c0.3,1.9,0.9,3.3,0.8,3.4C229.1,358.2,228.7,355.8,229,353.4L229,353.4z"/>
	<path class="st2" d="M226.8,360.3c2,0.2,3.8,0.9,5.4,2.1c0,0.1-1.2-0.5-2.7-1.1C228.1,360.7,226.8,360.4,226.8,360.3z"/>
	<path class="st2" d="M223.8,356c2.4,0.7,4.5,2.1,6.1,4c-0.1,0.1-1.2-1.1-2.9-2.2C225.3,356.8,223.8,356.1,223.8,356L223.8,356z"/>
	<path class="st2" d="M227.4,360.4c-0.4-0.5-0.8-0.8-1.4-0.9c-0.2-0.1-0.4-0.1-0.5,0.1c-0.1,0.2,0,0.3,0.1,0.4
		c0.1,0.1,0.3,0.2,0.4,0.2c-0.2,0.1-0.5,0.2-0.7,0.3c-0.1,0.1-0.2,0.2-0.2,0.3c0,0.1,0.2,0.1,0.3,0.1c0.3,0,0.5-0.1,0.8-0.1
		c-0.1,0.1-0.2,0.2-0.4,0.2c-0.1,0.1-0.2,0.2-0.1,0.3c0.1,0.1,0.2,0,0.3,0C226.6,361.1,227,360.8,227.4,360.4"/>
	<path class="st2" d="M228.9,353.8c-0.1,0-0.1,0.1-0.1,0.2c0,0,0,0,0,0c0.1,0.1,0.2,0.1,0.3,0c0.1-0.1,0.1-0.1,0.2-0.2
		c0.3-0.5,0.5-1,0.7-1.6c0-0.1,0-0.2-0.1-0.3c-0.1-0.1-0.3,0-0.4,0c-0.4,0.2-0.6,0.6-0.6,1.1c0.1-0.3,0.1-0.7,0-1.1
		c0-0.1-0.1-0.3-0.2-0.3c-0.1,0-0.2,0.1-0.2,0.3c-0.1,0.4-0.1,0.7,0,1.1c0-0.4-0.3-0.7-0.6-0.9c-0.1-0.1-0.2-0.1-0.3,0
		c-0.1,0.1-0.1,0.1-0.1,0.2c0,0.1,0.1,0.2,0.1,0.3c0.4,0.6,0.8,1.1,1.4,1.5"/>
	<path class="st2" d="M225.2,352.6c-0.1,0.1,0,0.2,0.1,0.3c0.1,0,0.2,0,0.3-0.1c0.1-0.1,0.1-0.2,0.1-0.3c0.1-0.7,0.1-1.4-0.1-2
		c0-0.1-0.1-0.3-0.3-0.3c-0.1,0-0.3,0.1-0.4,0.2c-0.3,0.4-0.3,1-0.1,1.5c-0.1-0.4-0.3-0.9-0.5-1.2c-0.1-0.1-0.3-0.3-0.4-0.2
		s-0.1,0.3-0.1,0.4c0.1,0.4,0.3,0.9,0.5,1.2c-0.3-0.4-0.7-0.7-1.1-0.7c-0.1,0-0.3,0-0.4,0.1c-0.1,0.1-0.1,0.2,0,0.3
		c0.1,0.1,0.2,0.2,0.3,0.2c0.7,0.4,1.5,0.7,2.3,0.9"/>
	<path class="st2" d="M154.1,360.5c0.1,0,0.5,0.9,1.3,2.3c2.2,3.7,5.1,6.9,8.4,9.6c1.3,1,2.1,1.6,2.1,1.6c-0.2-0.1-0.4-0.2-0.6-0.3
		c-0.4-0.2-0.9-0.6-1.6-1.1c-3.5-2.6-6.3-5.9-8.5-9.7c-0.4-0.7-0.7-1.3-0.9-1.7C154.3,360.9,154.2,360.7,154.1,360.5z"/>
	<path class="st2" d="M161.3,364.1c-0.5,2.6,0,5.4,1.5,7.6C161,369.7,160.4,366.7,161.3,364.1z"/>
	<path class="st2" d="M158,361.3c0.1,0,0,1.6,0.4,3.4c0.3,1.9,0.9,3.3,0.8,3.4C158.1,366,157.6,363.6,158,361.3z"/>
	<path class="st2" d="M155.8,368.1c2,0.2,3.8,0.9,5.4,2.1c0,0.1-1.2-0.5-2.7-1.1C157,368.5,155.8,368.2,155.8,368.1L155.8,368.1z"/>
	<path class="st2" d="M152.8,363.9c2.4,0.7,4.5,2.1,6.1,4c-0.1,0.1-1.2-1.1-2.9-2.2S152.8,364,152.8,363.9z"/>
	<path class="st2" d="M156.4,368.2c-0.4-0.5-0.8-0.8-1.4-0.9c-0.2-0.1-0.4-0.1-0.5,0.1c-0.1,0.2,0,0.3,0.1,0.4
		c0.1,0.1,0.3,0.2,0.4,0.2c-0.2,0.1-0.5,0.2-0.7,0.3c-0.1,0.1-0.2,0.2-0.2,0.3c0,0.1,0.2,0.1,0.3,0.1c0.3,0,0.5-0.1,0.8-0.1
		c-0.1,0.1-0.2,0.2-0.4,0.2c-0.1,0.1-0.2,0.2-0.1,0.3c0.1,0.1,0.2,0,0.3,0C155.5,369,155.9,368.6,156.4,368.2"/>
	<path class="st2" d="M157.9,361.7c-0.1,0-0.1,0.1-0.1,0.2c0,0,0,0,0,0c0.1,0.1,0.2,0.1,0.3,0c0.1-0.1,0.1-0.1,0.2-0.2
		c0.3-0.5,0.5-1,0.7-1.6c0-0.1,0-0.2-0.1-0.3c-0.1-0.1-0.3,0-0.4,0c-0.4,0.2-0.6,0.6-0.6,1.1c0.1-0.3,0.1-0.7,0-1.1
		c0-0.1-0.1-0.3-0.3-0.3c-0.1,0-0.2,0.1-0.2,0.3c-0.1,0.4-0.1,0.7,0,1.1c0-0.4-0.3-0.7-0.6-0.9c-0.1-0.1-0.2-0.1-0.3,0
		c-0.1,0.1-0.1,0.1-0.1,0.2c0,0.1,0.1,0.2,0.1,0.3c0.4,0.6,0.8,1.1,1.4,1.5"/>
	<path class="st2" d="M154.2,360.5c-0.1,0.1,0,0.2,0.1,0.3c0.1,0,0.2,0,0.3-0.1c0.1-0.1,0.1-0.2,0.1-0.3c0.1-0.7,0.1-1.4-0.1-2
		c0-0.1-0.1-0.3-0.3-0.3c-0.2,0-0.3,0.1-0.4,0.2c-0.3,0.4-0.3,1-0.1,1.5c-0.1-0.4-0.3-0.9-0.5-1.2c-0.1-0.1-0.3-0.3-0.4-0.2
		s-0.1,0.3-0.1,0.4c0.1,0.4,0.3,0.9,0.5,1.2c-0.3-0.4-0.7-0.7-1.1-0.7c-0.1,0-0.3,0-0.4,0.1c-0.1,0.1-0.1,0.2,0,0.3
		c0.1,0.1,0.2,0.2,0.3,0.2c0.7,0.4,1.5,0.7,2.3,0.9"/>
</g>
<path class="st3" d="M227.3,349.4c-0.2,0-0.4,0-0.5,0c-0.4,0-0.9,0-1.6,0.1c-2.1,0.2-4.1,0.7-6,1.6c-5,2.2-10.9,8.4-14.8,17.8l0,0
	l-31.4,65.8l-0.1,0.2h-0.2l-51.6,0.9l0.4-0.3l-6.7,16.8c-0.7,1.8-1.4,3.5-2.1,5.2l-0.3-0.6l73.7,17h-0.1c3.3-0.7,6.4-2.2,8.9-4.4
	c1.2-1.1,2.2-2.4,3-3.8c0.8-1.4,1.6-2.8,2.5-4.2c3.2-5.5,6.2-10.8,9-15.7c5.6-9.9,10.5-18.6,14.6-25.7c4-7.1,7.2-12.7,9.4-16.6
	c1.1-1.9,1.9-3.4,2.5-4.4c0.3-0.5,0.5-0.8,0.7-1.1c0.1-0.1,0.1-0.3,0.2-0.4c-0.1,0.1-0.1,0.3-0.2,0.4l-0.6,1.1l-2.4,4.4
	c-2.2,3.9-5.3,9.5-9.3,16.7c-4,7.2-8.9,15.9-14.5,25.8c-2.8,5-5.8,10.2-9,15.8l-2.5,4.2c-0.8,1.5-1.9,2.8-3.1,4
	c-2.6,2.3-5.8,3.9-9.2,4.6l-0.1,0l-0.1,0L112,457.9l-0.5-0.1l0.2-0.4c0.7-1.7,1.4-3.5,2.1-5.2c2.3-5.8,4.6-11.4,6.7-16.8l0.1-0.3
	h0.3l51.6-0.9l-0.3,0.2c12.8-26.6,23.8-49.4,31.7-65.7l0,0c4-9.5,10-15.6,15.1-17.8c1.9-0.9,4-1.4,6.1-1.5h1.6
	C226.9,349.3,227.1,349.4,227.3,349.4L227.3,349.4z"/>
<path class="st3" d="M201,487.2c-7.5-9-18.7-15.7-30.4-15.1c-8.7,0.5-19.9,4.6-27.2,8.7c-20.5,11.6-16.7,38.1-16.7,38.1L149,659.3
	l41.3-5.3L185.8,519l22.9-17.5L201,487.2z"/>
<path class="st9" d="M209.4,501.2c-0.1,0.1-0.2,0.3-0.4,0.4c-0.3,0.3-0.7,0.6-1.2,1.1l-4.7,4c-4.1,3.4-9.9,8.3-17.1,14.3l0.1-0.3
	c0.6,13.4,1.3,30.6,1.9,49.3c0.7,22,1.3,42,1.7,56.5c0.2,7.2,0.4,13,0.5,17.1c0.1,2,0.1,3.5,0.1,4.7c0,0.5,0,0.9,0,1.2
	c0,0.1,0,0.3,0,0.4c0-0.1-0.1-0.3-0.1-0.4c0-0.3-0.1-0.7-0.1-1.2c-0.1-1.1-0.2-2.7-0.3-4.6c-0.2-4.1-0.5-9.9-0.8-17.1
	c-0.6-14.4-1.3-34.4-2-56.5c-0.6-18.7-1.2-35.9-1.7-49.3l0-0.2l0.1-0.1l17.3-14.1c2-1.6,3.6-2.9,4.8-3.8l1.3-1
	C209.1,501.4,209.3,501.3,209.4,501.2L209.4,501.2z"/>
<path class="st9" d="M190.4,647.4c0,0.1,0,0.3,0,0.4l0,1.2c0,1.1,0,2.8,0.1,4.9v0.1l-0.1,0l-41.3,5.5l-0.3,0l-0.1-0.3
	c-2.6-16.5-5.8-36.4-9.2-57.7c-4.6-29.1-8.7-55.4-11.7-74.5c-1.4-7.5-1.4-15.3,0-22.8c0.4-2,0.9-4.1,1.7-6c0.3-0.7,0.6-1.3,1-1.9
	c-0.1,0.2-0.1,0.3-0.2,0.5c-0.2,0.3-0.4,0.8-0.6,1.5c-0.7,1.9-1.2,3.9-1.5,6c-1.3,7.5-1.2,15.2,0.3,22.6c3.1,19.1,7.3,45.4,12,74.4
	c3.4,21.3,6.5,41.2,9.1,57.7L149,659l41.3-5.1l-0.1,0.1c0-2.1,0.1-3.7,0.1-4.9c0-0.5,0-0.9,0-1.2
	C190.3,647.7,190.3,647.6,190.4,647.4L190.4,647.4z"/>
<path class="st9" d="M177.7,497.5c0.8,0.8,1.5,1.7,2,2.8c2.8,4.8,4.5,10.1,5,15.6c0.2,1.1,0.1,2.3-0.1,3.4c-0.3,0-0.3-5.2-2.3-11.3
	C180.5,502,177.5,497.6,177.7,497.5L177.7,497.5z"/>
<path class="st10" d="M199.4,344.2c3.1-3.1,1.3-5,0.1-8l-22.2-66.3c-9.6-21.7-37.9-8.8-37.9-8.8c-13.3,4.9-15.2,19.9-12.1,30.1
	c3.4,11.4,8,25.1,12.4,32.9c8.8,15.7,22.4,13.1,22.4,13.1l5.6,15.1c1.7,4.6,6.8,6.9,11.3,5.2c0.6-0.2,1.3-0.6,1.8-0.9L199.4,344.2z"
	/>
<path class="st3" d="M135.1,302.3c0.4,1.2,1.7,1.8,2.9,1.4c1.2-0.3,1.8-1.5,1.5-2.7c0,0,0,0,0-0.1c-0.4-1.2-1.7-1.8-2.9-1.4
	C135.5,299.9,134.8,301.1,135.1,302.3C135.1,302.3,135.1,302.3,135.1,302.3L135.1,302.3z"/>
<path class="st3" d="M133.1,299.5c0.4,0.2,1.5-1.6,3.8-2.5c2.3-0.9,4.4-0.3,4.6-0.7c0.1-0.2-0.4-0.6-1.3-0.8
	c-1.3-0.3-2.6-0.2-3.8,0.2c-1.2,0.4-2.2,1.2-2.9,2.3C133,298.8,133,299.4,133.1,299.5z"/>
<path class="st3" d="M156.7,295.4c0.4,1.2,1.7,1.8,2.9,1.4c1.2-0.3,1.8-1.5,1.5-2.7c0,0,0,0,0-0.1c-0.4-1.2-1.7-1.8-2.9-1.4
	C157,293,156.3,294.2,156.7,295.4C156.7,295.4,156.7,295.4,156.7,295.4z"/>
<path class="st3" d="M155.8,291.1c0.4,0.2,1.5-1.6,3.8-2.5c2.3-0.9,4.4-0.3,4.6-0.7c0.1-0.2-0.4-0.6-1.3-0.8
	c-1.3-0.3-2.6-0.2-3.8,0.2c-1.2,0.4-2.2,1.3-2.9,2.3C155.6,290.4,155.6,291,155.8,291.1z"/>
<path class="st3" d="M154.3,311.3c0-0.1-1.6,0.1-4,0.7c-0.6,0.2-1.2,0.2-1.5-0.1c-0.3-0.6-0.4-1.2-0.3-1.9c0-1.6,0.1-3.3,0.1-5.1
	c0-7.3-0.1-13.1-0.4-13.1c-0.3,0-0.6,5.9-0.6,13.2c0,1.8,0,3.5,0,5.1c-0.1,0.8,0.1,1.7,0.6,2.4c0.3,0.4,0.8,0.5,1.3,0.5
	c0.4,0,0.7-0.1,1-0.2C152.9,312,154.4,311.4,154.3,311.3L154.3,311.3z"/>
<path class="st12" d="M162.1,337.2c7.9-2.8,14.9-7.7,20.1-14.2c0,0-1.2,13.5-18.4,18.1L162.1,337.2z"/>
<path class="st12" d="M158.2,318.8c-0.9-0.7-1.1-2.1-0.4-3c0.4-0.5,0.9-0.8,1.5-0.8c-0.4-0.8-0.1-1.7,0.5-2.3
	c0.7-0.5,1.6-0.7,2.4-0.4c1.6,0.5,2.7,2,2.7,3.7c-0.1,1.7-1.2,3.1-2.8,3.7c-1.6,0.5-3.4,0-4.5-1.2"/>
<path class="st3" d="M161.7,310.4c-0.4,0.1,0.5,2.6-0.9,5.2s-4.2,3.3-4.1,3.6c0,0.2,0.8,0.3,1.9-0.1c1.5-0.5,2.7-1.5,3.5-2.9
	c0.8-1.3,1-2.8,0.6-4.3C162.4,310.8,161.8,310.3,161.7,310.4L161.7,310.4z"/>
<path class="st3" d="M152.3,287.8c0.5,0.5,2.6-0.6,5.5-1.3c2.8-0.7,5.3-0.8,5.4-1.4c0.1-0.3-0.5-0.8-1.6-1.1c-2.9-0.6-6,0.1-8.3,2.1
	C152.4,286.9,152.1,287.5,152.3,287.8L152.3,287.8z"/>
<path class="st3" d="M130,292.2c0.6,0.4,2-0.8,3.9-1.5c1.9-0.8,3.7-1,3.8-1.6c0.1-0.3-0.4-0.8-1.3-1c-2.4-0.5-4.8,0.5-6.2,2.5
	C129.7,291.4,129.7,292,130,292.2L130,292.2z"/>
<path class="st3" d="M165.6,296.9c0,0.3-0.3,0.5-0.5,0.5c-0.3,0-0.5-0.3-0.5-0.5c0-0.3,0.2-0.5,0.5-0.5
	C165.4,296.4,165.6,296.6,165.6,296.9z"/>
<path class="st3" d="M210,338.7l10.8,2.4l-0.5-3.9c0,0-1.1-17-14.7-29.2c-13.6-12.2,4.8-16.9-7-32.9c-3.9-5.3-8.3-10.1-13.9-13.6
	c-1-0.6-1.9-1.3-2.8-2.1c-2.3-2-4.3-4.4-6.8-6.2c-1.9-1.4-4.1-2.2-6.4-2.4c-1.4-0.6-2.8-1-4.3-1.2c-6.6-1-13.2,1.7-19.4,4.3
	c-6,2.5-22.1,1.9-17,18.4c1.1-2.7,5.2-5,8.4-2.3c2.1,1.5,3.5,3.8,3.9,6.4c0.7,3.8,1.8,8.1,6.5,9.1c1.1,0.2,2.3,0.2,3.4,0
	c3.9-0.9,7-6.7,14.4-5.3c0,0,7.2,2.2,7.6,6.8c0.4,4.5-2.1,12.9,2.4,17c4.4,4,5.2,3.9,5.1,7.4c0,0.8,0,1.3-0.1,1.7
	c-0.6,5.5,0.5,32.1,22.4,23.6L210,338.7"/>
<path class="st3" d="M200.7,338.7c0,0,0.1,0.1,0.2,0.4c0.2,0.4,0.2,0.8,0.3,1.3c0.1,0.7-0.1,1.4-0.3,2.1c-0.4,0.8-1,1.6-1.7,2.2
	c-1.7,1.6-3.6,3.1-5.5,4.4l-7.2,4.7c-1.2,0.9-2.5,1.6-3.9,2.3c-1.3,0.6-2.6,1.1-3.9,1.5c-1.2,0.4-2.5,0.6-3.7,0.8
	c-1.2,0.1-2.3-0.2-3.3-0.9c-1.4-0.9-2.5-2.1-3.3-3.5c-0.3-0.5-0.5-1.1-0.6-1.7c0.1,0,0.3,0.6,0.9,1.5c0.8,1.3,2,2.4,3.3,3.2
	c0.9,0.5,1.9,0.8,2.9,0.7c1.2-0.2,2.4-0.4,3.6-0.8c1.3-0.4,2.6-0.9,3.8-1.5c1.3-0.7,2.6-1.5,3.8-2.3c2.6-1.6,5-3.2,7.2-4.7
	c1.9-1.3,3.8-2.7,5.6-4.2c1.3-0.9,2-2.3,2.1-3.9C200.8,339.3,200.6,338.7,200.7,338.7L200.7,338.7z"/>
<path class="st5" d="M643.8,597.7c1.6-5.7,5.2-11.2,10.6-13.5c5.7-2.4,12.2-1,18,1.1c5.8,2.1,11.5,4.9,17.6,5.3s13.1-2.5,14.9-8.4
	c1.7-5.5-1.6-11.4-5.8-15.4c-14.5-14-37.6-13.5-51.5,1c-3.7,3.8-6.5,8.4-8.2,13.3"/>
<path class="st14" d="M643.8,597.7c1.6-5.7,5.2-11.2,10.6-13.5c5.7-2.4,12.2-1,18,1.1c5.8,2.1,11.5,4.9,17.6,5.3s13.1-2.5,14.9-8.4
	c1.7-5.5-1.6-11.4-5.8-15.4c-14.5-14-37.6-13.5-51.5,1c-3.7,3.8-6.5,8.4-8.2,13.3"/>
<path class="st8" d="M595.1,622.4c-9-8.6-8.6-23.5-4.1-35.1c4.5-11.6,14.3-20.5,25.3-26.4c21.7-11.4,47.4-12.2,69.8-2.3
	c-11,0.5-21,6.4-26.8,15.7c-4.9,8.2-6,18.2-10.1,26.8C639.6,621.5,615.9,630.8,595.1,622.4"/>
<path class="st8" d="M590.8,570.9c-10-11.8-11.3-30.7-9.8-46.1c1.5-15.4,5-30.9,2.6-46.1c-1.4-9-4.9-17.7-6.1-26.7
	c-1.2-9.1,0.5-19.3,7.5-25.2c8.1-6.7,20.8-5.1,29.2,1.2s13.3,16.3,16.8,26.2c7.8,21.7,10.7,45.9,4.3,68.1
	c-6.4,22.2-21.5,42-43.6,48.7"/>
<path class="st3" d="M586,667.6c0-0.5-0.1-0.9,0-1.4c0-0.9,0-2.2,0.1-3.9c0.1-3.4,0.5-8.3,1.2-14.3c0.9-7,2.2-14,3.8-20.9
	c2.1-8.5,5.3-16.6,9.5-24.2c4.3-7.6,9.5-14.6,15.6-20.8c4.9-5.1,10.4-9.7,16.3-13.6c2.5-1.7,4.9-3,7-4.2c2.1-1.1,4-2,5.5-2.8
	l3.6-1.5c0.4-0.2,0.8-0.4,1.3-0.5c-0.4,0.2-0.8,0.5-1.2,0.6l-3.5,1.6c-1.5,0.8-3.3,1.7-5.4,2.9c-2,1.2-4.4,2.6-6.9,4.3
	c-13,8.9-23.8,20.6-31.5,34.3c-9.2,16.1-11.7,32.9-13.5,44.8c-0.8,6-1.2,10.8-1.5,14.2c-0.1,1.6-0.2,2.9-0.2,3.9
	C586.1,666.7,586.1,667.1,586,667.6L586,667.6z"/>
<path class="st5" d="M499.8,524.4c-18.5,11.1-18.4,21.3-15.3,30.9c3.1,9.6,14.4,16.2,23.8,12.6c5.3-2,9.2-6.6,12.5-11.3
	c3.3-4.6,6.4-9.6,11-12.9c4.6-3.3,11.3-4.6,15.9-1.3"/>
<path class="st14" d="M499.8,524.4c-18.5,11.1-18.4,21.3-15.3,30.9c3.1,9.6,14.4,16.2,23.8,12.6c5.3-2,9.2-6.6,12.5-11.3
	c3.3-4.6,6.4-9.6,11-12.9c4.6-3.3,11.3-4.6,15.9-1.3"/>
<path class="st8" d="M486,536.6c4.8-6.7,16.8-8.6,24.3-5.3c7.5,3.3,13.1,9.9,18,16.5c4.9,6.6,9.7,13.6,16.6,18.1
	c6.8,4.6,16.4,6.2,23.2,1.6c4.5-3,7.1-8.3,7.9-13.7c0.8-5.3,0-10.8-1.1-16.1c-1.6-7.7-4.3-15.8-10.5-20.8
	c-6.9-5.5-16.5-5.7-25.3-5.5c-10.1,0.3-20.4,1.1-29.9,4.6C499.7,519.7,490.1,527.3,486,536.6"/>
<path class="st3" d="M570.6,652.8c0-0.1-0.1-0.3,0-0.4c0-0.3,0-0.7-0.1-1.2c0-1.1-0.1-2.6-0.2-4.6c-0.1-4-0.3-9.8-0.5-16.9
	c-0.2-7.1-0.5-15.6-1-25c-0.5-9.4-1.2-19.7-2.6-30.5c-0.6-5.2-1.6-10.4-3.1-15.5c-1.5-4.7-3.4-9.2-5.7-13.5
	c-2.1-3.9-4.4-7.7-7.1-11.2c-2.4-3.1-5-5.9-7.8-8.6c-4.1-3.8-8.8-7-13.8-9.4c-0.9-0.4-1.7-0.8-2.4-1.1l-1.8-0.7l-1.1-0.4
	c-0.1,0.1-0.2,0.1-0.3,0.1c-0.1-0.1-0.1-0.2-0.1-0.3c0.1-0.1,0.2-0.1,0.3-0.1c0.1,0,0.1,0.1,0.1,0.2l1.1,0.4
	c0.5,0.2,1.1,0.4,1.8,0.6c0.7,0.3,1.5,0.7,2.4,1c5.1,2.4,9.9,5.5,14.1,9.3c2.9,2.6,5.5,5.5,7.9,8.6c2.7,3.5,5.2,7.3,7.3,11.3
	c2.3,4.4,4.3,8.9,5.8,13.7c1.5,5.1,2.5,10.3,3.1,15.6c1.4,10.8,2.1,21.1,2.6,30.6c0.5,9.4,0.7,17.9,0.9,25
	c0.2,7.1,0.2,12.9,0.2,16.9v4.6c0,0.5,0,0.9,0,1.2C570.7,652.5,570.6,652.7,570.6,652.8L570.6,652.8z"/>
<path class="st3" d="M577.3,661.1c-0.9-2.6-1.6-5.2-2-7.9c-1.3-7.4-1.6-14.9-0.8-22.3c0.8-9.4,3.2-20.5,7-32.3
	c3.8-11.9,8.9-24.6,13.3-38.3c2.2-6.6,3.9-13.4,5.3-20.2c1.2-6.4,2.1-12.8,2.6-19.3c0.8-11,1-22,0.6-33c-0.3-9.4-0.8-17-1.1-22.3
	c-0.2-2.6-0.3-4.6-0.4-6.1c0-0.7-0.1-1.2-0.1-1.6c0-0.2,0-0.4,0-0.5c0,0.2,0.1,0.4,0.1,0.5c0,0.4,0.1,0.9,0.2,1.6
	c0.1,1.4,0.3,3.5,0.5,6c0.4,5.3,1,12.9,1.4,22.3c0.5,11,0.4,22.1-0.4,33.1c-0.5,6.5-1.4,13-2.6,19.4c-1.4,6.9-3.1,13.7-5.3,20.3
	c-4.4,13.7-9.6,26.4-13.4,38.2c-3.6,10.4-6,21.2-7.2,32.2c-0.8,7.4-0.6,14.8,0.6,22.2c0.5,2.6,0.9,4.6,1.2,5.9
	c0.2,0.6,0.3,1.1,0.4,1.5C577.2,660.8,577.2,661,577.3,661.1L577.3,661.1z"/>
<path class="st9" d="M623.1,669.5h-86.7l-2-16.7h88.7V669.5z"/>
<path class="st9" d="M545.6,667.6l10.8,50.1h47.1l10.1-50.1H545.6z"/>
<path class="st9" d="M623.1,669.5c0,0.2-19.1,0.4-42.6,0.3c-23.5-0.1-42.6-0.3-42.6-0.5c0-0.2,19.1-0.4,42.6-0.3
	C604,669,623.1,669.3,623.1,669.5z"/>
<path class="st3" d="M608.2,694.2c-2.4-1.8-4.9-3.2-7.6-4.4c-3-1.2-6.1-1.8-9.3-1.9c-3.9,0-7.8,0.7-11.4,2.1
	c-4,1.3-7.6,2.9-11.2,3.8c-3.2,0.7-6.5,0.8-9.7,0.3c-2.2-0.3-4.3-1-6.2-2c-0.5-0.3-1-0.6-1.5-1c-0.3-0.2-0.5-0.4-0.5-0.4
	c0-0.1,0.7,0.4,2.1,1.1c2,0.9,4.1,1.4,6.2,1.7c3.2,0.4,6.4,0.2,9.5-0.5c3.5-0.9,7.2-2.4,11.1-3.8c3.7-1.4,7.7-2.1,11.7-2.1
	c3.3,0.1,6.5,0.8,9.5,2.1c2,0.8,3.9,2,5.7,3.3c0.5,0.4,0.9,0.7,1.3,1.2C608.1,694,608.2,694.2,608.2,694.2L608.2,694.2z"/>
<path class="st4" d="M607.5,697.6c-0.1,0.2-2.5-2.3-7.3-4.3c-2.8-1.2-5.9-1.8-9-1.8c-3.8,0-7.5,0.7-11,2c-3.8,1.3-7.4,2.8-10.8,3.7
	c-3,0.9-6.2,1.2-9.3,1c-2.1-0.1-4.2-0.7-6.1-1.6c-0.5-0.3-1-0.6-1.5-0.9c-0.3-0.2-0.5-0.4-0.5-0.4c0-0.1,0.7,0.4,2.1,1
	c1.9,0.8,3.9,1.3,6,1.3c3.1,0.1,6.2-0.3,9.1-1.2c3.4-0.9,6.9-2.4,10.8-3.7c3.6-1.3,7.5-2,11.3-2c3.2,0.1,6.3,0.8,9.2,2.1
	c1.9,0.9,3.8,2,5.4,3.3c0.5,0.4,0.9,0.7,1.3,1.1C607.4,697.4,607.5,697.5,607.5,697.6z"/>
<path class="st4" d="M609,690.9c-2.4-1.8-5.1-3.4-7.8-4.6c-3-1.3-6.2-2.1-9.5-2.3c-3.7-0.3-7.7,0.7-11.8,2.1
	c-4.1,1.4-7.9,3-11.6,3.8c-3.3,0.6-6.7,0.6-10,0c-2.2-0.4-4.4-1-6.4-2c-0.5-0.3-1.1-0.6-1.6-1c-0.3-0.3-0.5-0.4-0.5-0.4
	c0-0.1,0.8,0.4,2.2,1.1c2,0.9,4.2,1.5,6.4,1.8c3.3,0.5,6.6,0.4,9.8-0.2c3.6-0.8,7.4-2.5,11.5-3.8c4.1-1.4,8.3-2.4,12.1-2.1
	c5.6,0.5,11,2.5,15.5,6c0.5,0.4,0.9,0.8,1.4,1.2C608.9,690.7,609.1,690.9,609,690.9L609,690.9z"/>
<path class="st3" d="M623.8,669.6c0,0.2-19.5,0.4-43.6,0.4c-24.1,0-43.6-0.2-43.6-0.4c0-0.2,19.5-0.4,43.6-0.4
	S623.8,669.3,623.8,669.6z"/>
<g>
	<path d="M298,559.4h-3.6c-0.1,1.3-0.4,2.4-0.9,3.3c-0.5,1-1.2,1.8-2.1,2.4c-0.8,0.6-1.8,1.1-2.8,1.4c-1.1,0.3-2.1,0.5-3.2,0.5h-0.5
		v0.1c0.8,0.8,1.6,1.6,2.3,2.5c0.7,0.9,1.5,1.8,2.2,2.7l5.8,7v0.3H291c-0.9-1.1-1.8-2.2-2.9-3.6c-1-1.3-2-2.6-3-3.8
		c-1-1.2-1.9-2.3-2.7-3.3s-1.5-1.7-2-2.1c0.2-0.5,0.3-0.9,0.5-1.4c0.1-0.5,0.3-0.9,0.5-1.3c0.8,0.2,1.7,0.3,2.6,0.3
		c0.8,0,1.7-0.1,2.4-0.3c0.8-0.2,1.5-0.5,2.1-0.9c0.6-0.4,1.1-1,1.5-1.6c0.4-0.6,0.6-1.4,0.7-2.3h-10v-2.8h9.7
		c-0.4-1.1-1-1.9-1.9-2.4c-0.9-0.5-1.9-0.8-3-0.8h-4.8v-2.9h18.7c-0.2,0.5-0.5,0.9-0.7,1.4c-0.2,0.5-0.5,1-0.7,1.4h-6.2v0.2
		c0.4,0.2,0.8,0.6,1.3,1.1c0.5,0.5,0.8,1.1,1,1.9h5.4L298,559.4z"/>
</g>
</svg>
