<svg width="621" height="544" viewBox="0 0 621 544" fill="none" xmlns="http://www.w3.org/2000/svg">
<g clip-path="url(#clip0_2012_10)">
<path d="M483.634 455.782C540.647 456.558 605.416 458.111 605.416 458.111C605.416 458.111 620.807 458.111 620.807 449.461C620.807 446.11 619.596 431.443 581.443 443.429C584.126 441.779 598.543 436.337 592.96 427.996C589.434 422.728 582.438 427.157 580.006 429.161C584.279 423.374 585.829 398.54 570.583 386.428C547.783 368.312 525.811 383.918 521.683 392.445C519.592 384.077 509.989 377.739 503.665 376.169C489.243 372.588 479.847 373.649 466.382 379.938C461.62 382.162 455.241 389.759 452.075 393.956C447.114 400.529 446.342 409.271 446.068 417.498C445.863 423.675 445.835 429.855 445.985 436.036" fill="#D6F2FF"/>
<path d="M475.236 457.485L599.783 459.185C601.176 459.203 605.568 457.845 598.001 452.965C591.592 448.833 571.333 452.551 571.333 452.551C571.333 452.551 576.048 450.661 576.027 448.221C575.931 447 575.498 445.83 574.775 444.841C574.053 443.852 573.07 443.084 571.936 442.621C569.653 441.73 567.189 441.405 564.753 441.675C559.785 441.961 554.897 443.055 550.281 444.914C550.777 444.615 551.206 444.217 551.541 443.744C551.876 443.272 552.109 442.735 552.226 442.168C552.344 441.601 552.343 441.016 552.223 440.449C552.104 439.883 551.868 439.347 551.532 438.875C551.195 438.404 550.765 438.008 550.267 437.711C549.77 437.414 549.217 437.223 548.643 437.15C548.068 437.077 547.485 437.124 546.929 437.287C546.373 437.45 545.858 437.727 545.414 438.099C548.526 433.886 553.336 415.211 538.553 406.981C520.023 396.666 505.953 405.155 502.947 411.363C501.425 405.269 494.432 400.656 489.827 399.513C479.327 396.905 472.483 397.677 462.679 402.256C459.21 403.876 454.565 409.409 452.259 412.465C448.648 417.252 448.086 423.616 447.887 429.608C447.737 434.107 447.716 438.607 447.825 443.108" fill="#B8DFF2"/>
<path d="M340.286 455.782C283.273 456.558 218.504 458.111 218.504 458.111C218.504 458.111 203.111 458.111 203.111 449.461C203.111 446.11 204.324 431.443 242.477 443.429C239.792 441.779 225.377 436.337 230.96 427.996C234.486 422.728 241.482 427.157 243.912 429.161C239.64 423.374 238.089 398.54 253.336 386.428C276.136 368.312 298.108 383.918 302.236 392.445C304.328 384.077 313.93 377.739 320.254 376.169C334.677 372.588 344.073 373.649 357.537 379.938C362.301 382.162 368.68 389.759 371.845 393.956C376.804 400.529 377.578 409.271 377.85 417.498C378.055 423.675 378.083 429.855 377.933 436.036" fill="#D6F2FF"/>
<path d="M348.683 457.485L224.136 459.185C222.743 459.203 218.351 457.845 225.918 452.965C232.327 448.833 252.584 452.551 252.584 452.551C252.584 452.551 247.869 450.661 247.892 448.221C247.988 447 248.421 445.83 249.144 444.842C249.866 443.853 250.848 443.084 251.982 442.621C254.265 441.73 256.731 441.405 259.167 441.675C264.135 441.961 269.023 443.055 273.639 444.914C273.142 444.616 272.713 444.217 272.378 443.745C272.042 443.272 271.808 442.736 271.69 442.168C271.573 441.601 271.574 441.015 271.693 440.448C271.812 439.881 272.048 439.345 272.385 438.874C272.721 438.402 273.152 438.005 273.649 437.708C274.147 437.411 274.701 437.22 275.275 437.148C275.85 437.075 276.434 437.122 276.99 437.285C277.546 437.449 278.061 437.726 278.505 438.099C275.395 433.886 270.584 415.211 285.368 406.981C303.898 396.666 317.968 405.155 320.968 411.363C322.491 405.269 329.485 400.656 334.088 399.513C344.588 396.905 351.433 397.677 361.238 402.256C364.707 403.876 369.351 409.409 371.657 412.465C375.27 417.252 375.832 423.616 376.03 429.608C376.18 434.107 376.201 438.607 376.092 443.108" fill="#B8DFF2"/>
<path d="M303.595 390.482C303.49 390.587 304.76 380.482 291.089 369.122C277.231 357.122 244.795 355.298 241.773 344.682C238.643 333.329 258.629 337.909 268.231 330.757C277.931 323.428 281.28 319.934 269.361 316.257C257.477 312.788 250.261 311.029 251.322 300.984C252.388 290.819 231.943 293.705 222.702 285.262C213.151 276.789 219.802 267.395 239.256 269.934C258.323 272.906 259.343 269.817 254.108 266.296C248.967 262.812 232.698 256.042 240.339 251.557C248.178 247.03 258.363 252.78 253.359 245.687C248.43 238.549 235.503 232.445 242.753 225.956C249.996 219.375 266.753 221.756 274.397 241.517C281.842 261.197 284.434 266.736 293.469 269.723C302.258 272.767 311.797 263.881 322.488 269.031C333.077 274.304 329.908 284.639 322.62 290.977C315.163 297.313 302.507 310.101 308.692 317.017C314.609 323.958 323.523 315.505 333.292 314.809C344.135 314.036 355.318 324.38 343.819 337.951C331.954 351.275 314.779 360.981 311.053 394.186C308.588 392.904 306.102 391.669 303.595 390.482Z" fill="#D6F2FF"/>
<path opacity="0.7" d="M307.769 393.084C307.627 393.087 307.49 393.038 307.382 392.946C307.275 392.853 307.205 392.725 307.187 392.584C292.979 274.926 251.778 228.174 251.364 227.716C251.309 227.661 251.266 227.596 251.238 227.523C251.209 227.451 251.195 227.374 251.197 227.297C251.199 227.219 251.217 227.143 251.249 227.072C251.282 227.002 251.328 226.939 251.385 226.887C251.443 226.834 251.51 226.794 251.583 226.769C251.657 226.744 251.734 226.733 251.812 226.739C251.889 226.744 251.964 226.765 252.033 226.801C252.102 226.836 252.163 226.885 252.213 226.945C252.63 227.407 294.075 274.432 308.327 392.445C308.345 392.596 308.303 392.748 308.209 392.868C308.115 392.988 307.978 393.066 307.827 393.084C307.808 393.086 307.788 393.086 307.769 393.084Z" fill="#F0FBFF"/>
<path opacity="0.7" d="M275.025 267.178C274.891 267.183 274.76 267.139 274.655 267.055C261.055 256.206 244.113 254.717 243.944 254.704C243.792 254.692 243.652 254.62 243.553 254.504C243.454 254.389 243.405 254.239 243.417 254.087C243.421 254.011 243.441 253.937 243.474 253.869C243.508 253.8 243.555 253.74 243.613 253.691C243.671 253.641 243.739 253.605 243.811 253.582C243.884 253.56 243.96 253.553 244.036 253.561C244.21 253.574 261.486 255.084 275.369 266.161C275.461 266.234 275.528 266.334 275.562 266.447C275.595 266.56 275.593 266.68 275.555 266.792C275.517 266.904 275.446 267.001 275.352 267.071C275.257 267.14 275.143 267.179 275.025 267.182V267.178Z" fill="#F0FBFF"/>
<path opacity="0.7" d="M288.46 302.117C288.383 302.119 288.307 302.105 288.235 302.076C288.164 302.048 288.099 302.005 288.045 301.95C287.991 301.897 287.949 301.834 287.92 301.764C287.891 301.695 287.876 301.62 287.876 301.545C287.876 301.469 287.891 301.394 287.92 301.325C287.949 301.255 287.991 301.192 288.045 301.139C298.482 291.041 309.863 281.966 322.031 274.039C322.095 273.998 322.166 273.97 322.24 273.957C322.314 273.944 322.39 273.945 322.464 273.961C322.538 273.977 322.608 274.008 322.67 274.051C322.732 274.094 322.785 274.149 322.826 274.213C322.866 274.276 322.894 274.347 322.907 274.421C322.921 274.496 322.919 274.572 322.903 274.646C322.887 274.72 322.857 274.789 322.814 274.851C322.77 274.913 322.716 274.966 322.652 275.007C310.553 282.887 299.238 291.907 288.86 301.946C288.754 302.053 288.611 302.115 288.46 302.117Z" fill="#F0FBFF"/>
<path opacity="0.7" d="M285.872 294.398C285.783 294.4 285.695 294.382 285.615 294.345C259.643 282.099 229.899 279.836 229.603 279.816C229.451 279.805 229.31 279.734 229.21 279.619C229.111 279.504 229.061 279.354 229.071 279.202C229.073 279.126 229.091 279.051 229.123 278.982C229.156 278.913 229.202 278.851 229.26 278.801C229.317 278.751 229.385 278.714 229.458 278.692C229.53 278.669 229.607 278.662 229.683 278.671C229.983 278.691 259.938 280.971 286.102 293.305C286.219 293.36 286.314 293.453 286.371 293.569C286.429 293.684 286.446 293.816 286.419 293.942C286.392 294.069 286.324 294.183 286.225 294.265C286.125 294.348 286.001 294.395 285.872 294.398Z" fill="#F0FBFF"/>
<path opacity="0.7" d="M302.034 355.889C301.934 355.893 301.835 355.869 301.747 355.821C284.033 346.19 253.392 343.004 253.085 342.973C252.934 342.958 252.795 342.883 252.699 342.765C252.603 342.648 252.558 342.497 252.573 342.346C252.58 342.271 252.602 342.198 252.637 342.131C252.672 342.065 252.721 342.006 252.779 341.958C252.837 341.911 252.905 341.875 252.977 341.854C253.049 341.832 253.125 341.826 253.2 341.834C253.509 341.864 284.376 345.071 302.294 354.814C302.36 354.85 302.419 354.899 302.466 354.957C302.514 355.016 302.549 355.083 302.57 355.155C302.592 355.228 302.599 355.303 302.591 355.378C302.583 355.453 302.56 355.526 302.524 355.592C302.476 355.681 302.406 355.755 302.319 355.807C302.233 355.859 302.135 355.888 302.034 355.889Z" fill="#F0FBFF"/>
<path opacity="0.7" d="M303.525 364.101C303.441 364.103 303.357 364.086 303.28 364.051C303.211 364.02 303.149 363.977 303.097 363.922C303.046 363.868 303.005 363.803 302.978 363.733C302.951 363.663 302.938 363.588 302.94 363.513C302.942 363.438 302.959 363.364 302.99 363.295C312.89 341.074 336.09 324.64 336.322 324.478C336.384 324.435 336.453 324.404 336.527 324.387C336.6 324.371 336.676 324.369 336.751 324.382C336.825 324.395 336.896 324.422 336.96 324.462C337.023 324.503 337.079 324.555 337.122 324.617C337.165 324.679 337.196 324.748 337.213 324.822C337.229 324.895 337.231 324.971 337.218 325.046C337.205 325.12 337.178 325.191 337.138 325.255C337.097 325.318 337.045 325.374 336.983 325.417C336.751 325.579 313.803 341.836 304.036 363.76C303.992 363.859 303.92 363.944 303.83 364.005C303.739 364.065 303.634 364.098 303.525 364.101Z" fill="#F0FBFF"/>
<path d="M534.647 289.142C534.759 289.242 532.69 279.264 545.411 266.853C558.269 253.789 590.457 249.388 592.624 238.565C594.841 226.998 575.282 233.155 565.142 226.791C554.893 220.262 551.273 217.042 562.861 212.436C574.433 208.031 581.484 205.703 579.629 195.775C577.757 185.727 598.366 186.975 606.906 177.824C615.753 168.617 608.374 159.781 589.184 163.863C570.414 168.343 569.152 165.345 574.084 161.418C578.931 157.537 594.611 149.493 586.637 145.631C578.461 141.743 568.768 148.284 573.191 140.815C577.536 133.306 589.935 126.193 582.191 120.301C574.449 114.319 557.936 118.03 551.891 138.334C546.036 158.544 543.891 164.272 535.125 167.968C526.607 171.702 516.39 163.605 506.143 169.59C496.008 175.69 499.991 185.739 507.76 191.475C515.698 197.197 529.332 208.937 523.717 216.324C518.371 223.714 508.817 215.997 499.017 216.082C488.148 216.175 477.822 227.377 490.365 239.99C503.255 252.326 521.149 260.632 527.506 293.437C529.861 291.96 532.242 290.528 534.647 289.142Z" fill="#D6F2FF"/>
<path opacity="0.7" d="M530.69 292.072C530.832 292.064 530.966 292.004 531.066 291.903C531.166 291.802 531.225 291.667 531.231 291.525C536.031 173.109 573.375 123.225 573.75 122.734C573.796 122.674 573.83 122.606 573.849 122.534C573.869 122.461 573.874 122.385 573.865 122.31C573.855 122.236 573.831 122.164 573.793 122.099C573.756 122.033 573.706 121.976 573.646 121.93C573.586 121.884 573.518 121.85 573.446 121.831C573.373 121.811 573.297 121.806 573.222 121.816C573.148 121.825 573.076 121.849 573.011 121.887C572.945 121.924 572.888 121.974 572.842 122.034C572.462 122.528 534.895 172.703 530.084 291.476C530.08 291.552 530.092 291.627 530.118 291.698C530.143 291.769 530.183 291.834 530.234 291.89C530.285 291.946 530.346 291.991 530.415 292.023C530.483 292.055 530.558 292.073 530.633 292.076C530.652 292.076 530.671 292.075 530.69 292.072Z" fill="#F0FBFF"/>
<path opacity="0.7" d="M553.308 163.963C553.442 163.955 553.569 163.901 553.667 163.81C566.367 151.91 583.13 149.08 583.296 149.053C583.446 149.029 583.581 148.946 583.67 148.823C583.759 148.7 583.796 148.546 583.772 148.396C583.762 148.321 583.737 148.248 583.697 148.183C583.658 148.118 583.607 148.061 583.545 148.016C583.483 147.972 583.413 147.94 583.339 147.924C583.265 147.907 583.188 147.906 583.113 147.92C582.943 147.948 565.841 150.828 552.883 162.972C552.772 163.076 552.707 163.22 552.702 163.372C552.697 163.524 552.752 163.672 552.856 163.783C552.914 163.844 552.984 163.892 553.062 163.923C553.14 163.954 553.224 163.967 553.308 163.963Z" fill="#F0FBFF"/>
<path opacity="0.7" d="M542.693 199.857C542.807 199.85 542.917 199.81 543.008 199.74C543.099 199.671 543.167 199.576 543.203 199.468C543.24 199.359 543.243 199.242 543.212 199.132C543.182 199.022 543.119 198.923 543.032 198.849C531.823 189.613 519.755 181.472 506.993 174.539C506.859 174.467 506.701 174.452 506.556 174.496C506.41 174.54 506.288 174.641 506.216 174.775C506.144 174.909 506.129 175.067 506.173 175.212C506.217 175.358 506.318 175.48 506.452 175.552C519.142 182.445 531.141 190.538 542.287 199.72C542.399 199.817 542.545 199.866 542.693 199.857Z" fill="#F0FBFF"/>
<path opacity="0.7" d="M544.663 191.954C544.752 191.95 544.838 191.925 544.915 191.881C569.829 177.606 599.298 172.981 599.592 172.937C599.666 172.926 599.738 172.9 599.802 172.861C599.867 172.823 599.923 172.771 599.968 172.711C600.013 172.65 600.045 172.581 600.063 172.508C600.081 172.435 600.084 172.359 600.073 172.285C600.065 172.209 600.042 172.136 600.004 172.069C599.966 172.003 599.915 171.945 599.854 171.9C599.792 171.854 599.722 171.822 599.647 171.806C599.573 171.789 599.496 171.788 599.421 171.803C599.121 171.848 569.444 176.503 544.347 190.884C544.235 190.948 544.148 191.048 544.1 191.168C544.052 191.288 544.046 191.421 544.082 191.545C544.119 191.669 544.196 191.776 544.302 191.851C544.407 191.925 544.535 191.962 544.664 191.955L544.663 191.954Z" fill="#F0FBFF"/>
<path opacity="0.7" d="M533.448 254.54C533.548 254.534 533.644 254.502 533.728 254.448C550.619 243.435 580.908 237.822 581.212 237.765C581.286 237.751 581.357 237.724 581.42 237.683C581.483 237.642 581.538 237.589 581.581 237.527C581.624 237.465 581.654 237.396 581.67 237.322C581.686 237.249 581.687 237.172 581.674 237.098C581.66 237.024 581.632 236.954 581.591 236.89C581.551 236.827 581.498 236.772 581.436 236.73C581.374 236.687 581.304 236.657 581.231 236.641C581.157 236.625 581.081 236.623 581.007 236.637C580.702 236.694 550.186 242.347 533.107 253.487C533.001 253.556 532.92 253.658 532.878 253.777C532.836 253.896 532.835 254.026 532.874 254.146C532.913 254.267 532.991 254.37 533.096 254.442C533.201 254.513 533.326 254.547 533.452 254.54H533.448Z" fill="#F0FBFF"/>
<path opacity="0.7" d="M532.613 262.842C532.698 262.838 532.781 262.815 532.855 262.774C532.921 262.738 532.979 262.69 533.026 262.631C533.074 262.573 533.109 262.505 533.13 262.433C533.152 262.361 533.158 262.286 533.15 262.211C533.143 262.136 533.12 262.064 533.084 261.998C521.45 240.636 497.012 226.098 496.767 225.958C496.636 225.881 496.479 225.858 496.331 225.897C496.184 225.935 496.057 226.03 495.98 226.161C495.903 226.292 495.88 226.449 495.918 226.597C495.957 226.744 496.052 226.871 496.183 226.948C496.427 227.09 520.596 241.47 532.083 262.548C532.135 262.642 532.212 262.719 532.306 262.771C532.4 262.823 532.506 262.848 532.613 262.842Z" fill="#F0FBFF"/>
<path d="M0 458.111H620.808" stroke="#2A4282" stroke-width="1.188" stroke-miterlimit="10"/>
<path d="M38.79 451.714C38.3396 448.272 37.1911 444.958 35.415 441.976C33.6389 438.993 31.2726 436.405 28.461 434.369C18.721 427.022 10.417 427.769 11.645 419.255C12.873 410.741 3.70701 415.397 0.979006 402.465C-1.74899 389.533 0.869001 374.684 13.39 381.077C25.911 387.47 18.907 402.859 27.307 405.559C35.707 408.259 40.883 406.4 40.971 417.559C41.059 428.718 38.134 432.281 41.952 437.337C45.77 442.393 45.945 453.291 45.945 453.291" fill="#618CD1"/>
<path d="M22.146 407.655C19.722 401.516 19.164 398.186 20.593 394.755" stroke="white" stroke-width="0.863" stroke-miterlimit="10"/>
<path d="M29.614 420.352C28.586 415.089 30.514 411.061 33.275 408.842" stroke="white" stroke-width="0.863" stroke-miterlimit="10"/>
<path d="M34.216 429.498C33.188 424.235 35.116 420.207 37.875 417.988" stroke="white" stroke-width="0.863" stroke-miterlimit="10"/>
<path d="M40.115 443.377C39.6367 441.142 39.7581 438.82 40.467 436.647" stroke="white" stroke-width="0.863" stroke-miterlimit="10"/>
<path d="M26.858 414.709C23.202 412.346 13.804 406.346 6.209 409.897" stroke="white" stroke-width="0.863" stroke-miterlimit="10"/>
<path d="M32.104 425.188C30.587 423.274 22.563 420.429 15.091 424.252" stroke="white" stroke-width="0.863" stroke-miterlimit="10"/>
<path d="M37.324 436.29C36.016 434.228 30.771 432.022 28.38 432.522" stroke="white" stroke-width="0.863" stroke-miterlimit="10"/>
<path d="M42.805 451.279C41.188 444.661 27.284 408.446 8.649 390.965" stroke="white" stroke-width="1.725" stroke-miterlimit="10"/>
<path d="M19.893 403.508C14.045 398.969 10.12 394.05 2.066 394.372" stroke="white" stroke-width="0.863" stroke-miterlimit="10"/>
<path d="M52.374 452.528C52.374 452.528 46.554 440.517 50.488 434.736C54.422 428.955 60.353 427.599 58.651 419.807C56.949 412.015 50.078 405.2 52.706 397.266C55.334 389.332 68.142 390.485 71.374 383.822C74.606 377.159 74.748 369.686 82.368 371.753C89.988 373.82 96.745 383.143 88.609 392.38C80.473 401.617 81.019 403.421 81.496 410.054C81.973 416.687 68.696 420.485 67.022 425.799C65.348 431.113 71.537 437.112 67.556 439.847C63.575 442.582 58.073 447.526 58.35 454.219" fill="#4978C4"/>
<path d="M70.029 400.365C71.254 393.879 71.175 390.504 69.129 387.402" stroke="white" stroke-width="0.863" stroke-miterlimit="10"/>
<path d="M64.728 413.745C64.746 408.384 62.628 398.132 59.502 396.473" stroke="white" stroke-width="0.863" stroke-miterlimit="10"/>
<path d="M61.425 424.347C61.442 418.984 59.695 411.117 56.566 409.458" stroke="white" stroke-width="0.863" stroke-miterlimit="10"/>
<path d="M56.585 441.65C56.6348 439.364 56.0783 437.107 54.972 435.106" stroke="white" stroke-width="0.863" stroke-miterlimit="10"/>
<path d="M66.726 408.18C70.038 402.717 73.404 399.345 83.732 395.791" stroke="white" stroke-width="0.863" stroke-miterlimit="10"/>
<path d="M62.674 420.033C63.802 417.867 70.474 411.833 77.618 412.444" stroke="white" stroke-width="0.863" stroke-miterlimit="10"/>
<path d="M58.236 435.17C59.136 432.897 63.866 429.744 66.309 429.785" stroke="white" stroke-width="0.863" stroke-miterlimit="10"/>
<path d="M55.463 450.647C55.805 443.847 65.129 402.109 80.138 381.432" stroke="white" stroke-width="1.725" stroke-miterlimit="10"/>
<path d="M71.456 395.867C76.345 390.306 79.273 384.736 87.243 383.536" stroke="white" stroke-width="0.863" stroke-miterlimit="10"/>
<path d="M43.356 448.359C43.356 448.359 46.913 434.55 44.402 430.573C41.891 426.596 34.156 419.069 32.898 410.279C31.64 401.489 36.874 394.167 35.828 387.054C34.782 379.941 19.089 369.896 19.089 361.317C19.089 352.738 27.576 341.23 38.815 346.879C50.054 352.528 46.29 364.456 51.521 372.616C56.752 380.776 74.121 398.563 64.703 412.372C55.285 426.181 51.94 436.657 53.613 445.858" fill="#6D97E4"/>
<path d="M49.169 397.428C49.506 390.835 52.176 385.407 54.899 382.876" stroke="white" stroke-width="0.863" stroke-miterlimit="10"/>
<path d="M50.622 411.54C51.868 406.324 54.46 403.457 57.89 402.581" stroke="white" stroke-width="0.863" stroke-miterlimit="10"/>
<path d="M44.002 376.48C43.874 370.543 43.62 364.606 45.238 360.647" stroke="white" stroke-width="0.863" stroke-miterlimit="10"/>
<path d="M50.869 421.77C52.114 416.554 54.859 413.687 58.289 412.811" stroke="white" stroke-width="0.863" stroke-miterlimit="10"/>
<path d="M50.34 437.178C50.946 434.645 51.531 432.332 52.916 430.867" stroke="white" stroke-width="0.863" stroke-miterlimit="10"/>
<path d="M50.248 406.35C48.511 401.86 45.89 393.85 37.505 393.936" stroke="white" stroke-width="0.863" stroke-miterlimit="10"/>
<path d="M50.909 416.127C50.322 413.756 44.9 407.22 36.516 407.604" stroke="white" stroke-width="0.863" stroke-miterlimit="10"/>
<path d="M50.622 429.24C50.287 426.821 46.007 422.64 43.622 422.105" stroke="white" stroke-width="0.863" stroke-miterlimit="10"/>
<path d="M48.982 445.153C50.252 438.459 57.217 387.816 32.82 355.429" stroke="white" stroke-width="1.725" stroke-miterlimit="10"/>
<path d="M47.638 389.27C44.196 382.716 42.944 379.524 35.481 376.48" stroke="white" stroke-width="0.863" stroke-miterlimit="10"/>
<path d="M40.263 367.413C34.336 362.976 31.833 360.633 23.786 361.097" stroke="white" stroke-width="0.863" stroke-miterlimit="10"/>
<path d="M71.037 450.513L70.801 451.726L65.983 475.144H32.861L28.043 451.726L27.807 450.513H71.037Z" fill="#DAE2F2"/>
<path opacity="0.3" d="M71.037 450.513L70.801 451.726H28.043L27.807 450.513H71.037Z" fill="#9ABEEA"/>
<path d="M74.336 443.555H24.509C23.8463 443.555 23.309 444.092 23.309 444.755V449.325C23.309 449.988 23.8463 450.525 24.509 450.525H74.336C74.9987 450.525 75.536 449.988 75.536 449.325V444.755C75.536 444.092 74.9987 443.555 74.336 443.555Z" fill="#DAE2F2"/>
<path d="M475.606 461.987H323.665C305.365 461.903 290.381 446.299 290.458 427.999L292.07 46.539C292.089 42.1852 292.965 37.8776 294.648 33.8624C296.332 29.8473 298.79 26.2031 301.883 23.1382C304.975 20.0732 308.641 17.6475 312.671 15.9996C316.701 14.3517 321.016 13.5139 325.37 13.534L477.527 14.234C486.315 14.2751 494.727 17.8045 500.913 24.0462C507.1 30.2879 510.554 38.731 510.517 47.519L508.903 428.982C508.885 433.336 508.009 437.643 506.326 441.658C504.642 445.674 502.184 449.318 499.092 452.383C496 455.448 492.334 457.873 488.305 459.521C484.275 461.169 479.96 462.007 475.606 461.987Z" fill="#263238"/>
<path d="M477.308 27.401L447.808 27.2649C445.866 27.3004 444.017 28.1056 442.668 29.5035C441.319 30.9014 440.58 32.7776 440.614 34.72L440.59 40.072C440.624 42.0144 439.886 43.891 438.537 45.289C437.188 46.687 435.338 47.492 433.396 47.527L375.896 47.261C373.953 47.2081 372.111 46.3861 370.774 44.9757C369.437 43.5653 368.714 41.6818 368.765 39.739L368.788 34.3889C368.838 32.4461 368.115 30.5627 366.778 29.1524C365.441 27.7421 363.599 26.9201 361.656 26.867L351.28 26.819L325.46 26.7C322.411 26.6859 319.389 27.2726 316.567 28.4267C313.745 29.5808 311.178 31.2796 309.012 33.426C306.847 35.5725 305.125 38.1246 303.946 40.9364C302.767 43.7483 302.154 46.7649 302.141 49.814L300.566 422.147C300.54 428.302 302.959 434.215 307.292 438.587C311.625 442.959 317.517 445.43 323.672 445.459L475.525 446.159C478.574 446.173 481.596 445.586 484.418 444.432C487.24 443.277 489.807 441.579 491.972 439.432C494.138 437.286 495.859 434.734 497.038 431.922C498.217 429.11 498.831 426.094 498.844 423.045L500.417 50.7099C500.443 44.5548 498.023 38.6414 493.689 34.2702C489.356 29.8991 483.463 27.4282 477.308 27.401Z" fill="#C7E9FF"/>
<path d="M476.215 385.502H324.761C322.98 385.502 321.537 386.945 321.537 388.726V418.403C321.537 420.184 322.98 421.627 324.761 421.627H476.215C477.996 421.627 479.439 420.184 479.439 418.403V388.726C479.439 386.945 477.996 385.502 476.215 385.502Z" fill="#4F78D3"/>
<path opacity="0.3" d="M357.942 392.838H341.832C340.107 392.838 338.708 394.237 338.708 395.962V412.072C338.708 413.797 340.107 415.196 341.832 415.196H357.942C359.667 415.196 361.066 413.797 361.066 412.072V395.962C361.066 394.237 359.667 392.838 357.942 392.838Z" fill="black"/>
<path d="M349.887 410.503C349.735 410.503 349.589 410.443 349.482 410.335C349.374 410.228 349.314 410.082 349.314 409.93V398.105C349.311 398.028 349.323 397.951 349.351 397.878C349.378 397.806 349.419 397.74 349.473 397.684C349.526 397.629 349.591 397.584 349.662 397.554C349.733 397.524 349.809 397.508 349.887 397.508C349.964 397.508 350.04 397.524 350.111 397.554C350.182 397.584 350.247 397.629 350.3 397.684C350.354 397.74 350.395 397.806 350.422 397.878C350.45 397.951 350.462 398.028 350.459 398.105V409.926C350.46 410.001 350.445 410.076 350.417 410.146C350.388 410.216 350.346 410.28 350.293 410.333C350.24 410.387 350.177 410.43 350.107 410.459C350.037 410.488 349.963 410.503 349.887 410.503Z" fill="white"/>
<path d="M355.695 404.59H344.078C343.93 404.584 343.791 404.521 343.688 404.414C343.586 404.307 343.529 404.165 343.529 404.017C343.529 403.87 343.586 403.728 343.688 403.621C343.791 403.514 343.93 403.451 344.078 403.445H355.695C355.772 403.442 355.849 403.454 355.922 403.481C355.994 403.509 356.06 403.55 356.116 403.604C356.171 403.657 356.216 403.722 356.246 403.793C356.276 403.864 356.292 403.94 356.292 404.017C356.292 404.095 356.276 404.171 356.246 404.242C356.216 404.313 356.171 404.378 356.116 404.431C356.06 404.484 355.994 404.526 355.922 404.553C355.849 404.581 355.772 404.593 355.695 404.59Z" fill="white"/>
<path d="M380.675 406.141H376.73L375.912 407.997H374.821L378.182 400.573H379.232L382.605 407.997H381.492L380.675 406.141ZM380.304 405.292L378.704 401.654L377.104 405.292H380.304Z" fill="white"/>
<path d="M383.714 400.573H386.844C387.355 400.534 387.87 400.6 388.354 400.769C388.839 400.938 389.283 401.205 389.659 401.553C390.036 401.902 390.336 402.324 390.542 402.794C390.747 403.265 390.853 403.772 390.853 404.285C390.853 404.798 390.747 405.305 390.542 405.776C390.336 406.246 390.036 406.668 389.659 407.017C389.283 407.365 388.839 407.632 388.354 407.801C387.87 407.97 387.355 408.036 386.844 407.997H383.714V400.573ZM386.78 407.073C387.166 407.106 387.555 407.058 387.922 406.933C388.289 406.807 388.625 406.607 388.911 406.345C389.196 406.083 389.424 405.764 389.58 405.409C389.736 405.054 389.816 404.671 389.816 404.283C389.816 403.895 389.736 403.512 389.58 403.157C389.424 402.802 389.196 402.483 388.911 402.221C388.625 401.959 388.289 401.759 387.922 401.633C387.555 401.508 387.166 401.46 386.78 401.493H384.775V407.073H386.78Z" fill="white"/>
<path d="M392.476 400.573H395.606C396.118 400.534 396.632 400.6 397.116 400.769C397.601 400.938 398.045 401.205 398.421 401.553C398.798 401.902 399.098 402.324 399.304 402.794C399.509 403.265 399.615 403.772 399.615 404.285C399.615 404.798 399.509 405.305 399.304 405.776C399.098 406.246 398.798 406.668 398.421 407.017C398.045 407.365 397.601 407.632 397.116 407.801C396.632 407.97 396.118 408.036 395.606 407.997H392.476V400.573ZM395.542 407.073C395.928 407.106 396.317 407.058 396.684 406.933C397.051 406.807 397.387 406.607 397.673 406.345C397.958 406.083 398.186 405.764 398.342 405.409C398.498 405.054 398.578 404.671 398.578 404.283C398.578 403.895 398.498 403.512 398.342 403.157C398.186 402.802 397.958 402.483 397.673 402.221C397.387 401.959 397.051 401.759 396.684 401.633C396.317 401.508 395.928 401.46 395.542 401.493H393.537V407.073H395.542Z" fill="white"/>
<path d="M405.58 401.495H403.034V400.573H409.176V401.495H406.63V407.995H405.58V401.495Z" fill="white"/>
<path d="M409.624 404.284C409.594 403.498 409.8 402.72 410.215 402.052C410.63 401.383 411.236 400.854 411.954 400.532C412.672 400.21 413.47 400.11 414.245 400.244C415.02 400.379 415.738 400.742 416.305 401.287C416.873 401.832 417.265 402.534 417.431 403.303C417.596 404.073 417.528 404.874 417.236 405.604C416.943 406.335 416.439 406.961 415.787 407.403C415.136 407.845 414.368 408.082 413.581 408.084C413.068 408.109 412.555 408.029 412.074 407.849C411.593 407.669 411.154 407.392 410.784 407.037C410.413 406.681 410.119 406.253 409.92 405.78C409.721 405.307 409.62 404.798 409.624 404.284ZM416.455 404.284C416.461 403.712 416.297 403.151 415.983 402.672C415.67 402.193 415.221 401.819 414.693 401.596C414.166 401.373 413.585 401.312 413.023 401.42C412.461 401.529 411.944 401.802 411.538 402.206C411.131 402.609 410.854 403.124 410.742 403.685C410.629 404.246 410.686 404.828 410.905 405.357C411.124 405.886 411.495 406.337 411.971 406.654C412.448 406.972 413.008 407.14 413.58 407.138C413.959 407.15 414.337 407.085 414.689 406.946C415.042 406.807 415.363 406.598 415.632 406.33C415.901 406.063 416.113 405.744 416.255 405.392C416.396 405.04 416.464 404.663 416.455 404.284Z" fill="white"/>
<path d="M421.397 404.284C421.39 403.772 421.489 403.263 421.686 402.79C421.883 402.317 422.175 401.89 422.544 401.534C422.912 401.178 423.35 400.901 423.829 400.721C424.309 400.54 424.82 400.46 425.332 400.484C425.858 400.463 426.382 400.556 426.869 400.756C427.356 400.955 427.794 401.257 428.154 401.641L427.463 402.309C427.197 402.022 426.874 401.796 426.513 401.644C426.153 401.492 425.765 401.419 425.374 401.429C424.995 401.422 424.618 401.49 424.266 401.631C423.913 401.771 423.592 401.98 423.322 402.246C423.051 402.511 422.836 402.828 422.689 403.178C422.542 403.528 422.467 403.903 422.467 404.283C422.467 404.662 422.542 405.037 422.689 405.387C422.836 405.737 423.051 406.054 423.322 406.319C423.592 406.585 423.913 406.794 424.266 406.934C424.618 407.075 424.995 407.143 425.374 407.136C425.766 407.144 426.154 407.069 426.514 406.915C426.875 406.762 427.198 406.533 427.463 406.245L428.154 406.914C427.793 407.3 427.353 407.604 426.864 407.805C426.376 408.006 425.849 408.1 425.321 408.08C424.81 408.104 424.3 408.022 423.822 407.842C423.344 407.661 422.907 407.384 422.54 407.029C422.173 406.673 421.882 406.246 421.685 405.774C421.489 405.302 421.391 404.795 421.397 404.284Z" fill="white"/>
<path d="M434.227 406.141H430.281L429.463 407.997H428.372L431.734 400.573H432.784L436.157 407.997H435.044L434.227 406.141ZM433.855 405.292L432.255 401.654L430.655 405.292H433.855Z" fill="white"/>
<path d="M442.229 407.997L440.629 405.717C440.482 405.727 440.322 405.738 440.163 405.738H438.325V407.998H437.265V400.574H440.165C442.096 400.574 443.265 401.55 443.265 403.161C443.289 403.677 443.142 404.187 442.847 404.61C442.552 405.034 442.124 405.349 441.632 405.505L443.392 407.998L442.229 407.997ZM442.197 403.16C442.197 402.101 441.486 401.495 440.129 401.495H438.329V404.837H440.129C441.486 404.837 442.197 404.222 442.197 403.16Z" fill="white"/>
<path d="M446.351 401.495H443.805V400.573H449.946V401.495H447.401V407.995H446.351V401.495Z" fill="white"/>
<path d="M273.662 490.904C269.295 525.394 167.523 534.463 113.175 514.104C47.615 489.564 48.455 345.324 72.197 310.937C88.76 286.942 118.548 278.986 145.754 310.917C151.796 318.169 157.028 326.06 161.354 334.449C177.161 364.342 185.873 413.528 208.482 426.207L231.322 433.994C231.322 433.994 232.076 434.351 233.399 435.087C242.404 439.918 277.483 460.818 273.662 490.904Z" fill="#5CC5C3"/>
<path opacity="0.44" d="M231.321 433.993L208.481 426.206C185.871 413.526 177.16 364.341 161.353 334.448C157.027 326.059 151.795 318.168 145.753 310.916C128.329 311.882 129.524 310.095 129.524 310.095C129.524 310.095 101.29 315.495 96.589 338.765C96.116 340.35 95.8828 341.997 95.897 343.651C92.625 341.627 83.264 340.98 82.857 341.477C82.266 342.2 91.257 344.627 95.889 348.869C95.889 348.869 87.361 347.731 82.707 349.438C87.2153 350.365 91.6561 351.595 95.999 353.119C95.999 353.119 81.199 358.779 82.834 359.019C85.262 359.368 96.366 358.173 96.366 358.173C96.998 366.813 98.216 375.35 99.566 390.028C100.954 405.176 107.707 433.569 116.679 447.246C112.611 450.11 108.708 453.2 104.987 456.502C98.341 462.451 101.052 464.243 105.776 462.275C110.5 460.307 125.507 455.485 125.507 455.485C125.507 455.485 114.96 464.215 115.747 465.146C116.534 466.077 126.308 459.466 131.138 457.731L131.151 457.724C138.468 459.937 147.42 460.402 155.925 459.833C157.497 464.81 160.18 471.665 167.44 471.633C173.354 471.606 173.919 464.839 179.773 461.748C195.66 453.363 218.515 442.204 226.661 441.805C231.593 441.575 233.169 438.489 233.399 435.089C232.075 434.35 231.321 433.993 231.321 433.993Z" fill="#ABD7EF"/>
<path d="M118.162 297.362C112.856 295.59 107.152 295.384 101.731 296.767C96.3111 298.15 91.4035 301.065 87.595 305.162C74.376 319.172 71.695 375.849 92.322 451.075C108.713 510.866 217.122 498.996 217.122 498.996C217.122 498.996 254.739 494.651 267.686 477.237" stroke="#72B1CC" stroke-width="0.959" stroke-miterlimit="10"/>
<path d="M142.571 442.619C134.221 448.232 117.028 452.946 108.181 457.735C99.334 462.524 87.595 478.256 84.036 487.667" stroke="#72B1CC" stroke-width="0.959" stroke-miterlimit="10"/>
<path d="M108.709 318.443C104.009 314.791 98.6261 312.116 92.8767 310.577C87.1273 309.037 81.128 308.663 75.232 309.478" stroke="#72B1CC" stroke-width="0.959" stroke-miterlimit="10"/>
<path d="M201.937 352.178C198.258 351.697 177.806 323.436 170.566 314.825C165.829 309.192 158.48 308.441 158.48 308.441C152.98 313.141 151.894 322.846 155.18 329.088C168.943 355.25 190.75 370.548 199.263 374.222C192.646 365.361 201.937 352.178 201.937 352.178Z" fill="#F2CFAA"/>
<path d="M186.353 334.342C186.353 337.366 184.065 343.621 182.534 346.942C181.488 349.286 180.094 351.459 178.398 353.386C176.637 355.363 174.643 357.119 172.458 358.614C172.017 358.949 166.538 346.605 165.552 345.345C165.489 345.283 165.447 345.245 165.425 345.245C164.67 345.01 163.97 344.623 163.368 344.11C162.088 343.166 160.828 342.158 159.568 341.15C158.45 340.331 157.508 339.296 156.798 338.106C156.099 336.362 155.867 334.467 156.126 332.606L155.832 306.869C158.855 306.91 161.833 307.607 164.559 308.914C167.285 310.221 169.693 312.106 171.618 314.437C172.607 315.657 173.525 316.933 174.368 318.258C178.104 323.889 182.617 328.737 186.353 334.342Z" fill="#2E2C79"/>
<path d="M205.666 275.556L204.263 294.361Z" fill="#BFBFBF"/>
<path d="M158.048 294.619L158.208 289.793Z" fill="#CCCCCC"/>
<path d="M207.808 278.878L192.058 280.646C191.178 280.745 190.545 281.538 190.644 282.418L194.294 314.927C194.393 315.807 195.186 316.44 196.066 316.341L211.816 314.573C212.695 314.474 213.329 313.681 213.23 312.801L209.58 280.292C209.481 279.412 208.688 278.779 207.808 278.878Z" fill="#2A4282"/>
<path d="M214.193 303.481C214.692 307.218 214.585 311.011 213.878 314.714C213.855 314.751 213.861 314.782 213.848 314.801C213.84 314.868 213.827 314.935 213.811 315.001C213.442 316.101 213.254 317.253 213.252 318.413C213.752 338.546 212.688 361.259 211.595 367.268C210.462 373.492 205.56 377.633 199.261 374.223C194.2 371.482 192.728 365.206 192.728 365.206C195.187 351.547 205.128 314.52 205.128 314.206C199.628 307.129 203.141 300.288 206.91 296.651C207.257 296.277 207.701 296.005 208.192 295.865C208.683 295.726 209.203 295.724 209.695 295.86C209.695 295.86 213.267 297.913 214.193 303.481Z" fill="#F2CFAA"/>
<path d="M154.575 417.038C154.575 417.038 237.336 390.275 261.616 402.529C285.896 414.783 276.797 432.636 257.316 440.378C239.073 447.625 195.766 449.989 195.766 449.989L154.575 417.038Z" fill="#4A4251"/>
<path d="M217.318 424.685C217.318 424.685 232.746 410.612 249.718 408.948C249.718 408.948 231.091 408.107 212.71 422.22C194.329 436.333 217.318 424.685 217.318 424.685Z" fill="#38323F"/>
<path d="M151.895 280.604L127.932 250.704C105.783 247.936 101.995 269.661 102.891 285.625C103.787 301.589 98.232 305.291 98.232 305.291C101.182 306.971 104.332 308.274 107.608 309.167C107.758 308.985 107.915 308.81 108.057 308.62C108.612 307.841 109.097 307.015 109.505 306.15C109.914 305.273 110.261 304.368 110.541 303.442C110.375 304.405 110.141 305.354 109.841 306.284C109.531 307.224 109.138 308.134 108.665 309.004C108.588 309.139 108.496 309.266 108.416 309.404C110.899 310.085 113.424 310.604 115.975 310.957C116.012 310.84 116.06 310.728 116.095 310.612C116.348 309.691 116.518 308.749 116.604 307.797C116.686 306.832 116.698 305.863 116.641 304.897C116.817 305.858 116.924 306.831 116.961 307.807C116.995 308.796 116.939 309.786 116.794 310.765C116.777 310.865 116.749 310.965 116.731 311.065C121.361 311.649 126.039 311.745 130.689 311.352C139.021 310.812 147.141 308.496 154.505 304.561C154.28 304.227 154.07 303.885 153.878 303.537C153.482 302.784 153.154 301.998 152.897 301.187C152.649 300.385 152.458 299.567 152.326 298.738C152.555 299.537 152.842 300.319 153.185 301.077C153.525 301.824 153.932 302.539 154.401 303.213C154.644 303.55 154.903 303.873 155.177 304.182C157.086 303.126 158.872 301.862 160.503 300.413C152.222 295.688 151.895 280.604 151.895 280.604Z" fill="#1B3266"/>
<path d="M123.888 285.696C123.888 285.696 127.16 300.872 125.655 306.879C124.15 312.886 117.012 315.814 117.012 315.814C117.012 315.814 131.165 328.746 143.873 324.729C156.581 320.712 150.556 307.14 150.556 307.14C150.556 307.14 144.914 305.93 143.663 304.076C142.412 302.222 141.863 294.485 141.863 294.485L123.888 285.696Z" fill="#F2CFAA"/>
<path d="M138.111 255.213C145.525 257.187 149.77 263.603 151.652 275.081C153.534 286.559 153.846 298.662 145.692 300.864C137.538 303.066 127.734 293.974 124.506 286.601C121.278 279.228 121.189 250.709 138.111 255.213Z" fill="#F2CFAA"/>
<path d="M136.002 278.339C135.57 275.816 136.11 274.745 137.202 274.558C138.294 274.371 139.52 275.142 139.95 277.663C140.38 280.184 139.82 281.137 138.73 281.324C137.64 281.511 136.432 280.863 136.002 278.339Z" fill="#381C0E"/>
<path d="M148.803 275.453C148.464 273.253 148.788 272.343 149.49 272.206C150.192 272.069 151.003 272.767 151.342 274.964C151.681 277.161 151.342 277.971 150.642 278.106C149.942 278.241 149.144 277.651 148.803 275.453Z" fill="#381C0E"/>
<path d="M138.358 269.697C136.206 268.859 134.665 269.535 133.402 271.521L133.335 271.489C133.722 269.089 136.619 268.546 138.371 269.672" fill="#381C0E"/>
<path d="M138.358 269.697C136.206 268.859 134.665 269.535 133.402 271.521L133.335 271.489C133.722 269.089 136.619 268.546 138.371 269.672" stroke="#381C0E" stroke-width="0.481" stroke-linecap="round" stroke-linejoin="round"/>
<path d="M145.897 267.584C146.97 266.261 148.513 265.284 149.828 266.64L149.77 266.703C148.39 265.845 146.993 266.584 145.93 267.582" fill="#381C0E"/>
<path d="M145.897 267.584C146.97 266.261 148.513 265.284 149.828 266.64L149.77 266.703C148.39 265.845 146.993 266.584 145.93 267.582" stroke="#381C0E" stroke-width="0.481" stroke-linecap="round" stroke-linejoin="round"/>
<path d="M150.312 287.381C149.812 289.288 149.499 291.07 146.85 291.065C145.108 291 143.494 289.79 143.721 289.151L143.821 289.091C146.83 290.536 148.293 290.624 150.097 287.349C150.097 287.349 150.284 286.977 150.317 287.017C150.36 287.073 150.312 287.381 150.312 287.381Z" fill="#381C0E"/>
<path d="M132.011 280.379L123.244 281.079" stroke="#858585" stroke-width="0.215" stroke-linecap="round" stroke-linejoin="round"/>
<path d="M123.556 279.154C123.556 279.154 119.528 276.294 118.256 280.876C116.984 285.458 122.601 290.924 126.222 288.737" fill="#F2CFAA"/>
<path d="M129.536 262.423C129.589 265.963 128.502 269.426 126.436 272.301C122.936 277.34 124.036 283.592 125.385 285.138C125.385 285.138 121.022 282.75 120.394 276.184C120.394 276.184 117.557 261.57 125.665 256.872L126.312 249.772C126.312 249.772 128.712 245.465 137.443 247.087C146.174 248.709 150.932 260.199 150.789 265.307C150.789 265.307 147.867 262.772 142.321 263.058C136.775 263.344 133.641 264.759 129.536 262.423Z" fill="#1B3266"/>
<path d="M145.346 274.205C145.346 274.205 147.32 280.749 148.732 282.128C150.144 283.507 147.113 284.648 147.113 284.648" stroke="#BD633F" stroke-width="0.481" stroke-linecap="round" stroke-linejoin="round"/>
<path d="M142.927 277.509C142.927 277.509 144.943 274.035 148.307 275.794" stroke="#858585" stroke-width="0.215" stroke-linecap="round" stroke-linejoin="round"/>
<path opacity="0.25" d="M138.532 284.769C138.645 285.802 136.982 286.83 134.818 287.069C132.654 287.308 130.808 286.659 130.695 285.626C130.582 284.593 132.247 283.565 134.411 283.326C136.575 283.087 138.42 283.736 138.532 284.769Z" fill="#D9592A"/>
<path opacity="0.25" d="M150.284 281.479C150.425 281.964 150.74 282.38 151.168 282.648C151.597 282.916 152.109 283.017 152.607 282.931C152.518 281.703 152.398 280.459 152.245 279.198C152.228 279.198 152.213 279.198 152.198 279.203C151.645 279.257 151.134 279.525 150.777 279.95C150.419 280.376 150.242 280.925 150.284 281.479Z" fill="#D9592A"/>
<path d="M131.931 281.379C131.631 278.616 134.119 276.079 137.487 275.711C140.855 275.343 143.831 277.288 144.131 280.051C144.431 282.814 141.943 285.351 138.575 285.719C135.207 286.087 132.231 284.144 131.931 281.379Z" stroke="#858585" stroke-width="0.215" stroke-linecap="round" stroke-linejoin="round"/>
<path d="M148.365 277.541C148.375 276.925 148.562 276.325 148.905 275.813C149.247 275.301 149.73 274.898 150.296 274.654C150.861 274.41 151.485 274.334 152.093 274.435C152.7 274.537 153.266 274.812 153.721 275.227C154.176 275.642 154.502 276.18 154.659 276.776C154.816 277.371 154.798 278 154.606 278.585C154.415 279.171 154.059 279.689 153.58 280.077C153.102 280.465 152.521 280.707 151.909 280.773C151.011 280.812 150.134 280.494 149.47 279.888C148.806 279.283 148.409 278.439 148.365 277.541Z" stroke="#858585" stroke-width="0.215" stroke-linecap="round" stroke-linejoin="round"/>
<path d="M178.398 353.382C176.638 355.359 174.643 357.115 172.458 358.61C172.017 358.945 166.538 346.601 165.552 345.341C165.594 336.147 165.699 327.393 165.699 327.393C165.699 327.393 171.932 342.445 178.398 353.382Z" fill="#2E2C79"/>
<path d="M119.254 439.784C127.254 444.244 126.624 424.476 128.079 424.706C143.732 427.297 182.908 416.213 187.76 409.737C184.323 402.959 166.919 325.908 165.653 323.881C160.582 315.755 161.002 309.469 158.422 307.069C150.967 306.5 149.822 306.091 147.431 305.951C148.385 309.951 150.878 318.564 144.576 322.906C131.514 323.895 123.542 310.515 123.542 310.515C123.542 310.515 114.488 314.308 109.809 318.092C108.309 319.31 105.663 321.292 104.359 324.142C93.992 346.792 106.238 394.723 113.299 419.074C115.174 425.521 113.482 435.454 119.254 439.784Z" fill="#2E2C79"/>
<path d="M104.985 339.762L110.585 371.652C110.585 371.652 121.085 371.432 124.93 369.903C124.93 369.903 148.082 391.969 155.836 390.903C163.59 389.837 137.788 352.982 137.788 352.982L104.985 339.762Z" fill="#2E2C79"/>
<path d="M158.759 370.44C156.179 366.112 143.7 354.028 129.366 332.247C125.32 326.1 117.589 325.226 117.589 325.226C111.675 329.394 113.04 342.574 116.139 348.91C127.816 372.789 150.005 389.739 153.22 390.023C147.459 380.587 158.759 370.44 158.759 370.44Z" fill="#F2CFAA"/>
<path d="M179.42 331.987C179.42 332.004 179.403 332.02 179.388 332.037C177.636 333.893 176.32 336.117 175.535 338.545C170.426 356.496 167.763 377.557 165.423 382.234C165.423 382.234 161.387 399.094 147.158 385.802C146.791 382.802 161.276 347.524 165.708 336.697C166.419 334.834 166.738 332.845 166.647 330.854C166.518 324.454 170.67 317.67 174.519 315.182C176.483 313.913 185.051 323.361 179.42 331.987Z" fill="#F2CFAA"/>
<path d="M108.303 319.652C108.303 319.652 100.267 325.369 104.739 338.976C106.097 343.111 112.773 367.835 112.773 367.835C112.773 367.835 126.137 367.62 131.585 363.814C142.775 355.997 143.385 349.896 143.385 349.896C143.385 349.896 138.514 344.026 135.002 339.047C132.911 336.082 138.009 337.111 138.009 337.111L129.978 318.957L108.303 319.652Z" fill="#2E2C79"/>
<path d="M212.369 447.072L175.38 452.119C175.38 452.119 152.944 459.781 138.722 456.696C110.778 450.636 118.175 421.028 122.283 415.718C139.121 393.956 173.336 394.05 173.336 394.05L212.369 447.072Z" fill="#564B5E"/>
<path d="M251.279 508.912C251.279 508.912 241.336 498.136 246.22 491.685C251.104 485.234 257.008 488.249 261.381 492.097C265.754 495.945 284.473 510.815 272.36 520.548L251.279 508.912Z" fill="#D35974"/>
<path d="M238.252 477.237C240.101 479.404 242.137 481.404 244.337 483.214C245.137 483.814 249.843 486.142 252.393 487.926C255.108 489.826 255.732 491.226 258.587 493.426C262.016 496.072 264.863 498.557 265.487 499.95C267.269 503.9 257.569 510.484 254.816 510.431C252.769 510.389 246.271 500.019 244.809 498.842C243.097 497.462 241.435 495.285 238.992 492.264C234.463 486.664 227.292 482.898 227.292 482.898" fill="#F2CFAA"/>
<path d="M255.871 508.104C255.871 508.104 263.932 504.645 263.43 497.482C263.43 497.482 271.471 504.302 274.13 510.022C276.789 515.742 273.391 523.558 264.435 523.544C256.794 523.531 250.924 508.505 250.924 508.505C250.924 508.505 252.677 509.548 255.871 508.104Z" fill="#F8798A"/>
<path d="M217.828 445.91L202.228 436.683C199.423 437.986 196.508 439.039 193.518 439.83C192.108 440.13 189.967 440.374 187.698 440.73C185.149 440.155 182.503 440.166 179.959 440.762C174.973 441.957 176.113 442.811 172.409 446.943C168.705 451.075 161.156 450.434 158.449 453.993C155.742 457.552 160.728 468.808 166.849 468.808C170.13 468.808 170.882 464.89 172.689 463.181C174.496 461.472 189.036 453.932 189.036 453.932V453.919C190.641 453.212 192.448 452.295 194.688 451.183C201.694 447.706 217.828 445.91 217.828 445.91Z" fill="#F2CFAA"/>
<path opacity="0.48" d="M158.686 427.055C183.328 472.192 235.022 491.355 235.022 491.355C235.022 491.355 187.193 436.002 166.728 420.269C159.572 414.767 155.277 420.814 158.686 427.055Z" fill="#89A5AF"/>
<path d="M237.177 493.737C239.577 495 248.131 484.561 248.814 482.043C248.814 482.043 235.28 464.489 230.958 459.373C218.171 444.235 205.558 424.1 193.958 408.063C188.293 400.226 180.058 391.442 169.029 394.771C159.985 397.501 154.399 407.754 155.016 416.001C155.633 424.248 160.793 430.817 166.066 436.768C166.063 436.771 205.826 477.228 237.177 493.737Z" fill="#564B5E"/>
<path d="M212.362 298.622L209.105 292.422C209.105 292.422 205.155 284.91 203.755 285.487C202.927 285.827 203.089 286.587 203.81 288.377C203.81 288.377 204.629 290.443 205.327 292.065C203.822 290.291 200.465 286.539 199.494 287.181C198.748 287.675 199.052 288.392 200.101 290.006C200.101 290.006 200.977 291.371 201.853 292.677C200.214 290.877 198.085 288.811 197.344 289.301C196.603 289.791 196.902 290.512 197.953 292.126C197.953 292.126 200.493 296.084 201.253 296.978C201.66 297.679 201.96 298.437 202.144 299.226C201.313 297.942 200.361 296.74 199.302 295.637C198.481 294.97 197.458 295.05 197.46 296.037C197.462 297.024 200.14 300.317 200.579 301.702C201.018 303.087 202.968 310.369 202.968 310.369L203.373 303.196L204.973 299.662C205.213 300.657 205.373 301.406 205.373 301.406L206.721 298.422C206.779 299.622 206.799 300.575 206.799 300.575L212.362 298.622Z" fill="#F2CFAA"/>
<path d="M170.071 319.897C170.071 319.897 174.066 313.686 175.377 311.586C176.688 309.486 179.707 306.852 180.495 306.857C181.283 306.862 181.151 308.537 180.101 310.094C178.769 312.561 177.564 315.094 176.492 317.684L170.071 319.897Z" fill="#F2CFAA"/>
<path d="M298.078 499.764C298.078 499.764 285.642 495.848 282.116 496.926C281.124 497.293 280.24 497.905 279.546 498.704C278.852 499.503 278.371 500.464 278.147 501.499C277.922 502.533 277.962 503.607 278.262 504.622C278.563 505.637 279.114 506.559 279.865 507.305C283.586 511.32 297.15 513.883 302.682 514.258C311.347 514.845 317.908 507.997 314.848 504.567C311.788 501.137 298.666 499.867 298.666 499.867" fill="#D35974"/>
<path d="M293.691 494.981C291.491 496.92 289.937 504.634 290.821 510.025C295.207 511.383 299.758 512.138 304.348 512.271C315.516 511.725 317.994 500.871 311.027 498.116C306.74 496.433 302.295 495.186 297.758 494.393C297.758 494.393 295.216 493.639 293.691 494.981Z" fill="#F8798A"/>
<path d="M573.366 252.168C573.366 252.747 573.195 253.314 572.873 253.795C572.551 254.277 572.094 254.653 571.559 254.875C571.024 255.097 570.435 255.155 569.867 255.042C569.298 254.929 568.776 254.65 568.367 254.241C567.957 253.831 567.678 253.31 567.564 252.741C567.451 252.173 567.509 251.584 567.731 251.049C567.952 250.514 568.327 250.056 568.809 249.734C569.29 249.412 569.857 249.24 570.436 249.24C571.213 249.24 571.958 249.548 572.507 250.097C573.057 250.646 573.365 251.391 573.366 252.168Z" fill="#5CC5C3"/>
<path d="M584.751 252.168C584.751 252.747 584.58 253.314 584.258 253.795C583.936 254.277 583.479 254.653 582.944 254.875C582.409 255.097 581.82 255.155 581.252 255.042C580.683 254.929 580.161 254.65 579.752 254.241C579.342 253.831 579.063 253.31 578.949 252.741C578.836 252.173 578.894 251.584 579.116 251.049C579.337 250.514 579.712 250.056 580.194 249.734C580.675 249.412 581.242 249.24 581.821 249.24C582.598 249.24 583.343 249.548 583.892 250.097C584.442 250.646 584.75 251.391 584.751 252.168Z" fill="#5CC5C3"/>
<path d="M596.136 252.168C596.136 252.747 595.965 253.314 595.643 253.796C595.321 254.277 594.864 254.653 594.328 254.875C593.793 255.097 593.204 255.155 592.636 255.042C592.068 254.929 591.546 254.65 591.136 254.24C590.726 253.83 590.447 253.308 590.334 252.74C590.221 252.172 590.279 251.583 590.501 251.048C590.723 250.512 591.099 250.055 591.58 249.733C592.062 249.411 592.629 249.24 593.208 249.24C593.984 249.24 594.729 249.549 595.278 250.098C595.827 250.647 596.136 251.391 596.136 252.168Z" fill="#5CC5C3"/>
<path d="M591.996 261.624H536.118C533.831 261.624 531.977 263.478 531.977 265.765V320.85C531.977 323.137 533.831 324.991 536.118 324.991H591.996C594.283 324.991 596.137 323.137 596.137 320.85V265.765C596.137 263.478 594.283 261.624 591.996 261.624Z" fill="#2E2C79"/>
<path d="M543.382 310.012C543.382 310.012 536.926 309.293 537.243 307.386C537.56 305.479 545.855 299.801 551.149 298.247C551.257 300.898 556.187 302.432 559.442 302.041C565.202 301.352 569.594 291.479 570.764 288.425C572.479 283.953 575.027 278.425 579.426 274.143C583.357 270.32 583.926 270.854 583.926 270.854C585.997 272.377 587.587 274.464 588.504 276.866C589.421 279.267 589.627 281.882 589.097 284.398C588.39 288.198 586.444 293.736 583.897 292.442C583.05 292.038 582.178 291.688 581.287 291.394L576.557 295.067L572.365 300.273L567.227 309.873L560.499 311.962L543.382 310.012Z" fill="white"/>
<path d="M537.243 307.386C537.243 307.386 550.843 310.827 560.712 310.96C565.129 310.817 566.297 309.145 568.147 305.96C569.59 303.472 572.686 297.585 575.988 294.06C579.29 290.535 586.048 285.402 589.133 284.193C589.174 286.476 588.927 288.756 588.399 290.978C587.419 295.073 586.65 299.215 586.093 303.389C585.607 308.51 585.487 314.484 585.487 314.484C585.487 314.484 586.323 314.419 583.551 314.419C583.551 310.635 582.151 294.746 581.53 294.06C580.909 293.374 579.846 292.723 577.682 294.684C575.518 296.645 572.725 299.311 570.292 305.839C567.492 313.323 564.292 314.694 562.136 314.829C556.905 315.156 541.675 313.304 537.671 310.988C536.862 308.353 537.243 307.386 537.243 307.386Z" fill="#E8E8E8"/>
<path d="M479.174 141.389H341.073C335.996 141.389 331.881 145.504 331.881 150.581V268.963C331.881 274.04 335.996 278.155 341.073 278.155H479.174C484.251 278.155 488.366 274.04 488.366 268.963V150.581C488.366 145.504 484.251 141.389 479.174 141.389Z" fill="#2E2C79"/>
<path d="M353.346 154.301C353.346 154.958 353.151 155.601 352.786 156.147C352.42 156.693 351.901 157.119 351.294 157.37C350.687 157.622 350.019 157.687 349.374 157.559C348.73 157.431 348.138 157.114 347.673 156.65C347.209 156.185 346.892 155.593 346.764 154.949C346.636 154.304 346.701 153.636 346.953 153.029C347.204 152.422 347.63 151.903 348.176 151.537C348.723 151.172 349.365 150.977 350.022 150.977C350.459 150.977 350.891 151.063 351.294 151.23C351.698 151.397 352.064 151.642 352.373 151.95C352.681 152.259 352.926 152.625 353.093 153.029C353.26 153.432 353.346 153.865 353.346 154.301Z" stroke="#FEFEF4" stroke-width="0.772" stroke-miterlimit="10"/>
<path d="M362.937 157.624C364.772 157.624 366.26 156.136 366.26 154.301C366.26 152.466 364.772 150.978 362.937 150.978C361.102 150.978 359.614 152.466 359.614 154.301C359.614 156.136 361.102 157.624 362.937 157.624Z" stroke="#FEFEF4" stroke-width="0.772" stroke-miterlimit="10"/>
<path d="M375.85 157.624C377.685 157.624 379.173 156.136 379.173 154.301C379.173 152.466 377.685 150.978 375.85 150.978C374.015 150.978 372.527 152.466 372.527 154.301C372.527 156.136 374.015 157.624 375.85 157.624Z" stroke="#FEFEF4" stroke-width="0.772" stroke-miterlimit="10"/>
<path d="M331.881 168.159H488.269" stroke="#FEFEF4" stroke-width="0.772" stroke-miterlimit="10"/>
<path d="M429.98 187.5L431.265 190.1L434.138 190.517L432.059 192.543L432.549 195.405L429.98 194.054L427.41 195.405L427.901 192.543L425.822 190.517L428.695 190.1L429.98 187.5Z" fill="#FFB53E"/>
<path d="M441.737 187.5L443.022 190.1L445.895 190.517L443.816 192.543L444.307 195.405L441.738 194.054L439.169 195.405L439.659 192.543L437.58 190.517L440.453 190.1L441.737 187.5Z" fill="#FFB53E"/>
<path d="M453.494 187.5L454.779 190.1L457.652 190.517L455.573 192.543L456.064 195.405L453.494 194.054L450.924 195.405L451.415 192.543L449.336 190.517L452.209 190.1L453.494 187.5Z" fill="#FFB53E"/>
<path d="M465.25 187.5L466.535 190.1L469.408 190.517L467.329 192.543L467.82 195.405L465.25 194.054L462.68 195.405L463.171 192.543L461.092 190.517L463.966 190.108L465.25 187.5Z" fill="#FFB53E"/>
<path d="M477.007 187.5L478.292 190.1L481.165 190.517L479.086 192.543L479.577 195.405L477.007 194.054L474.437 195.405L474.928 192.543L472.849 190.517L475.722 190.1L477.007 187.5Z" fill="#FFB53E"/>
<g opacity="0.55">
<path d="M441.145 220.709H427.737" stroke="white" stroke-width="1.567" stroke-linecap="round" stroke-linejoin="round"/>
<path d="M480.628 220.709H446.955" stroke="white" stroke-width="1.567" stroke-linecap="round" stroke-linejoin="round"/>
<path d="M480.629 212.815H427.737" stroke="white" stroke-width="1.567" stroke-linecap="round" stroke-linejoin="round"/>
<path d="M450.182 204.92H427.737" stroke="white" stroke-width="1.567" stroke-linecap="round" stroke-linejoin="round"/>
<path d="M480.629 204.92H455.769" stroke="white" stroke-width="1.567" stroke-linecap="round" stroke-linejoin="round"/>
<path d="M471.241 228.603H427.737" stroke="white" stroke-width="1.567" stroke-linecap="round" stroke-linejoin="round"/>
<path d="M471.241 236.049H427.737" stroke="white" stroke-width="1.567" stroke-linecap="round" stroke-linejoin="round"/>
</g>
<path d="M471.795 260.725H434.031C431.791 260.725 429.642 259.835 428.058 258.25C426.473 256.666 425.583 254.518 425.583 252.277C425.583 251.168 425.801 250.069 426.226 249.044C426.65 248.019 427.272 247.087 428.057 246.302C428.841 245.518 429.773 244.895 430.798 244.471C431.823 244.046 432.921 243.827 434.031 243.827H471.795C472.905 243.827 474.003 244.046 475.028 244.471C476.053 244.895 476.985 245.518 477.769 246.302C478.554 247.087 479.176 248.019 479.6 249.044C480.025 250.069 480.243 251.168 480.243 252.277C480.243 254.518 479.353 256.666 477.768 258.25C476.184 259.835 474.035 260.725 471.795 260.725Z" fill="white"/>
<path d="M348.681 187.505H410.286C411.019 187.505 411.745 187.649 412.423 187.93C413.1 188.211 413.716 188.622 414.234 189.141C414.753 189.659 415.164 190.275 415.445 190.952C415.726 191.63 415.87 192.356 415.87 193.089V255.111C415.87 256.592 415.282 258.012 414.235 259.059C413.188 260.106 411.768 260.694 410.287 260.694H348.68C347.199 260.694 345.779 260.106 344.732 259.059C343.685 258.012 343.097 256.592 343.097 255.111V193.089C343.097 191.608 343.685 190.188 344.733 189.141C345.78 188.093 347.2 187.505 348.681 187.505Z" stroke="white" stroke-width="0.593" stroke-miterlimit="10"/>
<path d="M403.898 230.938C403.367 227.477 403.711 209.363 402.84 202.31C396.591 199.944 389.047 203.303 386.97 205.837C378.055 228.859 361.525 234.314 361.525 234.314L361.66 234.471L361.575 234.481C361.553 234.428 361.548 234.366 361.525 234.314C353.491 233.979 351.547 236.852 351.547 236.852C351.547 236.852 354.147 238.512 356.611 239.852L356.15 240.872L369.584 243.665C369.584 243.665 401.784 244.748 403.584 242.505C405.384 240.262 404.43 234.398 403.898 230.938Z" fill="white"/>
<path d="M391.301 244.232C387.23 244.29 382.885 244.284 378.783 244.279C374.955 244.279 371.339 244.267 368.247 244.312C362.094 244.244 356.015 242.959 350.36 240.531C350.36 240.531 349.332 238.654 351.545 236.852C352.289 237.119 361.109 241.089 369.062 240.975C372.196 240.93 375.832 240.935 379.681 240.94C388.743 240.952 403.165 240.76 404.51 240.293C404.74 240.821 404.839 241.397 404.799 241.972C404.758 242.547 404.579 243.103 404.276 243.593C401.045 243.983 396.386 244.159 391.301 244.232Z" fill="#E8E8E8"/>
<path d="M380.534 218.197C380.302 218.497 380.067 218.789 379.834 219.08L383.634 223.947C383.725 224.056 383.855 224.126 383.997 224.141C384.138 224.156 384.28 224.116 384.393 224.029C384.505 223.941 384.579 223.813 384.599 223.672C384.619 223.531 384.584 223.388 384.5 223.273L380.534 218.197Z" fill="#E2E2E2"/>
<path d="M378.213 221.007C377.968 221.291 377.721 221.571 377.475 221.846L380.827 226.138C380.87 226.198 380.925 226.249 380.988 226.287C381.052 226.326 381.122 226.351 381.195 226.362C381.269 226.372 381.343 226.368 381.415 226.349C381.486 226.33 381.553 226.296 381.612 226.251C381.67 226.205 381.718 226.148 381.754 226.083C381.79 226.018 381.812 225.947 381.819 225.873C381.827 225.8 381.819 225.725 381.797 225.654C381.775 225.584 381.739 225.518 381.691 225.462L378.213 221.007Z" fill="#E2E2E2"/>
<path d="M375.784 223.678C375.525 223.948 375.27 224.214 375.013 224.478L378.023 228.332C378.115 228.44 378.245 228.508 378.386 228.522C378.527 228.536 378.668 228.495 378.779 228.408C378.891 228.321 378.964 228.194 378.984 228.054C379.004 227.914 378.969 227.771 378.887 227.656L375.784 223.678Z" fill="#E2E2E2"/>
<path d="M373.248 226.222C372.979 226.479 372.712 226.733 372.448 226.98L375.218 230.522C375.262 230.58 375.317 230.629 375.379 230.666C375.442 230.703 375.512 230.727 375.584 230.737C375.656 230.746 375.73 230.741 375.8 230.722C375.87 230.703 375.936 230.67 375.994 230.625C376.051 230.581 376.099 230.525 376.135 230.461C376.17 230.398 376.193 230.328 376.201 230.255C376.209 230.183 376.203 230.11 376.182 230.04C376.162 229.97 376.128 229.905 376.082 229.848L373.248 226.222Z" fill="#E2E2E2"/>
<path d="M370.626 228.637C370.346 228.884 370.069 229.126 369.797 229.36L372.413 232.711C372.504 232.821 372.635 232.892 372.777 232.907C372.92 232.923 373.062 232.882 373.175 232.794C373.288 232.705 373.361 232.576 373.381 232.435C373.4 232.293 373.362 232.149 373.277 232.034L370.626 228.637Z" fill="#E2E2E2"/>
<path d="M367.907 230.936C367.613 231.173 367.326 231.403 367.049 231.622L369.609 234.899C369.652 234.959 369.707 235.01 369.77 235.048C369.834 235.087 369.904 235.112 369.977 235.123C370.051 235.133 370.125 235.129 370.197 235.11C370.268 235.091 370.335 235.057 370.394 235.012C370.452 234.966 370.5 234.909 370.536 234.844C370.572 234.779 370.594 234.708 370.601 234.634C370.609 234.561 370.601 234.486 370.579 234.416C370.557 234.345 370.521 234.279 370.473 234.223L367.907 230.936Z" fill="#E2E2E2"/>
<path d="M189.165 151.05H133.158C128.631 151.05 124.962 154.72 124.962 159.246V208.407C124.962 212.934 128.631 216.603 133.158 216.603H189.165C193.692 216.603 197.361 212.934 197.361 208.407V159.246C197.361 154.72 193.692 151.05 189.165 151.05Z" stroke="#C7E9FF" stroke-width="1.127" stroke-miterlimit="10"/>
<path d="M164.992 188.147L167.099 204.321H171.906C172.145 203.24 175.083 186.35 175.48 184.883C175.877 183.416 164.992 188.147 164.992 188.147Z" fill="#D1546F"/>
<path d="M175.02 183.872L165.28 189.959L155.861 200.084C155.861 200.084 141.508 200.164 140.77 199.764C140.531 199.634 140.423 199.632 140.386 199.689C140.368 199.865 140.387 200.042 140.442 200.21C140.498 200.377 140.587 200.531 140.706 200.662C141.757 201.672 143.046 202.399 144.454 202.776C146.57 203.485 151.624 204.867 156.421 203.832C159.685 203.132 161.031 198.623 161.877 197.423C163.067 195.733 166.985 190.87 172.511 189.623C173.778 188.906 174.76 187.777 175.294 186.423C175.929 184.419 175.02 183.872 175.02 183.872Z" fill="#D1546F"/>
<path d="M175.597 183.552C175.477 182.112 174.082 178.459 173.052 175.92C172.787 175.268 170.611 167.434 171.228 165.568C170.561 165.468 161.977 164.715 157.941 165.676C158.582 167.503 156.114 186.392 152.164 191.67C150.048 194.424 147.14 196.464 143.831 197.517C140.16 198.498 140.385 199.69 140.385 199.69C140.385 199.69 146.269 203.943 155.508 202.777C159.161 202.008 159.471 199.054 161.108 196.748C163.67 192.829 167.495 189.904 171.947 188.455C174.255 187.493 175.789 185.859 175.597 183.552Z" fill="#F8798A"/>
<path d="M225.561 271.101L217.639 275.326L221.6 265.026" fill="#4F78D3"/>
<path d="M249.66 261.91C251.855 252.928 246.353 243.867 237.371 241.672C228.389 239.476 219.328 244.978 217.133 253.96C214.938 262.942 220.439 272.003 229.421 274.198C238.403 276.393 247.464 270.892 249.66 261.91Z" fill="#4F78D3"/>
<path d="M230.403 265.954C234.052 266.016 237.747 266.066 241.103 265.834C242.166 265.761 243.084 264.072 241.792 263.54C242.367 263.339 242.844 262.925 243.124 262.384C243.183 262.243 243.213 262.091 243.212 261.938C243.212 261.786 243.18 261.634 243.12 261.494C243.06 261.353 242.972 261.226 242.862 261.12C242.751 261.014 242.621 260.932 242.478 260.877C243.743 261.191 244.242 259.177 243.256 258.534C243.801 258.107 244.178 257.501 244.322 256.824C244.386 256.486 244.347 256.136 244.21 255.82C244.073 255.505 243.844 255.238 243.553 255.054C243.139 254.872 242.687 254.794 242.236 254.827L237.684 254.792C238.096 252.417 238.22 249.83 237.012 247.745C236.65 247.116 235.672 246.363 234.898 246.845C234.17 247.299 234.372 248.425 234.409 249.136C234.464 250.619 234.106 252.088 233.376 253.38C232.645 254.672 231.57 255.736 230.271 256.453C230.271 256.453 230.442 262.744 230.403 265.954Z" fill="#FDFDFD"/>
<path d="M223.566 256.453H229.081V265.945H223.566V256.453Z" fill="#FDFDFD"/>
<path d="M483.125 316.237H337.025C336.349 316.237 335.68 316.104 335.056 315.846C334.432 315.587 333.865 315.208 333.387 314.731C332.909 314.253 332.53 313.686 332.271 313.062C332.012 312.438 331.879 311.769 331.879 311.093C331.879 309.728 332.422 308.42 333.387 307.455C334.352 306.49 335.66 305.947 337.025 305.947H483.125C483.801 305.947 484.47 306.08 485.094 306.339C485.718 306.598 486.285 306.977 486.763 307.455C487.24 307.933 487.619 308.5 487.878 309.124C488.136 309.748 488.269 310.417 488.269 311.093C488.269 312.457 487.727 313.766 486.762 314.73C485.798 315.695 484.489 316.237 483.125 316.237Z" fill="white"/>
<path d="M482.915 311.093L470.123 380.756H350.123L337.331 311.093" stroke="white" stroke-width="2.254" stroke-linecap="round" stroke-linejoin="round"/>
<path d="M410.076 311.092V380.755" stroke="white" stroke-width="2.254" stroke-linecap="round" stroke-linejoin="round"/>
<path d="M392.484 311.092L394.364 380.755" stroke="white" stroke-width="2.254" stroke-linecap="round" stroke-linejoin="round"/>
<path d="M374.893 311.092L378.653 380.755" stroke="white" stroke-width="2.254" stroke-linecap="round" stroke-linejoin="round"/>
<path d="M357.302 311.092L362.943 380.755" stroke="white" stroke-width="2.254" stroke-linecap="round" stroke-linejoin="round"/>
<path d="M428.192 311.092L426.312 380.755" stroke="white" stroke-width="2.254" stroke-linecap="round" stroke-linejoin="round"/>
<path d="M445.783 311.092L442.023 380.755" stroke="white" stroke-width="2.254" stroke-linecap="round" stroke-linejoin="round"/>
<path d="M463.375 311.092L457.734 380.755" stroke="white" stroke-width="2.254" stroke-linecap="round" stroke-linejoin="round"/>
<path d="M341.355 331.871H478.933" stroke="white" stroke-width="2.254" stroke-linecap="round" stroke-linejoin="round"/>
<path d="M344.054 347.696H476.194" stroke="white" stroke-width="2.254" stroke-linecap="round" stroke-linejoin="round"/>
<path d="M346.96 363.521H473.289" stroke="white" stroke-width="2.254" stroke-linecap="round" stroke-linejoin="round"/>
<path d="M337.332 311.093V329.723C337.332 333.108 338.677 336.354 341.07 338.748C343.464 341.141 346.71 342.486 350.095 342.486H470.151C471.827 342.486 473.487 342.156 475.035 341.515C476.584 340.873 477.991 339.933 479.176 338.748C480.361 337.563 481.301 336.156 481.943 334.607C482.584 333.059 482.914 331.399 482.914 329.723V311.093" stroke="#F8798A" stroke-width="2.254" stroke-miterlimit="10" stroke-linecap="round"/>
<path d="M341.132 311.093C341.132 311.845 340.909 312.579 340.492 313.204C340.074 313.829 339.481 314.316 338.786 314.604C338.092 314.891 337.328 314.967 336.591 314.82C335.854 314.673 335.176 314.311 334.645 313.78C334.114 313.249 333.752 312.571 333.605 311.834C333.458 311.097 333.534 310.333 333.821 309.639C334.109 308.944 334.596 308.351 335.221 307.933C335.846 307.516 336.58 307.293 337.332 307.293C338.34 307.293 339.306 307.693 340.019 308.406C340.732 309.119 341.132 310.085 341.132 311.093Z" fill="#F8798A"/>
<path d="M486.715 311.093C486.715 311.845 486.492 312.579 486.075 313.204C485.657 313.829 485.064 314.316 484.369 314.604C483.675 314.891 482.911 314.967 482.174 314.82C481.437 314.673 480.759 314.311 480.228 313.78C479.697 313.249 479.335 312.571 479.188 311.834C479.041 311.097 479.117 310.333 479.404 309.639C479.692 308.944 480.179 308.351 480.804 307.933C481.429 307.516 482.163 307.293 482.915 307.293C483.923 307.293 484.889 307.693 485.602 308.406C486.315 309.119 486.715 310.085 486.715 311.093Z" fill="#F8798A"/>
<path d="M363.743 392.394H463.608V492.257H363.743V392.394Z" fill="#E89C03"/>
<path d="M462.73 392.394H504.449V492.257H462.73V392.394Z" fill="#F5A905"/>
<path d="M372.176 475.051H391.321V483.256H372.176V475.051Z" fill="#FEC00D"/>
<path d="M393.226 475.051H399.626V483.256H393.226V475.051Z" fill="#FEC00D"/>
<path d="M408.594 475.051H414.994V483.256H408.594V475.051Z" fill="#FEC00D"/>
<path d="M402.287 475.051H404.892V483.256H402.287V475.051Z" fill="#FEC00D"/>
<path d="M361.221 390.584H462.73V407.502H361.221V390.584Z" fill="#FEC00D"/>
<path d="M462.73 390.584H507.657V407.502H462.73V390.584Z" fill="#FECD40"/>
<path d="M601.901 487.914H493.335L501.467 374.114L510.819 374.09L594.413 373.899L600.871 472.155L601.901 487.914Z" fill="#6569CE"/>
<path d="M522.999 384.107C523.081 383.198 523.516 382.358 524.212 381.767C524.907 381.177 525.807 380.883 526.717 380.95H526.722C527.18 380.872 527.649 380.896 528.096 381.018C528.544 381.14 528.96 381.358 529.315 381.658C529.67 381.957 529.955 382.33 530.151 382.751C530.347 383.172 530.449 383.63 530.449 384.094C530.45 384.558 530.35 385.017 530.155 385.438C529.96 385.86 529.676 386.234 529.322 386.534C528.969 386.834 528.554 387.054 528.106 387.178C527.659 387.301 527.19 387.326 526.732 387.25C525.822 387.32 524.921 387.03 524.222 386.442C523.524 385.855 523.085 385.016 522.999 384.107ZM526.718 382.15C526.42 382.074 526.109 382.066 525.808 382.129C525.507 382.192 525.224 382.322 524.982 382.511C524.739 382.7 524.543 382.941 524.408 383.217C524.273 383.494 524.203 383.797 524.204 384.105C524.204 384.412 524.275 384.715 524.411 384.991C524.547 385.267 524.744 385.508 524.987 385.695C525.231 385.883 525.514 386.013 525.815 386.074C526.116 386.136 526.428 386.127 526.725 386.05H526.73C527.028 386.126 527.339 386.134 527.64 386.071C527.941 386.009 528.224 385.879 528.466 385.69C528.709 385.501 528.906 385.26 529.041 384.984C529.176 384.708 529.246 384.404 529.245 384.097C529.245 383.789 529.174 383.486 529.038 383.21C528.903 382.935 528.706 382.693 528.462 382.506C528.219 382.318 527.936 382.188 527.635 382.126C527.334 382.065 527.023 382.073 526.725 382.15H526.718Z" fill="#543ACE"/>
<path d="M560.009 384.022C560.013 383.642 560.091 383.265 560.241 382.916C560.39 382.566 560.607 382.249 560.88 381.983C561.643 381.25 562.664 380.848 563.722 380.865H563.737C564.644 380.797 565.542 381.088 566.238 381.675C566.933 382.262 567.371 383.098 567.456 384.004C567.452 384.443 567.348 384.875 567.153 385.268C566.958 385.661 566.675 386.005 566.328 386.273C565.594 386.858 564.681 387.172 563.742 387.162C562.832 387.232 561.932 386.942 561.233 386.355C560.535 385.768 560.096 384.93 560.009 384.022ZM563.723 382.066C562.984 382.051 562.269 382.326 561.732 382.833C561.57 382.985 561.441 383.168 561.351 383.372C561.261 383.575 561.213 383.794 561.21 384.016C561.298 384.603 561.61 385.133 562.081 385.495C562.551 385.858 563.143 386.024 563.733 385.96C564.395 385.97 565.041 385.753 565.562 385.344C565.769 385.187 565.939 384.985 566.058 384.754C566.177 384.522 566.243 384.267 566.251 384.007C566.162 383.42 565.85 382.891 565.38 382.529C564.91 382.167 564.318 382.001 563.728 382.065L563.723 382.066Z" fill="#543ACE"/>
<path d="M544.122 406.991C544.467 406.991 544.822 406.991 545.177 406.973C551.977 406.746 557.164 404.555 560.592 400.464C566.264 393.69 564.98 384.242 564.922 383.843C564.877 383.527 564.708 383.242 564.453 383.051C564.198 382.86 563.877 382.777 563.561 382.823C563.246 382.868 562.961 383.036 562.769 383.291C562.578 383.547 562.496 383.867 562.541 384.183C562.554 384.271 563.724 392.995 558.741 398.935C555.773 402.471 551.18 404.368 545.1 404.57C539.211 404.745 534.823 403.217 531.9 399.965C526.6 394.065 527.9 384.365 527.917 384.265C527.962 383.949 527.88 383.629 527.689 383.373C527.497 383.118 527.212 382.95 526.896 382.905C526.581 382.859 526.26 382.942 526.005 383.133C525.75 383.324 525.581 383.609 525.536 383.925C525.474 384.367 524.054 394.811 530.101 401.559C533.333 405.168 538.047 406.991 544.122 406.991Z" fill="#543ACE"/>
<path opacity="0.3" d="M601.901 487.913H493.336L501.467 374.113L510.82 374.09C511.42 378.754 523.62 464.549 600.871 472.154L601.901 487.913Z" fill="#6569CE"/>
<path d="M581.929 511.23H464.059L477.047 426.607L482.524 426.583L569.993 426.392L580.637 502.069L581.929 511.23Z" fill="#FFC359"/>
<path d="M499.176 436.822C499.06 437.464 499.144 438.127 499.418 438.72C499.692 439.312 500.141 439.806 500.706 440.134C501.27 440.462 501.922 440.608 502.573 440.552C503.223 440.497 503.84 440.242 504.341 439.822C504.841 439.403 505.2 438.84 505.369 438.209C505.538 437.579 505.508 436.911 505.284 436.298C505.06 435.685 504.653 435.156 504.117 434.782C503.581 434.409 502.944 434.21 502.291 434.212C501.533 434.152 500.782 434.392 500.2 434.88C499.617 435.368 499.25 436.066 499.176 436.822Z" stroke="white" stroke-width="0.728" stroke-linecap="round" stroke-linejoin="round"/>
<path d="M536.184 436.73C536.068 437.372 536.152 438.035 536.426 438.628C536.7 439.221 537.149 439.714 537.714 440.042C538.279 440.37 538.931 440.516 539.581 440.46C540.231 440.404 540.849 440.15 541.349 439.73C541.85 439.311 542.209 438.747 542.377 438.117C542.546 437.486 542.516 436.819 542.292 436.205C542.068 435.592 541.66 435.063 541.124 434.69C540.589 434.317 539.951 434.118 539.298 434.12C538.541 434.06 537.79 434.3 537.208 434.789C536.625 435.277 536.258 435.974 536.184 436.73Z" stroke="white" stroke-width="0.728" stroke-linecap="round" stroke-linejoin="round"/>
<path d="M539.309 436.728C539.309 436.728 542.343 458.216 520.714 458.956C499.085 459.696 502.301 436.815 502.301 436.815" stroke="white" stroke-width="1.456" stroke-linecap="round" stroke-linejoin="round"/>
<path opacity="0.3" d="M581.929 511.228H464.054L477.047 426.607L482.523 426.584L482.548 426.607C482.548 426.607 477.429 509.627 580.637 502.07L581.929 511.228Z" fill="#EEBE6A"/>
<path d="M125.328 543.773H40.087L49.48 482.573L53.441 482.555L116.697 482.417L124.397 537.146L125.328 543.773Z" fill="#FFC359"/>
<path d="M65.483 489.964C65.3981 490.429 65.4587 490.909 65.6565 491.339C65.8544 491.769 66.1799 492.127 66.5887 492.365C66.9976 492.603 67.4698 492.709 67.9411 492.669C68.4124 492.628 68.8598 492.444 69.2224 492.14C69.585 491.836 69.8452 491.428 69.9675 490.971C70.0897 490.515 70.0681 490.031 69.9056 489.587C69.7431 489.143 69.4476 488.759 69.0594 488.489C68.6711 488.219 68.209 488.075 67.736 488.077C67.1883 488.034 66.6456 488.208 66.2244 488.561C65.8032 488.914 65.5371 489.417 65.483 489.964Z" stroke="white" stroke-width="0.527" stroke-linecap="round" stroke-linejoin="round"/>
<path d="M92.246 489.901C92.1611 490.366 92.2217 490.847 92.4195 491.276C92.6174 491.706 92.9429 492.064 93.3517 492.302C93.7606 492.54 94.2328 492.646 94.7041 492.606C95.1754 492.566 95.6228 492.381 95.9854 492.077C96.348 491.774 96.6082 491.365 96.7305 490.909C96.8527 490.452 96.8311 489.968 96.6686 489.524C96.5061 489.08 96.2106 488.696 95.8224 488.426C95.4341 488.156 94.972 488.012 94.499 488.014C93.9513 487.971 93.4086 488.145 92.9874 488.498C92.5662 488.851 92.3001 489.354 92.246 489.901Z" stroke="white" stroke-width="0.527" stroke-linecap="round" stroke-linejoin="round"/>
<path d="M94.502 489.896C94.502 489.896 96.696 505.436 81.055 505.971C65.414 506.506 67.74 489.959 67.74 489.959" stroke="white" stroke-width="1.053" stroke-linecap="round" stroke-linejoin="round"/>
<path opacity="0.3" d="M125.328 543.774H40.087L49.48 482.574L53.441 482.556L53.458 482.574C53.458 482.574 49.758 542.612 124.394 537.148L125.328 543.774Z" fill="#EEBE6A"/>
<path d="M313.105 67.2371H208.045C205.254 67.2371 202.992 69.4994 202.992 72.2901V98.6471C202.992 101.438 205.254 103.7 208.045 103.7H313.105C315.896 103.7 318.158 101.438 318.158 98.6471V72.2901C318.158 69.4994 315.896 67.2371 313.105 67.2371Z" fill="#C7E9FF"/>
<path d="M214.571 98.15C214.571 98.15 211.344 121.183 211.341 119.773C211.338 118.363 227.641 100.095 227.641 100.095L214.571 98.15Z" fill="#C7E9FF"/>
<path d="M219.641 82.6121L225.81 83.6011L221.272 87.9011L222.238 94.0741L216.751 91.0861L211.179 93.9121L212.325 87.7701L207.915 83.3441L214.115 82.5371L216.962 76.9751L219.641 82.6121Z" fill="#FFB53E"/>
<path d="M241.507 82.6121L247.676 83.6011L243.138 87.9011L244.104 94.0741L238.617 91.0861L233.045 93.9121L234.192 87.7701L229.783 83.3441L235.983 82.5371L238.83 76.9751L241.507 82.6121Z" fill="#FFB53E"/>
<path d="M263.371 82.6121L269.54 83.6011L265.002 87.9011L265.968 94.0741L260.481 91.0861L254.909 93.9121L256.055 87.7701L251.645 83.3441L257.845 82.5371L260.692 76.9751L263.371 82.6121Z" fill="#FFB53E"/>
<path d="M286.861 87.8931L287.839 94.0601L282.556 91.2021L282.349 91.0891L276.784 93.9091L277.912 87.7611L273.512 83.3431L279.698 82.5351L282.556 76.9701L285.245 82.6111L291.412 83.6111L286.861 87.8931Z" fill="white"/>
<path d="M307.101 82.6121L313.27 83.6011L308.732 87.9011L309.698 94.0741L304.211 91.0861L298.638 93.9121L299.785 87.7701L295.375 83.3441L301.575 82.5371L304.422 76.9751L307.101 82.6121Z" fill="white"/>
<path d="M282.556 76.9651V91.1981L282.349 91.0851L276.784 93.9051L277.912 87.7571L273.512 83.3391L279.698 82.5311L282.556 76.9651Z" fill="#FFB53E"/>
<path d="M601.9 242.562C605.053 242.562 607.609 240.006 607.609 236.853C607.609 233.7 605.053 231.144 601.9 231.144C598.747 231.144 596.191 233.7 596.191 236.853C596.191 240.006 598.747 242.562 601.9 242.562Z" fill="#C7E9FF"/>
<path d="M615.097 351.087C618.25 351.087 620.806 348.531 620.806 345.378C620.806 342.225 618.25 339.669 615.097 339.669C611.944 339.669 609.388 342.225 609.388 345.378C609.388 348.531 611.944 351.087 615.097 351.087Z" fill="#C7E9FF"/>
<path d="M197.677 132.435C197.677 133.121 197.474 133.791 197.093 134.361C196.712 134.931 196.171 135.375 195.537 135.637C194.904 135.899 194.207 135.968 193.535 135.834C192.862 135.701 192.245 135.371 191.76 134.886C191.275 134.401 190.945 133.784 190.812 133.111C190.678 132.439 190.746 131.742 191.009 131.109C191.271 130.475 191.715 129.934 192.285 129.553C192.855 129.172 193.525 128.969 194.211 128.969C195.13 128.969 196.012 129.334 196.662 129.984C197.312 130.634 197.677 131.516 197.677 132.435Z" fill="#C7E9FF"/>
<path d="M69.979 93.661C71.8932 93.661 73.445 92.1092 73.445 90.195C73.445 88.2808 71.8932 86.729 69.979 86.729C68.0648 86.729 66.513 88.2808 66.513 90.195C66.513 92.1092 68.0648 93.661 69.979 93.661Z" fill="#C7E9FF"/>
<path d="M168.206 23.8391C168.206 24.5246 168.003 25.1947 167.622 25.7646C167.241 26.3346 166.7 26.7789 166.066 27.0412C165.433 27.3035 164.736 27.3722 164.064 27.2384C163.391 27.1047 162.774 26.7746 162.289 26.2899C161.804 25.8051 161.474 25.1876 161.341 24.5152C161.207 23.8429 161.275 23.146 161.538 22.5127C161.8 21.8793 162.244 21.338 162.814 20.9572C163.384 20.5763 164.054 20.373 164.74 20.373C165.195 20.373 165.646 20.4627 166.066 20.6369C166.487 20.8111 166.869 21.0664 167.191 21.3882C167.513 21.7101 167.768 22.0922 167.942 22.5127C168.116 22.9332 168.206 23.3839 168.206 23.8391Z" fill="#C7E9FF"/>
<path d="M284.316 228.638C287.187 228.638 289.515 226.31 289.515 223.439C289.515 220.568 287.187 218.24 284.316 218.24C281.445 218.24 279.117 220.568 279.117 223.439C279.117 226.31 281.445 228.638 284.316 228.638Z" fill="#C7E9FF"/>
<path d="M62.115 290.337C64.9863 290.337 67.314 288.009 67.314 285.138C67.314 282.267 64.9863 279.939 62.115 279.939C59.2437 279.939 56.916 282.267 56.916 285.138C56.916 288.009 59.2437 290.337 62.115 290.337Z" fill="#C7E9FF"/>
<path d="M260.624 134.167C263.495 134.167 265.823 131.839 265.823 128.968C265.823 126.097 263.495 123.769 260.624 123.769C257.753 123.769 255.425 126.097 255.425 128.968C255.425 131.839 257.753 134.167 260.624 134.167Z" fill="#C7E9FF"/>
<path d="M601.901 107.61C604.772 107.61 607.1 105.282 607.1 102.411C607.1 99.5397 604.772 97.212 601.901 97.212C599.03 97.212 596.702 99.5397 596.702 102.411C596.702 105.282 599.03 107.61 601.901 107.61Z" fill="#C7E9FF"/>
<path d="M350.425 3.466C350.425 4.1518 350.222 4.82223 349.841 5.39253C349.46 5.96283 348.919 6.40736 348.285 6.66989C347.652 6.93242 346.955 7.00117 346.282 6.86743C345.609 6.73369 344.991 6.40346 344.506 5.91853C344.022 5.4336 343.691 4.81575 343.558 4.14313C343.424 3.4705 343.493 2.77332 343.755 2.13977C344.018 1.50622 344.462 0.964761 345.032 0.583878C345.603 0.202995 346.273 -0.000197633 346.959 1.44242e-07C347.414 1.44243e-07 347.865 0.0896571 348.285 0.26384C348.706 0.438023 349.088 0.693319 349.41 1.01517C349.732 1.33702 349.987 1.7191 350.161 2.13962C350.335 2.56013 350.425 3.01084 350.425 3.466Z" fill="#C7E9FF"/>
<path d="M554.551 127.241C554.551 127.927 554.348 128.597 553.967 129.167C553.586 129.737 553.044 130.182 552.411 130.444C551.777 130.707 551.08 130.775 550.408 130.641C549.735 130.508 549.117 130.177 548.632 129.693C548.148 129.208 547.817 128.59 547.684 127.917C547.55 127.245 547.619 126.548 547.881 125.914C548.143 125.281 548.588 124.739 549.158 124.358C549.728 123.977 550.398 123.774 551.084 123.774C551.539 123.774 551.99 123.864 552.411 124.038C552.832 124.212 553.214 124.467 553.536 124.789C553.858 125.111 554.113 125.493 554.287 125.914C554.462 126.335 554.551 126.786 554.551 127.241Z" fill="#C7E9FF"/>
<path d="M573.902 33.856C573.902 34.5415 573.699 35.2116 573.318 35.7816C572.937 36.3516 572.396 36.7958 571.762 37.0582C571.129 37.3205 570.432 37.3891 569.76 37.2554C569.087 37.1217 568.47 36.7916 567.985 36.3068C567.5 35.8221 567.17 35.2045 567.037 34.5322C566.903 33.8599 566.972 33.163 567.234 32.5296C567.496 31.8963 567.94 31.355 568.51 30.9741C569.08 30.5933 569.751 30.39 570.436 30.39C571.355 30.39 572.237 30.7552 572.887 31.4052C573.537 32.0552 573.902 32.9367 573.902 33.856Z" fill="#C7E9FF"/>
<path d="M244.345 357.625C244.345 358.311 244.142 358.981 243.761 359.551C243.38 360.121 242.839 360.565 242.205 360.827C241.572 361.089 240.875 361.158 240.203 361.024C239.53 360.891 238.913 360.561 238.428 360.076C237.943 359.591 237.613 358.974 237.48 358.301C237.346 357.629 237.415 356.932 237.677 356.299C237.939 355.665 238.383 355.124 238.953 354.743C239.523 354.362 240.193 354.159 240.879 354.159C241.798 354.159 242.68 354.524 243.33 355.174C243.98 355.824 244.345 356.706 244.345 357.625Z" fill="#C7E9FF"/>
</g>
<defs>
<clipPath id="clip0_2012_10">
<rect width="620.808" height="543.774" fill="white"/>
</clipPath>
</defs>
</svg>
