<svg width="89" height="89" viewBox="0 0 89 89" fill="none" xmlns="http://www.w3.org/2000/svg">
<g clip-path="url(#clip0_2019_20)">
<path d="M70.748 5.89541e-05C71.4351 0.31236 71.7114 0.566418 72.1061 1.20599C72.8887 3.42027 72.5039 6.21118 72.4863 8.51764C72.6476 8.48075 72.809 8.44386 72.9752 8.40585C74.7371 8.02642 76.4329 7.91438 78.2327 7.92817C78.6732 7.931 79.1134 7.92816 79.5539 7.92486C79.8383 7.9252 80.1227 7.92587 80.4071 7.92689C80.5365 7.92584 80.666 7.92478 80.7994 7.9237C81.6842 7.9355 82.3031 8.10545 83.0898 8.51764C83.7747 9.25652 83.9747 9.71159 84.033 10.7143C83.8428 11.7698 83.0698 12.6302 82.3837 13.4174C82.3004 13.514 82.2172 13.6105 82.1314 13.7099C81.8727 14.0083 81.6123 14.305 81.3516 14.6016C81.2718 14.6935 81.1921 14.7854 81.11 14.88C79.6546 16.5529 78.0588 18.2828 75.9629 19.1212C75.7908 19.1212 75.6187 19.1212 75.4414 19.1212C75.4414 19.2359 75.4414 19.3506 75.4414 19.4688C75.5633 19.5118 75.6852 19.5549 75.8108 19.5992C76.5973 19.9412 77.1898 20.2716 77.6794 20.9898C77.9975 21.9088 78.0307 22.5914 77.636 23.4886C75.622 25.6943 71.8162 26.675 69.0098 27.4649C69.1648 27.5386 69.3199 27.6123 69.4796 27.6883C71.3506 28.6259 71.3506 28.6259 71.7584 29.2684C72.0995 30.3095 72.1427 31.0452 71.7102 32.0612C71.2255 32.8604 70.5064 33.208 69.6942 33.6249C69.5406 33.7063 69.3869 33.7877 69.2286 33.8715C66.973 35.045 64.6583 35.9829 62.2182 36.6934C61.7327 36.8009 61.7327 36.8009 61.5352 37.0255C61.6394 37.0832 61.7436 37.1409 61.8509 37.2004C62.3295 37.4666 62.8069 37.7349 63.2843 38.0032C63.4482 38.094 63.6121 38.1847 63.781 38.2782C66.2538 39.674 66.2538 39.674 66.75 40.8497C66.866 41.7425 66.8569 42.5214 66.4893 43.3485C65.5085 44.3782 64.1922 44.9332 62.9258 45.543C63.0622 45.6022 63.1987 45.6613 63.3393 45.7223C65.0906 46.5302 66.2362 47.5395 66.9238 49.3673C67.4965 51.2294 67.3672 52.9528 66.5198 54.7125C66.0123 55.6076 65.5014 56.2438 64.6641 56.8419C64.7212 56.9416 64.7783 57.0413 64.8372 57.144C66.0417 59.2951 67.1015 61.5228 67.9777 63.8276C68.0296 63.9606 68.0816 64.0936 68.1352 64.2306C68.4568 65.1068 68.5611 65.8161 68.4883 66.7501C68.2167 67.1846 68.2167 67.1846 67.793 67.4454C67.1846 67.5323 67.1846 67.5323 66.5762 67.4454C66.0133 66.982 65.7541 66.5509 65.506 65.8721C65.4405 65.6986 65.3749 65.525 65.3073 65.3462C65.204 65.0678 65.204 65.0678 65.0986 64.7836C64.4154 63 63.6211 61.3163 62.7102 59.6382C62.6249 59.4811 62.5397 59.3239 62.4518 59.1621C62.3755 59.024 62.2992 58.886 62.2205 58.7438C62.0566 58.4063 62.0566 58.4063 62.0566 58.0587C61.8318 58.1216 61.8318 58.1216 61.6024 58.1857C58.7701 58.9719 55.942 59.7081 53.0502 60.2424C52.9313 60.2645 52.8125 60.2867 52.69 60.3096C50.7043 60.677 50.7043 60.677 49.7148 60.6661C49.7269 60.7655 49.739 60.8648 49.7514 60.9672C49.8889 62.1978 49.9221 63.4171 49.9301 64.6546C49.9315 64.8649 49.9329 65.0752 49.9343 65.2919C49.9367 65.734 49.9386 66.176 49.94 66.6181C49.942 67.0688 49.9456 67.5196 49.9507 67.9703C49.9581 68.6251 49.9609 69.2798 49.9627 69.9347C49.9657 70.1349 49.9688 70.3352 49.9719 70.5416C49.9683 71.8927 49.7852 72.8148 48.9021 73.8811C48.8082 73.9586 48.7143 74.0362 48.6176 74.116C48.4787 74.2364 48.4787 74.2364 48.3371 74.3591C47.2563 74.9982 46.1093 74.9708 44.8912 74.9677C44.615 74.9691 44.615 74.9691 44.3331 74.9704C43.7265 74.9728 43.1199 74.9727 42.5132 74.9723C42.09 74.9729 41.6668 74.9737 41.2436 74.9745C40.3572 74.9758 39.4709 74.9758 38.5845 74.9749C37.4508 74.9739 36.3171 74.9768 35.1834 74.9808C34.3095 74.9834 33.4356 74.9835 32.5617 74.983C32.1438 74.9831 31.7259 74.984 31.308 74.9858C30.7227 74.9879 30.1375 74.9867 29.5522 74.9847C29.381 74.986 29.2097 74.9874 29.0333 74.9887C27.8215 74.9796 26.6413 74.8511 25.6675 74.0739C25.5758 73.9588 25.4842 73.8436 25.3898 73.7249C25.2476 73.5535 25.2476 73.5535 25.1025 73.3786C23.1246 70.387 24.2778 63.809 24.8574 60.4923C24.7238 60.485 24.5902 60.4777 24.4525 60.4703C22.9604 60.3743 21.5211 60.1526 20.0554 59.8621C19.8832 59.8285 19.8832 59.8285 19.7074 59.7942C17.4411 59.3505 15.2119 58.7912 12.9836 58.1846C12.366 58.0184 11.7461 57.8635 11.125 57.711C9.84197 60.4659 8.81091 63.2068 8.17943 66.1838C7.98181 66.7942 7.81004 67.062 7.30078 67.4454C6.66462 67.5249 6.25328 67.5256 5.67114 67.2498C5.27254 66.7899 5.26262 66.4905 5.21484 65.8809C5.28927 65.3089 5.42232 64.7561 5.5625 64.197C5.62153 63.9568 5.62153 63.9568 5.68175 63.7117C6.2932 61.3155 7.18111 59.0563 8.31116 56.8595C8.53771 56.2678 8.5542 56.0395 8.34375 55.4512C8.15226 55.0807 8.15226 55.0807 7.92004 54.7233C6.9979 53.1036 6.97297 51.3936 7.4135 49.6049C7.95733 48.0133 9.15907 46.6849 10.6252 45.8717C11.3245 45.5395 11.94 45.3731 12.718 45.3597C14.1554 45.3315 14.8793 45.1066 15.9854 44.1979C17.6018 42.995 19.6409 42.2946 21.5547 41.7188C21.5178 41.613 21.481 41.5071 21.443 41.3981C21.2744 40.9085 21.1103 40.4174 20.9463 39.9262C20.8883 39.7598 20.8302 39.5935 20.7704 39.422C20.3368 38.108 19.9631 36.6043 20.6095 35.298C21.2108 34.5425 21.7823 34.186 22.7362 33.9502C25.4536 33.6884 29.1708 35.4795 31.6073 36.5671C32.0488 36.6967 32.2566 36.6783 32.6797 36.504C33.0705 36.0735 33.0705 36.0735 33.375 35.6348C33.3118 35.5015 33.2486 35.3682 33.1835 35.2308C31.5847 31.7012 29.8095 26.6725 30.4199 22.7715C30.7804 21.9003 31.2957 21.5603 32.1073 21.1487C33.27 20.812 34.1384 21.1392 35.1785 21.6308C35.3819 21.7244 35.3819 21.7244 35.5894 21.8199C37.9124 22.9031 40.1109 24.1268 42.2402 25.5528C42.4369 25.6839 42.6336 25.8149 42.8303 25.9459C42.9798 26.0457 43.1292 26.1454 43.2832 26.2481C43.2225 26.0951 43.1618 25.942 43.0992 25.7843C43.0201 25.5824 42.941 25.3806 42.8595 25.1725C42.7808 24.9729 42.7022 24.7732 42.6212 24.5675C42.2747 23.5985 42.1591 22.751 42.2402 21.7286C42.5118 21.294 42.5118 21.294 42.9355 21.0333C43.5426 20.9574 43.9591 20.9376 44.5129 21.2118C44.999 21.7097 45.092 22.2884 45.2496 22.9454C45.7698 24.8803 46.5613 26.4031 48.3242 27.4649C48.9708 27.7882 49.7046 27.7149 50.4102 27.6387C51.2549 27.346 51.8298 26.813 52.3223 26.0743C52.8323 24.5442 52.5143 22.9986 51.8952 21.5541C51.4902 20.7678 50.9973 20.1266 50.4102 19.4688C50.2858 19.3238 50.1614 19.1789 50.0333 19.0295C48.5434 17.3242 46.8024 15.9848 45.0215 14.6016C44.6563 14.9669 44.7957 15.8731 44.7882 16.3881C44.753 17.2224 44.5923 17.6806 43.9785 18.252C43.6309 18.3674 43.6309 18.3674 43.2832 18.3607C43.1685 18.3629 43.0538 18.3651 42.9355 18.3674C42.3816 18.1835 42.1936 17.8719 41.8926 17.3829C41.8186 16.8329 41.8186 16.8329 41.8383 16.2313C41.8452 16.0175 41.8521 15.8037 41.8593 15.5835C41.8703 15.3742 41.8813 15.1649 41.8926 14.9493C41.8982 14.7687 41.9038 14.5881 41.9096 14.402C41.9621 13.4183 42.0672 12.7436 42.7617 11.9942C43.3455 11.5321 43.8367 11.3195 44.576 11.212C46.241 11.4457 47.3474 12.6 48.5634 13.6634C48.978 14.0201 49.4065 14.3588 49.8344 14.6994C50.7872 15.4737 51.6432 16.3275 52.4961 17.209C52.6695 17.3833 52.8432 17.5573 53.0176 17.7305C52.9758 17.5408 52.9758 17.5408 52.9333 17.3471C52.3258 14.0504 52.9656 10.0943 54.0605 6.95318C54.5538 6.31717 55.0092 5.92002 55.7988 5.73639C57.0389 5.77576 57.7287 6.08269 58.6079 6.99528C59.0117 7.43882 59.406 7.88886 59.7969 8.34381C59.9064 8.47041 60.016 8.59701 60.1289 8.72745C60.3672 9.00405 60.6038 9.28214 60.8398 9.56061C60.8879 9.37406 60.8879 9.37406 60.9369 9.18375C61.6919 6.59016 63.4796 4.4614 65.5223 2.73785C65.9082 2.41046 66.2792 2.0694 66.6522 1.72748C69.0065 -0.340555 69.0065 -0.340555 70.748 5.89541e-05ZM68.8312 3.6002C68.723 3.70106 68.6147 3.80193 68.5032 3.90584C68.0281 4.35332 67.5534 4.80115 67.0801 5.25055C66.7999 5.5154 66.5173 5.77716 66.2333 6.03787C64.6345 7.55014 63.5257 9.22029 63.4473 11.4727C63.5393 12.2875 63.7619 12.717 64.3381 13.2762C65.0293 13.8122 65.5296 13.9202 66.4023 13.9063C67.0527 13.6643 67.3721 13.5014 67.7448 12.9082C67.8216 12.7284 67.8985 12.5487 67.9777 12.3636C68.4429 11.3391 68.4429 11.3391 68.9663 10.8752C70.2896 9.36808 69.8116 5.87879 69.7051 3.99811C69.6526 3.70735 69.5963 3.41717 69.5312 3.12897C69.2237 3.12897 69.0471 3.39847 68.8312 3.6002ZM56.3203 9.21295C56.2364 9.61842 56.1532 10.024 56.0704 10.4297C56.047 10.5425 56.0236 10.6552 55.9995 10.7713C55.4604 13.427 55.0942 16.4391 56.5743 18.8373C56.998 19.4417 57.3399 19.9197 58.0586 20.1641C58.8647 20.1317 59.2499 19.7624 59.8186 19.2189C60.2673 18.7941 60.6725 18.4215 61.1875 18.0782C61.5298 16.1568 60.8336 14.5358 59.786 12.972C59.1977 12.1446 58.5657 11.3518 57.9174 10.571C57.7985 10.4268 57.7985 10.4268 57.6773 10.2798C57.267 9.79856 56.9174 9.4398 56.3203 9.21295ZM70.7155 12.8416C70.1623 13.5502 70.0238 14.0513 70.0527 14.9493C70.3514 15.8452 70.8391 16.3376 71.6172 16.8614C72.8487 17.2555 74.1943 16.8693 75.3287 16.3134C77.0232 15.2505 78.4449 13.7483 79.7437 12.2441C79.835 12.1384 79.9264 12.0328 80.0206 11.9239C80.4989 11.4197 80.4989 11.4197 80.6562 10.7774C79.9207 10.7687 79.1851 10.7625 78.4494 10.7583C78.2 10.7566 77.9505 10.7542 77.701 10.7512C75.1477 10.7209 72.603 10.8767 70.7155 12.8416ZM63.4473 20.6856C63.0208 21.3531 63.0607 21.9843 63.1682 22.7457C63.3842 23.5123 63.96 23.8637 64.588 24.2925C66.092 25.0638 68.0804 24.8615 69.6521 24.3806C71.3525 23.8068 72.9682 23.0501 74.5723 22.2501C71.8567 20.0363 66.2818 17.7094 63.4473 20.6856ZM55.1035 21.5547C55.1609 22.0137 55.2182 22.4726 55.2773 22.9454C55.4494 22.9454 55.6215 22.9454 55.7988 22.9454C56.0953 22.6081 56.0953 22.6081 56.3203 22.2501C55.9188 22.0206 55.5172 21.7912 55.1035 21.5547ZM59.069 23.5429C58.834 23.7577 58.834 23.7577 58.5943 23.9768C58.4152 24.1546 58.4152 24.1546 58.2324 24.336C58.2324 24.3934 58.2324 24.4507 58.2324 24.5098C59.0929 24.5098 59.9533 24.5098 60.8398 24.5098C60.7251 23.9362 60.6104 23.3626 60.4922 22.7715C59.7755 22.7715 59.5877 23.0631 59.069 23.5429ZM33.2012 23.9883C33.2892 25.4011 33.5266 26.7407 33.853 28.1168C33.8992 28.3143 33.9455 28.5119 33.9931 28.7154C34.4183 30.4942 34.9455 32.2015 35.6348 33.8965C35.8983 33.8105 35.8983 33.8105 36.1671 33.7227C38.0153 33.2664 40.0944 33.3526 41.7697 34.2944C42.7244 34.909 43.6136 35.6218 44.5 36.3301C44.9175 36.0123 45.0147 35.8521 45.0969 35.3245C45.0997 32.8958 44.1399 31.1971 42.5879 29.377C40.5316 27.5231 36.0709 23.9883 33.2012 23.9883ZM54.9297 28.8555C54.3896 29.5982 54.3052 30.2992 54.3376 31.1975C54.4812 32.0908 54.9084 32.7241 55.6019 33.2943C57.1689 34.3399 59.0199 34.5093 60.8499 34.1798C63.7261 33.5256 66.4041 32.1082 69.0098 30.7676C68.3973 30.2601 67.7156 29.9291 66.9999 29.5943C66.8717 29.5342 66.7436 29.4741 66.6115 29.4122C65.6264 28.9596 64.627 28.5577 63.6102 28.1819C63.476 28.1323 63.3418 28.0826 63.2035 28.0314C60.4386 27.0351 57.2072 26.6326 54.9297 28.8555ZM46.4121 29.7247C46.4619 29.849 46.5116 29.9734 46.5629 30.1015C46.8603 30.845 47.1577 31.5886 47.4551 32.3321C47.5698 32.3321 47.6845 32.3321 47.8027 32.3321C48.0788 32.034 48.0788 32.034 48.3459 31.6585C48.4864 31.471 48.4864 31.471 48.6298 31.2796C48.8769 30.9595 48.8769 30.9595 48.8457 30.5938C48.5379 30.4815 48.2301 30.3692 47.9222 30.257C47.7508 30.1945 47.5794 30.132 47.4028 30.0676C47.074 29.9491 46.7436 29.8352 46.4121 29.7247ZM51.4531 31.9844C51.1424 32.3553 50.8502 32.7264 50.5623 33.1143C50.4809 33.2221 50.3996 33.3299 50.3158 33.4409C50.1145 33.7079 49.9145 33.976 49.7148 34.2442C50.3528 34.4568 50.8169 34.3972 51.4857 34.342C51.7069 34.3243 51.928 34.3066 52.1559 34.2883C52.3255 34.2738 52.4952 34.2592 52.6699 34.2442C52.5977 34.0869 52.5977 34.0869 52.5239 33.9264C52.461 33.7875 52.398 33.6486 52.3331 33.5054C52.2706 33.3683 52.2081 33.2312 52.1437 33.0899C51.9919 32.7218 51.8854 32.3726 51.8008 31.9844C51.6861 31.9844 51.5713 31.9844 51.4531 31.9844ZM33.9861 39.1868C31.3474 41.8776 28.5892 43.2866 24.8724 43.9209C22.4404 44.3434 20.2638 45.0539 18.0781 46.2383C18.2187 46.6213 18.2187 46.6213 18.6087 46.7074C19.1521 46.8323 19.6953 46.9563 20.2401 47.0749C20.4474 47.1203 20.6548 47.1658 20.8684 47.2126C22.5517 47.5691 24.242 47.8548 25.9438 48.107C26.0598 48.1245 26.1758 48.142 26.2953 48.16C30.1051 48.7285 33.8926 48.9114 37.7424 48.9001C37.9603 48.8998 38.1782 48.8996 38.4026 48.8993C41.5703 48.8925 44.668 48.8097 47.8027 48.3243C47.9792 48.2992 48.1556 48.274 48.3374 48.2481C51.0395 47.8629 53.6762 47.2559 56.3203 46.586C56.5937 46.5175 56.8671 46.4492 57.1406 46.3809C57.3288 46.3339 57.517 46.2868 57.7109 46.2383C57.1565 44.6172 55.6813 43.8668 54.2236 43.1394C52.6223 42.3668 50.9326 41.8313 49.2477 41.2734C46.4807 40.3571 44.0097 39.4423 41.7188 37.5795C40.5029 36.6009 39.6457 36.0358 38.0358 36.085C36.3457 36.3315 35.1211 38.028 33.9861 39.1868ZM23.1191 36.8516C23.3905 38.3713 23.9509 39.765 24.5098 41.1973C26.6003 41.1454 28.4146 40.3578 30.0723 39.1114C29.4962 38.7274 28.9199 38.5274 28.2695 38.3115C28.1445 38.2696 28.0196 38.2276 27.8909 38.1844C27.627 38.0961 27.363 38.0081 27.0988 37.9206C26.6951 37.7865 26.2922 37.6505 25.8892 37.5143C25.6324 37.4287 25.3757 37.3431 25.1188 37.2577C24.9986 37.2169 24.8783 37.1762 24.7544 37.1342C24.171 36.9426 23.7415 36.8516 23.1191 36.8516ZM48.3242 38.0684C49.2506 38.4641 50.1862 38.8083 51.1452 39.115C53.8885 39.996 57.0052 41.0274 59.0038 43.2072C59.2243 43.4169 59.2243 43.4169 59.4492 43.6309C60.0819 43.5719 60.6227 43.3501 61.2018 43.0979C61.3637 43.0279 61.5255 42.9578 61.6923 42.8857C61.8592 42.8125 62.026 42.7394 62.1979 42.664C62.3681 42.5902 62.5382 42.5163 62.7136 42.4403C63.1323 42.2585 63.5507 42.0759 63.9688 41.8926C63.2569 41.2827 62.5047 40.8317 61.6873 40.3825C61.5508 40.3074 61.4144 40.2323 61.2739 40.1549C59.7683 39.3359 58.2382 38.5813 56.668 37.8946C56.5558 37.8445 56.4437 37.7944 56.3282 37.7428C54.1019 36.7754 50.2313 36.1614 48.3242 38.0684ZM11.0055 49.0739C10.2677 49.9313 9.87282 50.8298 9.9082 51.9747C10.0985 52.9154 10.4187 53.7401 11.125 54.4083C12.1837 54.9979 13.2401 55.3592 14.406 55.6794C14.5923 55.7308 14.7785 55.7822 14.9704 55.8351C28.9312 59.5783 49.8189 61.7038 63.0758 54.582C63.9079 53.9879 64.2615 53.1113 64.4902 52.1485C64.5949 50.9886 64.2749 50.1075 63.5865 49.1792C62.9096 48.4582 62.2567 48.1846 61.2805 48.0955C60.2399 48.1162 59.2726 48.4752 58.2867 48.7806C51.6715 50.7468 44.9732 51.5275 38.0901 51.5075C37.8639 51.5072 37.6378 51.5069 37.4048 51.5066C34.0009 51.4985 30.6647 51.4066 27.291 50.9317C27.0637 50.901 26.8365 50.8702 26.6023 50.8385C22.6572 50.2997 18.7076 49.5969 14.9018 48.4064C13.3913 47.9513 12.2336 48.0172 11.0055 49.0739ZM27.6387 61.0137C27.1147 64.0306 26.3426 68.6199 27.291 71.6173C27.7831 72.0641 28.1038 72.204 28.7648 72.205C28.9198 72.2064 29.0748 72.2079 29.2344 72.2094C29.4875 72.2078 29.4875 72.2078 29.7457 72.2062C30.0137 72.2076 30.0137 72.2076 30.2872 72.209C30.8783 72.2113 31.4693 72.2098 32.0604 72.208C32.4709 72.2084 32.8813 72.2089 33.2918 72.2095C34.1522 72.2103 35.0125 72.2092 35.8729 72.2067C36.9766 72.2038 38.0801 72.2055 39.1838 72.2086C40.0314 72.2105 40.879 72.2099 41.7266 72.2085C42.1335 72.2082 42.5405 72.2086 42.9475 72.2098C43.5159 72.2111 44.0843 72.2091 44.6528 72.2062C44.9058 72.2078 44.9058 72.2078 45.164 72.2094C45.319 72.2079 45.474 72.2065 45.6337 72.205C45.768 72.2048 45.9023 72.2046 46.0407 72.2044C46.5143 72.1207 46.7569 71.9413 47.1074 71.6173C47.209 71.2129 47.209 71.2129 47.1891 70.7531C47.1896 70.5772 47.1901 70.4014 47.1907 70.2202C47.1876 70.03 47.1846 69.8399 47.1814 69.644C47.1809 69.4479 47.1803 69.2517 47.1797 69.0495C47.177 68.4206 47.1693 67.7918 47.1617 67.1629C47.1597 66.7431 47.158 66.3232 47.1567 65.9033C47.1543 65.4989 47.1517 65.0944 47.1488 64.6899C47.1476 64.5019 47.1463 64.3139 47.145 64.1202C47.1319 63.0723 47.0684 62.0532 46.9336 61.0137C46.7704 61.0243 46.6073 61.0348 46.4391 61.0457C41.1195 61.3846 35.7741 61.6015 30.4559 61.0952C29.793 61.0321 29.1418 60.9942 28.4752 61.0029C28.315 61.0044 28.1548 61.006 27.9897 61.0076C27.816 61.0107 27.816 61.0107 27.6387 61.0137Z" fill="black"/>
<path d="M6.43164 70.1179C6.54637 70.1156 6.6611 70.1134 6.7793 70.1111C7.34074 70.2975 7.5144 70.597 7.82227 71.0957C7.96831 71.5994 8.04476 72.11 8.12647 72.6275C8.5615 74.9823 9.56636 76.929 11.125 78.7441C11.4712 79.1724 11.635 79.3818 11.7443 79.9283C11.5601 80.9722 10.7553 81.5855 9.96253 82.2315C9.41443 82.6875 9.11183 83.1034 8.86524 83.7851C8.82129 84.2634 8.82129 84.2634 8.86524 84.6543C9.52384 85.0933 10.1905 85.0998 10.9512 85.0019C12.2658 84.6995 13.3117 84.1968 14.3836 83.3825C14.5775 83.2376 14.5775 83.2376 14.7754 83.0898C14.9101 82.9878 15.0447 82.8859 15.1835 82.7808C15.92 82.4413 16.494 82.6174 17.244 82.8721C17.687 83.0376 18.1268 83.2103 18.567 83.3831C23.8185 85.3524 29.6025 86.0614 35.1887 86.0802C35.3047 86.0807 35.4208 86.0812 35.5404 86.0817C36.1573 86.0843 36.7742 86.0859 37.3911 86.0866C37.888 86.0874 38.3849 86.0898 38.8819 86.0938C45.084 86.1425 51.5629 85.8256 57.3781 83.4641C58.0927 83.1756 58.6661 82.9743 59.4492 83.0898C59.9782 83.3757 59.9782 83.3757 60.5248 83.7525C61.8502 84.6232 63.2258 85.1664 64.8379 85.0019C65.247 84.8488 65.247 84.8488 65.5332 84.6543C65.6127 84.1241 65.6112 83.7454 65.3376 83.2752C64.9771 82.7934 64.5997 82.3378 64.1888 81.8981C64.0946 81.7966 64.0005 81.6951 63.9036 81.5905C63.7725 81.4581 63.7725 81.4581 63.6388 81.323C63.348 80.8384 63.372 80.5165 63.4473 79.9609C63.7589 79.47 63.7589 79.47 64.1752 78.9722C64.9295 78.0286 65.4543 77.0925 65.8809 75.9628C65.9322 75.8342 65.9835 75.7056 66.0364 75.5731C66.4361 74.4348 66.5194 73.2661 66.5919 72.069C66.6433 71.408 66.6745 71.0257 67.0712 70.4798C67.6218 70.1071 68.013 70.1454 68.6621 70.2265C69.2158 70.5325 69.3284 70.6609 69.5313 71.2695C69.8126 74.5997 68.6313 77.6906 66.9238 80.4824C66.9931 80.5686 67.0623 80.6549 67.1336 80.7438C68.303 82.2432 68.6633 83.4411 68.4883 85.3496C68.1603 86.4107 67.3789 87.0736 66.4349 87.6168C64.792 88.3458 62.8238 88.0312 61.1875 87.4355C60.8818 87.2614 60.5761 87.0872 60.272 86.9102C59.4563 86.4535 58.7954 86.111 57.8529 86.3416C57.1796 86.5595 56.5284 86.8338 55.8737 87.1016C51.4859 88.764 46.0693 89.0199 41.4376 89.0353C41.261 89.036 41.261 89.036 41.0807 89.0368C40.4546 89.0393 39.8285 89.041 39.2024 89.0417C38.6982 89.0425 38.1941 89.0449 37.6899 89.0488C30.794 89.1023 23.4852 88.6992 17.0623 85.9695C16.4288 85.8031 15.9832 85.9535 15.4205 86.2656C15.2865 86.3541 15.1525 86.4426 15.0144 86.5338C13.1211 87.7093 10.9239 88.3176 8.70703 87.8504C7.51843 87.4793 6.76675 86.9167 6.08399 85.871C5.65265 84.577 5.80722 83.1749 6.35831 81.9429C6.80188 81.1935 7.38414 80.5758 7.9961 79.9609C7.77177 79.3581 7.50632 78.8394 7.15955 78.2987C5.91296 76.2494 4.81062 73.5424 5.04102 71.0957C5.41826 70.4813 5.68204 70.1032 6.43164 70.1179Z" fill="black"/>
<path d="M35.6348 42.414C35.9716 42.5987 35.9716 42.5987 36.1562 42.9355C36.3348 43.6243 36.4006 43.9978 36.1019 44.6521C35.8086 45.0214 35.8086 45.0214 35.4609 45.1953C34.8006 45.2564 34.393 45.2869 33.8204 44.9345C33.4374 44.3217 33.4103 43.8133 33.5488 43.1093C34.0708 42.2394 34.7104 42.3113 35.6348 42.414Z" fill="black"/>
<path d="M42.2402 42.0664C42.7135 42.4026 42.8922 42.6411 43.0876 43.1854C43.1136 43.7183 43.0042 44.0278 42.7617 44.5C42.3359 44.9258 42.1418 44.9807 41.5449 45.0214C40.5648 44.6256 40.5648 44.6256 40.3281 44.1523C40.2288 42.9206 40.2288 42.9206 40.5997 42.3271C41.1884 41.9649 41.5612 41.9694 42.2402 42.0664Z" fill="black"/>
<path d="M46.5859 41.7187C47.0592 42.0549 47.2379 42.2934 47.4333 42.8377C47.4593 43.3707 47.3499 43.6801 47.1074 44.1523C46.6816 44.5782 46.4875 44.6331 45.8906 44.6738C44.9105 44.278 44.9105 44.278 44.6738 43.8046C44.5745 42.5729 44.5745 42.5729 44.9454 41.9794C45.5341 41.6172 45.9069 41.6217 46.5859 41.7187Z" fill="black"/>
<path d="M39.459 38.5899C39.8865 39.2312 39.925 39.7576 39.8066 40.5021C39.535 40.9366 39.535 40.9366 39.1113 41.1974C38.4323 41.2944 38.0595 41.2989 37.4708 40.9366C37.0885 40.3249 37.0793 39.8148 37.1992 39.1114C37.4309 38.6596 37.5821 38.483 38.0358 38.264C38.5786 38.233 38.9636 38.3746 39.459 38.5899Z" fill="black"/>
</g>
<defs>
<clipPath id="clip0_2019_20">
<rect width="89" height="89" fill="white"/>
</clipPath>
</defs>
</svg>
