<svg width="89" height="89" viewBox="0 0 89 89" fill="none" xmlns="http://www.w3.org/2000/svg">
<g clip-path="url(#clip0_2021_27)">
<path d="M59.2754 -1.6532e-05C59.8295 0.27159 59.8295 0.27159 60.3184 0.695296C60.4122 0.773722 60.5061 0.852149 60.6029 0.932952C62.3851 2.54294 63.8343 5.26583 64.057 7.68712C64.1388 9.37959 63.8459 10.7921 62.7954 12.1354C61.9059 13.0856 61.0809 13.5184 59.7969 13.7324C59.7969 14.7076 59.7969 15.6828 59.7969 16.6875C60.2916 16.666 60.2916 16.666 60.7964 16.644C61.7607 16.6021 61.7607 16.6021 62.2576 16.9496C62.7037 17.5526 62.6755 18.0977 62.6683 18.8192C62.6703 19.0384 62.6703 19.0384 62.6723 19.262C62.6758 19.7523 62.6744 20.2425 62.673 20.7329C62.6745 21.0841 62.6764 21.4353 62.6785 21.7864C62.6833 22.7406 62.6839 23.6948 62.6837 24.649C62.6843 25.6459 62.6887 26.6428 62.6928 27.6396C62.6998 29.5278 62.7033 31.4159 62.7056 33.304C62.7084 35.4534 62.7151 37.6028 62.7221 39.7521C62.7364 44.1739 62.7458 48.5957 62.752 53.0176C62.9292 52.8045 62.9292 52.8045 63.11 52.5872C63.2673 52.3984 63.4245 52.2096 63.5817 52.0208C63.6593 51.9275 63.737 51.8342 63.8169 51.738C64.4357 50.9951 65.0562 50.256 65.707 49.541C65.8155 49.4211 65.9239 49.3012 66.0357 49.1777C67.0212 48.136 68.0381 47.2661 69.5204 47.1617C71.4558 47.2868 72.8696 48.8973 74.1059 50.2473C74.964 51.2348 75.7258 52.3005 76.4844 53.3652C76.6324 53.3101 76.6324 53.3101 76.7834 53.2538C78.2051 52.7481 79.8189 52.4764 81.2538 53.1045C83.0672 54.2204 83.7552 56.1181 84.2486 58.0937C84.6871 59.974 84.8579 61.8729 85.002 63.7949C85.1238 63.7071 85.2457 63.6192 85.3713 63.5287C86.8878 62.4903 86.8878 62.4903 87.6854 62.4586C88.3953 62.5956 88.5698 62.7065 89 63.2734C89.09 63.8216 89.09 63.8216 89.0923 64.4665C89.093 64.5827 89.0937 64.699 89.0944 64.8189C89.0948 65.0657 89.0936 65.3124 89.0906 65.5592C89.087 65.9275 89.0906 66.2951 89.0951 66.6634C89.1019 69.8586 88.1547 72.7247 85.9016 75.0686C85.7768 75.1916 85.652 75.3146 85.5234 75.4414C85.4255 75.5411 85.3276 75.6408 85.2267 75.7436C83.3942 77.4691 81.2091 77.9291 78.7914 77.9144C78.4605 77.9145 78.4605 77.9145 78.1229 77.9146C77.5211 77.9147 76.9193 77.9127 76.3174 77.9102C75.6873 77.9081 75.0572 77.9079 74.4271 77.9074C73.2353 77.9064 72.0435 77.9035 70.8517 77.9C69.4943 77.8961 68.1368 77.8942 66.7794 77.8925C63.9884 77.8888 61.1973 77.8827 58.4062 77.875C58.4062 76.9572 58.4062 76.0394 58.4062 75.0937C58.8634 75.0747 59.3205 75.0556 59.7914 75.036C60.2443 75.0158 60.6971 74.9948 61.1499 74.9738C61.4597 74.9598 61.7695 74.9465 62.0793 74.934C66.3328 74.9108 66.3328 74.9108 69.9583 73.0859C70.7687 71.9319 70.7347 70.5325 70.5742 69.1836C69.4592 64.643 66.0401 58.7729 62.0566 56.1465C61.5366 55.8864 61.2498 55.8983 60.666 55.9726C59.0525 56.794 57.8872 58.1555 56.8309 59.5904C56.7413 59.7117 56.6516 59.833 56.5592 59.958C55.3072 61.4284 55.3072 61.4284 54.7837 63.1587C54.9671 63.7396 55.2247 64.2721 55.4946 64.8161C56.7686 67.5045 57.7261 70.2975 56.7006 73.2468C56.5171 73.6784 56.3318 74.0351 56.0543 74.4138C55.7098 75.0962 55.7015 75.6972 55.6793 76.4518C55.6734 76.5888 55.6674 76.7258 55.6613 76.867C55.6471 77.2029 55.6357 77.5389 55.625 77.875C49.5929 77.8909 43.5607 77.9032 37.5286 77.9105C36.8158 77.9114 36.1031 77.9123 35.3903 77.9132C35.1775 77.9135 35.1775 77.9134 34.9603 77.9137C32.6653 77.9168 30.3702 77.9222 28.0752 77.9286C25.7188 77.9351 23.3625 77.939 21.0061 77.9404C19.553 77.9414 18.1 77.9444 16.647 77.95C15.6495 77.9537 14.652 77.9548 13.6545 77.9539C13.0796 77.9535 12.5049 77.9545 11.9301 77.9579C11.305 77.9613 10.6801 77.9605 10.0551 77.9586C9.87587 77.9606 9.69662 77.9626 9.51194 77.9647C6.98886 77.9442 4.91853 76.864 3.09631 75.1698C0.772847 72.7355 -0.0335131 69.72 -0.0513096 66.432C-0.0533209 66.1729 -0.0568898 65.9138 -0.0620041 65.6547C-0.0694125 65.2789 -0.0722304 64.9034 -0.0740142 64.5276C-0.076549 64.3037 -0.0790839 64.0798 -0.0816956 63.8492C-1.43051e-06 63.2734 -1.43051e-06 63.2734 0.313577 62.8548C0.764759 62.5278 1.11989 62.4512 1.67619 62.4724C2.22465 62.6139 2.61898 62.8821 3.0902 63.194C3.26071 63.3058 3.43122 63.4177 3.60689 63.5329C3.73597 63.6194 3.86505 63.7058 3.99805 63.7949C4.0102 63.6664 4.02236 63.5379 4.03488 63.4054C4.78166 55.6885 4.78166 55.6885 6.96399 53.6911C8.17422 52.6962 9.44175 52.7288 10.9512 52.8437C11.5092 52.9731 11.9842 53.1453 12.5156 53.3652C12.623 53.2223 12.7303 53.0793 12.8409 52.932C13.7801 51.6903 14.7509 50.5027 15.8184 49.3672C15.9217 49.2527 16.025 49.1382 16.1314 49.0202C17.0535 48.0345 18.0716 47.2573 19.4579 47.1617C21.4098 47.2879 22.811 48.919 24.0621 50.272C24.5871 50.8702 25.0665 51.5047 25.5252 52.1549C25.6968 52.3932 25.8843 52.6198 26.0742 52.8437C26.2463 52.8437 26.4184 52.8437 26.5957 52.8437C26.7996 52.876 27.0035 52.9083 27.2136 52.9415C28.1241 53.0531 29.0736 53.1317 29.8862 52.6413C31.1649 51.5327 31.9102 50.2258 32.0642 48.5417C32.1088 47.538 32.0991 46.5384 32.083 45.5341C32.0841 45.0816 32.0862 44.6291 32.0892 44.1765C32.094 43.2075 32.0907 42.2387 32.0817 41.2697C32.0686 39.8687 32.0681 38.468 32.0706 37.067C32.0743 34.7933 32.068 32.5197 32.0553 30.2461C32.043 28.0393 32.0354 25.8325 32.0342 23.6257C32.0342 23.4893 32.0341 23.353 32.034 23.2125C32.0337 22.5284 32.0334 21.8443 32.0332 21.1602C32.0314 15.4974 32.0131 9.83465 31.9844 4.17186C32.9022 4.17186 33.82 4.17186 34.7656 4.17186C34.823 18.4553 34.8804 32.7388 34.9395 47.4551C35.0542 47.3977 35.1689 47.3403 35.2871 47.2812C35.5764 47.2646 35.8664 47.2587 36.1562 47.2595C36.3104 47.2591 36.4646 47.2586 36.6234 47.2581C37.0254 47.2812 37.0254 47.2812 37.373 47.4551C37.4591 26.0299 37.4591 26.0299 37.5469 4.17186C38.4647 4.17186 39.3825 4.17186 40.3281 4.17186C40.3271 4.52374 40.3271 4.52374 40.326 4.88272C40.3096 10.4565 40.3022 16.0302 40.3058 21.6039C40.3062 22.2906 40.3066 22.9772 40.3069 23.6639C40.307 23.8006 40.307 23.9373 40.3071 24.0781C40.308 26.2889 40.3027 28.4996 40.2951 30.7103C40.2875 32.9803 40.2865 35.2502 40.2916 37.5201C40.2946 38.9199 40.2924 40.3194 40.2836 41.7191C40.2774 42.7941 40.2804 43.8688 40.2868 44.9437C40.288 45.3835 40.2863 45.8233 40.2813 46.263C40.1621 48.9877 40.1621 48.9877 41.341 51.3292C41.6353 51.6081 41.9348 51.8817 42.2402 52.1484C42.4697 52.4352 42.6991 52.7221 42.9355 53.0176C42.9929 36.8985 43.0503 20.7794 43.1094 4.17186C44.0272 4.17186 44.945 4.17186 45.8906 4.17186C45.948 20.2909 46.0054 36.41 46.0645 53.0176C46.6381 52.3292 47.2117 51.6408 47.8027 50.9316C48.2038 50.4614 48.604 49.9975 49.0195 49.541C49.128 49.4211 49.2364 49.3012 49.3482 49.1777C50.2194 48.2568 51.1437 47.3838 52.4479 47.2228C53.564 47.2068 53.564 47.2068 54.0605 47.4551C54.1179 46.4799 54.1753 45.5047 54.2344 44.5C55.1522 44.5 56.07 44.5 57.0156 44.5C57.0042 45.066 57.0042 45.066 56.9925 45.6434C56.9911 46.0163 56.9926 46.3891 56.9944 46.762C56.9941 47.0175 56.9907 47.2731 56.984 47.5286C56.9393 49.3506 57.1995 50.3737 58.4695 51.7096C58.6207 51.8544 58.7719 51.9992 58.9277 52.1484C59.2145 52.4352 59.5014 52.7221 59.7969 53.0176C59.7969 41.9464 59.7969 30.8753 59.7969 19.4687C58.8791 19.4687 57.9612 19.4687 57.0156 19.4687C57.0156 26.8112 57.0156 34.1537 57.0156 41.7187C56.0978 41.7187 55.18 41.7187 54.2344 41.7187C54.2183 38.5577 54.2059 35.3968 54.1983 32.2357C54.1948 30.768 54.1899 29.3004 54.1819 27.8327C54.175 26.5536 54.1705 25.2745 54.169 23.9954C54.168 23.318 54.1659 22.6406 54.1609 21.9632C54.1561 21.3257 54.1547 20.6883 54.1557 20.0508C54.1554 19.7051 54.1517 19.3594 54.1479 19.0137C54.1488 18.808 54.1498 18.6023 54.1508 18.3903C54.1501 18.2115 54.1495 18.0327 54.1488 17.8484C54.2575 17.2567 54.4582 17.0505 54.9297 16.6875C55.6365 16.5959 56.2997 16.6564 57.0156 16.6875C57.0156 15.7123 57.0156 14.7371 57.0156 13.7324C56.6714 13.675 56.3273 13.6177 55.9727 13.5586C54.5724 12.8841 53.7579 11.8579 53.0393 10.5166C52.2612 8.10202 53.0665 5.83488 54.1332 3.6721C55.2377 1.69205 56.8085 -0.391653 59.2754 -1.6532e-05ZM58.2324 3.12889C56.8433 4.911 55.5076 6.85406 55.7988 9.21287C56.2097 10.0505 56.6962 10.5463 57.5371 10.9512C58.4053 11.0897 59.0663 11.0518 59.8621 10.6687C60.5683 10.0297 61.0455 9.47918 61.1114 8.5067C61.0214 6.71977 60.0415 4.84441 58.9277 3.47655C58.5641 3.24944 58.5641 3.24944 58.2324 3.12889ZM19.2949 50.2363C18.214 51.1187 17.3045 52.0587 16.4376 53.1479C16.3494 53.2588 16.2612 53.3696 16.1703 53.4837C15.7193 54.0606 15.3093 54.6376 14.9492 55.2773C15.0841 55.3871 15.219 55.4969 15.358 55.61C16.8771 56.8627 18.2695 58.2129 19.6426 59.623C20.1604 59.1315 20.5717 58.6225 20.9789 58.0368C21.5888 57.1832 22.2509 56.4084 22.9657 55.6413C23.3176 55.2675 23.3176 55.2675 23.6406 54.7558C22.884 53.6454 22.077 52.6101 21.1744 51.6161C21.0878 51.5188 21.0011 51.4215 20.9118 51.3213C20.4147 50.7837 20.0015 50.4443 19.2949 50.2363ZM35.9824 50.2363C34.8939 51.125 33.9783 52.0742 33.1034 53.1697C33.0122 53.2834 32.9211 53.3971 32.8272 53.5143C32.4504 53.995 32.1797 54.3436 31.9844 54.9297C32.0877 55.0249 32.191 55.1201 32.2974 55.2183C33.3221 56.1983 34.1675 57.2173 34.9818 58.375C35.3938 58.9592 35.8023 59.4822 36.3301 59.9707C36.4459 59.7941 36.5618 59.6175 36.6811 59.4356C37.6256 58.0177 38.6047 56.7244 39.7863 55.496C40.1585 55.1364 40.1585 55.1364 40.3281 54.7558C39.5715 53.6454 38.7645 52.6101 37.8619 51.6161C37.7753 51.5188 37.6886 51.4215 37.5993 51.3213C37.1022 50.7837 36.689 50.4443 35.9824 50.2363ZM52.6699 50.2363C51.5814 51.125 50.6658 52.0742 49.7909 53.1697C49.6997 53.2834 49.6086 53.3971 49.5147 53.5143C49.1379 53.995 48.8672 54.3436 48.6719 54.9297C48.7586 55.0063 48.8453 55.0829 48.9347 55.1619C50.2532 56.3976 51.2466 57.8424 52.274 59.3212C52.5005 59.6449 52.5005 59.6449 52.8437 59.9707C52.9762 59.7901 53.1086 59.6095 53.245 59.4234C54.1737 58.1659 55.1034 56.9423 56.1743 55.8015C56.4795 55.4671 56.7505 55.1225 57.0156 54.7558C56.259 53.6454 55.452 52.6101 54.5494 51.6161C54.4628 51.5188 54.3761 51.4215 54.2868 51.3213C53.7897 50.7837 53.3765 50.4443 52.6699 50.2363ZM67.8822 51.526C67.3827 52.0477 66.9296 52.6062 66.4784 53.1697C66.3872 53.2834 66.2961 53.3971 66.2021 53.5143C65.8254 53.995 65.5547 54.3437 65.3594 54.9297C65.4461 55.0063 65.5328 55.0829 65.6222 55.1619C67.029 56.4803 68.0865 58.0466 69.1836 59.623C69.9713 58.9667 70.709 58.2846 71.4216 57.548C72.243 56.7109 73.0959 55.9622 74.0508 55.2773C73.4424 54.2688 72.7373 53.3588 71.9757 52.4635C71.8906 52.3624 71.8055 52.2613 71.7179 52.1572C71.111 51.4533 70.4661 50.7758 69.7051 50.2363C68.9745 50.2363 68.379 51.039 67.8822 51.526ZM8.65881 56.2551C6.95749 58.519 7.06194 62.2134 7.06253 64.9346C7.06176 65.3297 7.05539 65.7245 7.04886 66.1195C7.03221 68.2788 7.41798 69.9652 8.86523 71.6172C8.94635 71.7185 9.02746 71.8197 9.11104 71.9241C10.6875 73.7188 13.184 74.5384 15.4707 74.9199C15.8182 74.9293 16.1663 74.9328 16.5137 74.9199C16.4529 74.7774 16.3922 74.6349 16.3297 74.488C16.2506 74.3007 16.1715 74.1134 16.09 73.9204C16.0113 73.7349 15.9327 73.5493 15.8516 73.3582C15.0141 71.2382 15.2967 68.655 16.1714 66.601C16.5976 65.6583 17.0483 64.7257 17.5192 63.8045C17.6312 63.5809 17.6312 63.5809 17.7454 63.3529C17.8477 63.1538 17.8477 63.1538 17.9521 62.9508C18.1041 62.5013 18.0877 62.3176 17.9043 61.8828C17.6605 61.5619 17.6605 61.5619 17.3461 61.2615C17.2311 61.1462 17.116 61.0309 16.9974 60.9122C16.8736 60.7915 16.7498 60.6708 16.6223 60.5465C16.4956 60.4219 16.3689 60.2973 16.2384 60.1689C13.4105 57.3267 13.4105 57.3267 9.86474 55.7119C9.21031 55.7992 9.09288 55.8155 8.65881 56.2551ZM22.011 61.4265C20.0668 64.4667 17.792 68.0596 18.252 71.791C18.5005 72.7443 18.9934 73.3498 19.8218 73.8729C23.6878 75.8825 29.1469 75.1178 33.375 75.0937C33.2651 74.8611 33.2651 74.8611 33.153 74.6239C33.0577 74.4204 32.9625 74.2169 32.8644 74.0073C32.7696 73.8056 32.6748 73.604 32.5772 73.3962C31.6968 71.377 31.9848 68.8961 32.7408 66.8858C33.1166 65.9967 33.5373 65.1239 33.9827 64.2678C34.2344 63.7678 34.4204 63.3784 34.4071 62.8124C33.4352 60.3786 30.7543 56.8745 28.334 55.7988C25.7429 55.2355 23.2171 59.6196 22.011 61.4265ZM39.899 59.712C37.4633 63.0435 34.4111 67.504 34.9395 71.791C35.188 72.7443 35.6809 73.3498 36.5093 73.8729C38.3567 74.8332 40.532 74.9696 42.577 75.0394C42.7643 75.0461 42.9517 75.0527 43.1446 75.0596C48.2958 75.2689 48.2958 75.2689 53.0176 73.5293C53.8744 72.6725 54.1164 71.8008 54.1475 70.6068C54.1313 65.9019 50.1888 60.6968 47.1074 57.3633C45.9898 56.2635 45.9898 56.2635 44.5543 55.7119C42.5236 56.0184 41.0435 58.1748 39.899 59.712ZM72.4863 60.4922C72.3261 60.6369 72.1659 60.7817 72.0008 60.9308C71.8563 61.0657 71.7118 61.2006 71.5629 61.3396C71.3703 61.5164 71.3703 61.5164 71.1738 61.6967C70.8851 62.0357 70.8851 62.0357 70.9226 62.4396C71.1732 63.1434 71.5022 63.8001 71.8345 64.4685C73.1169 67.1418 74.1068 69.7479 73.3833 72.743C73.222 73.1947 73.0416 73.6189 72.834 74.0508C72.7166 74.3399 72.6003 74.6294 72.4863 74.9199C75.4324 74.8018 78.2366 73.7491 80.2801 71.5757C81.8113 69.6217 81.9144 67.8225 81.9165 65.4463C81.9167 65.3089 81.9169 65.1716 81.917 65.0301C81.9518 60.4064 81.9518 60.4064 80.2543 56.2008C79.8168 55.7653 79.8168 55.7653 79.2548 55.6576C76.699 55.9015 74.2789 58.8087 72.4863 60.4922ZM2.95508 66.9238C2.80405 69.1892 3.75265 71.1244 5.11706 72.8883C5.63251 73.4289 6.15864 73.8108 6.7793 74.2246C6.95139 74.1385 6.95139 74.1385 7.12695 74.0508C6.99452 73.9019 6.99452 73.9019 6.85942 73.75C5.41988 72.0543 4.65637 70.3405 4.33416 68.1399C4.13207 67.4914 3.87009 67.2814 3.30273 66.9238C3.18801 66.9238 3.07328 66.9238 2.95508 66.9238ZM84.8281 67.6191C84.6615 68.1291 84.6615 68.1291 84.6 68.7055C84.2219 70.7634 83.2079 72.6228 81.873 74.2246C83.5128 73.7277 84.3927 72.3579 85.1758 70.9219C85.6709 69.8523 86.0733 68.8513 86.0558 67.6626C86.0542 67.5237 86.0526 67.3847 86.051 67.2416C86.049 67.1367 86.047 67.0319 86.0449 66.9238C85.4722 66.9238 85.227 67.231 84.8281 67.6191Z" fill="black"/>
<path d="M13.9063 80.6562C14.8241 80.6562 15.7419 80.6562 16.6875 80.6562C16.696 80.9473 16.7045 81.2384 16.7133 81.5383C16.7264 81.9215 16.7395 82.3047 16.7527 82.6879C16.7581 82.8796 16.7635 83.0713 16.769 83.2688C16.7757 83.4542 16.7824 83.6396 16.7894 83.8307C16.7976 84.086 16.7976 84.086 16.8059 84.3465C16.8662 84.8704 16.948 85.2375 17.209 85.6973C17.8234 86.0053 18.3254 86.0884 19.0079 86.0887C19.1932 86.0896 19.3785 86.0905 19.5694 86.0914C19.7718 86.0906 19.9743 86.0899 20.183 86.0891C20.5068 86.0899 20.5068 86.0899 20.8373 86.0907C21.4361 86.0919 22.035 86.0914 22.6338 86.0904C23.2799 86.0896 23.9259 86.0908 24.5719 86.0918C25.8373 86.0933 27.1027 86.093 28.3681 86.092C29.3964 86.0912 30.4247 86.0911 31.453 86.0914C31.5993 86.0915 31.7456 86.0916 31.8963 86.0916C32.1935 86.0917 32.4907 86.0918 32.7878 86.0919C35.5752 86.0929 38.3626 86.0918 41.15 86.0899C43.5422 86.0884 45.9345 86.0886 48.3268 86.0902C51.1041 86.0921 53.8814 86.0928 56.6587 86.0918C56.9548 86.0917 57.2509 86.0916 57.547 86.0914C57.7656 86.0914 57.7656 86.0914 57.9885 86.0913C59.0157 86.091 60.0429 86.0915 61.0701 86.0923C62.3217 86.0933 63.5734 86.093 64.825 86.0912C65.4637 86.0903 66.1024 86.0899 66.7412 86.091C67.4331 86.0923 68.1251 86.0908 68.8171 86.0891C69.0196 86.0898 69.222 86.0906 69.4307 86.0914C69.6159 86.0905 69.8012 86.0896 69.9921 86.0887C70.1518 86.0886 70.3115 86.0886 70.4761 86.0885C70.9748 86.0397 71.3437 85.9215 71.791 85.6973C72.1381 85.086 72.1884 84.5251 72.2107 83.8307C72.2174 83.6452 72.2241 83.4598 72.231 83.2688C72.2364 83.0771 72.2418 82.8854 72.2473 82.6879C72.254 82.4928 72.2608 82.2978 72.2677 82.0968C72.284 81.6167 72.2985 81.1365 72.3125 80.6562C73.2303 80.6562 74.1481 80.6562 75.0938 80.6562C75.1098 81.3984 75.1236 82.14 75.132 82.8821C75.1354 83.134 75.1402 83.3859 75.1462 83.6377C75.1845 85.2731 75.1943 86.5273 74.0569 87.8253C73.9437 87.919 73.8306 88.0126 73.714 88.1091C73.6013 88.2055 73.4886 88.3018 73.3725 88.4011C72.659 88.8927 72.0322 89.0435 71.1723 89.0447C70.8822 89.0464 70.8822 89.0464 70.5862 89.0481C70.2688 89.0473 70.2688 89.0473 69.945 89.0465C69.7195 89.0473 69.494 89.0481 69.2617 89.0489C68.6361 89.051 68.0105 89.051 67.3849 89.0505C66.71 89.0505 66.0352 89.0524 65.3604 89.054C64.0384 89.0569 62.7163 89.0579 61.3943 89.0581C60.3197 89.0582 59.245 89.059 58.1704 89.0601C55.1237 89.0631 52.077 89.0647 49.0302 89.0645C48.866 89.0644 48.7017 89.0644 48.5325 89.0644C48.368 89.0644 48.2036 89.0644 48.0341 89.0644C45.3688 89.0642 42.7036 89.0676 40.0383 89.0725C37.3016 89.0775 34.5649 89.0799 31.8283 89.0796C30.2918 89.0794 28.7554 89.0804 27.2189 89.0841C25.9108 89.0873 24.6026 89.0881 23.2944 89.0857C22.6271 89.0846 21.9598 89.0845 21.2925 89.0876C20.5687 89.0908 19.8451 89.0886 19.1213 89.086C18.9108 89.0877 18.7004 89.0895 18.4836 89.0914C17.1007 89.08 16.1503 88.9002 15.081 87.9631C14.9873 87.85 14.8936 87.7368 14.7971 87.6202C14.7008 87.5075 14.6044 87.3948 14.5052 87.2787C13.9406 86.4593 13.8642 85.7674 13.8723 84.7813C13.8728 84.6629 13.8733 84.5445 13.8738 84.4226C13.8757 84.0471 13.8801 83.6717 13.8845 83.2963C13.8863 83.0406 13.8879 82.785 13.8893 82.5293C13.8928 81.9049 13.8996 81.2807 13.9063 80.6562Z" fill="black"/>
</g>
<defs>
<clipPath id="clip0_2021_27">
<rect width="89" height="89" fill="white"/>
</clipPath>
</defs>
</svg>
